<mxfile modified="2020-07-02T18:38:20.415Z" host="" agent="5.0 (Windows NT 10.0; Win64; x64) AppleWebKit/537.36 (KHTML, like Gecko) Code/1.46.0 Chrome/78.0.3904.130 Electron/7.3.1 Safari/537.36" etag="11R2W_35CR3_GqaDNU46" version="13.1.3">
    <diagram id="f106602c-feb2-e66a-4537-3a34d633f6aa" name="Page-1">
        <mxGraphModel dx="1427" dy="823" grid="0" gridSize="10" guides="1" tooltips="1" connect="1" arrows="1" fold="1" page="1" pageScale="1" pageWidth="1169" pageHeight="827" background="#ffffff" math="0" shadow="0">
            <root>
                <mxCell id="0"/>
                <mxCell id="1" parent="0"/>
                <mxCell id="14" value="" style="fillColor=#F6F6F6;strokeColor=none;shadow=0;fontSize=14;align=left;spacing=10;fontColor=#1F1F1F;9E9E9E;verticalAlign=top;spacingTop=-4;fontStyle=0;spacingLeft=40;html=1;" parent="1" vertex="1">
                    <mxGeometry x="159" y="105" width="838" height="496" as="geometry"/>
                </mxCell>
                <mxCell id="g8jBpLHVoKCk_19KpYFQ-771" value="" style="rounded=1;absoluteArcSize=1;arcSize=2;html=1;strokeColor=#23445d;shadow=0;dashed=0;strokeColor=none;fontSize=13;align=center;verticalAlign=top;spacing=10;spacingTop=-4;fillColor=#FFFFFF;fontStyle=1;fontColor=#1F1F1F;" parent="1" vertex="1">
                    <mxGeometry x="455" y="157" width="126" height="144" as="geometry"/>
                </mxCell>
                <mxCell id="778" style="edgeStyle=orthogonalEdgeStyle;rounded=0;orthogonalLoop=1;jettySize=auto;html=1;exitX=1;exitY=0.5;exitDx=0;exitDy=0;strokeColor=#1F1F1F;fontColor=#1F1F1F;" edge="1" parent="1" source="711" target="g8jBpLHVoKCk_19KpYFQ-844">
                    <mxGeometry relative="1" as="geometry"/>
                </mxCell>
                <mxCell id="711" value="Event Grid" style="rounded=1;absoluteArcSize=1;arcSize=2;html=1;strokeColor=#23445d;shadow=0;dashed=0;strokeColor=none;fontSize=13;align=center;verticalAlign=top;spacing=10;spacingTop=-4;fillColor=#E1F5FE;fontStyle=1;fontColor=#1F1F1F;" parent="1" vertex="1">
                    <mxGeometry x="174" y="265.5" width="100" height="100" as="geometry"/>
                </mxCell>
                <mxCell id="g8jBpLHVoKCk_19KpYFQ-871" style="edgeStyle=orthogonalEdgeStyle;rounded=0;orthogonalLoop=1;jettySize=auto;html=1;exitX=0.5;exitY=1;exitDx=0;exitDy=0;entryX=0.5;entryY=0;entryDx=0;entryDy=0;fontSize=13;fontColor=#1F1F1F;strokeColor=#1F1F1F;" parent="1" source="705" target="711" edge="1">
                    <mxGeometry relative="1" as="geometry"/>
                </mxCell>
                <mxCell id="705" value="Blob Storage" style="rounded=1;absoluteArcSize=1;arcSize=2;html=1;strokeColor=#36393d;shadow=0;dashed=0;strokeColor=none;fontSize=13;align=left;verticalAlign=top;spacing=10;spacingTop=-4;fillColor=#E1F5FE;fontStyle=1;fontColor=#1F1F1F;" parent="1" vertex="1">
                    <mxGeometry x="175" y="129" width="100" height="100" as="geometry"/>
                </mxCell>
                <mxCell id="2" value="Challenge 6: Batch File Processing" style="fillColor=#4DA1F5;strokeColor=none;shadow=1;gradientColor=none;fontSize=14;align=left;spacingLeft=50;fontColor=#ffffff;html=1;" parent="1" vertex="1">
                    <mxGeometry x="162" y="50" width="832" height="40" as="geometry"/>
                </mxCell>
                <mxCell id="g8jBpLHVoKCk_19KpYFQ-722" value="" style="shape=image;verticalLabelPosition=bottom;verticalAlign=top;imageAspect=0;aspect=fixed;image=data:image/svg+xml,PHN2ZyB4bWxucz0iaHR0cDovL3d3dy53My5vcmcvMjAwMC9zdmciIHdpZHRoPSIxOCIgaGVpZ2h0PSIxOCIgdmlld0JveD0iMCAwIDE4IDE4Ij4mI3hhOyAgPGRlZnM+JiN4YTsgICAgPGxpbmVhckdyYWRpZW50IGlkPSJhMjA1NDdlNS1kNmFmLTQ1NmItYWZiYy0wNWQyMmZmOGNiOWQiIHgxPSI0NTg5LjcyIiB5MT0iLTUxODAuMDIiIHgyPSI0NTg5LjcyIiB5Mj0iLTUxODQuMjEiIGdyYWRpZW50VHJhbnNmb3JtPSJtYXRyaXgoMC41LCAwLCAwLCAtMC41LCAtMjI3NS4zMSwgLTI1ODkuMzIpIiBncmFkaWVudFVuaXRzPSJ1c2VyU3BhY2VPblVzZSI+JiN4YTsgICAgICA8c3RvcCBvZmZzZXQ9IjAiIHN0b3AtY29sb3I9IiNjNjlhZWIiLz4mI3hhOyAgICAgIDxzdG9wIG9mZnNldD0iMSIgc3RvcC1jb2xvcj0iIzZmNGJiMiIvPiYjeGE7ICAgIDwvbGluZWFyR3JhZGllbnQ+JiN4YTsgICAgPGxpbmVhckdyYWRpZW50IGlkPSJhNDc0NWY1MS01ZTc1LTQxMjYtODEyZC02YmI4YTUxMzBlMTYiIHgxPSI0NTg3Ljk5IiB5MT0iLTUxODguNDciIHgyPSI0NTg3Ljk5IiB5Mj0iLTUxOTIuNjUiIGhyZWY9IiNhMjA1NDdlNS1kNmFmLTQ1NmItYWZiYy0wNWQyMmZmOGNiOWQiLz4mI3hhOyAgPC9kZWZzPiYjeGE7ICA8dGl0bGU+SWNvbi1pbnRlZ3JhdGlvbi0yMjE8L3RpdGxlPiYjeGE7ICA8Zz4mI3hhOyAgICA8ZyBpZD0iYjMwYjBiZDUtZTRkMi00NTZiLThkNDktYzJkZjIwMjAwOTEyIj4mI3hhOyAgICAgIDxwYXRoIGlkPSJiNTE4NzhiNS04ZDUwLTRiOGItYmM0OC03NGY1ZjczMTVhOTkiIGQ9Ik0xMi43LDguMTV2LS42SDguMThMNi4wNiw5LjY2SDQuNUw4LjEyLDZoMi40N1Y1LjQzSDcuODdMMy42NSw5LjY2aC0uNnYuNkg0Ljg2TDcsMTIuMzdIMTIuMXYtLjZINy4yMkw1LjcxLDEwLjI2SDkuMzh2LS42SDYuOTJsMS41LTEuNTFaIiBmaWxsPSIjMzJiZWRkIi8+JiN4YTsgICAgICA8Y2lyY2xlIGlkPSJhZDBlZDRlYi1jZDVmLTRjYzAtYmQxOS0yODMwZDI3ZWM4MDYiIGN4PSI5Ljk4IiBjeT0iOS45NiIgcj0iMC44NyIgZmlsbD0iI2ZmZiIvPiYjeGE7ICAgICAgPGNpcmNsZSBpZD0iYTI3NDZiNGEtMGFlNC00MzA4LTg3NmUtNWI4MjY1N2UxODcyIiBjeD0iMTAuODkiIGN5PSI1Ljc0IiByPSIwLjg3IiBmaWxsPSIjZmZmIi8+JiN4YTsgICAgICA8Y2lyY2xlIGlkPSJmYzMzMTZlMC03MDk0LTRjZTAtOTllZC00M2YxZTZlNDM1MGMiIGN4PSIxMyIgY3k9IjcuODUiIHI9IjAuODciIGZpbGw9IiNmZmYiLz4mI3hhOyAgICAgIDxjaXJjbGUgaWQ9ImI1ZDE4NDQzLWQ1MGUtNDU5MC04ZThmLTgwYjZhN2Y2ZDM0OCIgY3g9IjEyLjEiIGN5PSIxMi4wNyIgcj0iMC44NyIgZmlsbD0iI2ZmZiIvPiYjeGE7ICAgICAgPGNpcmNsZSBjeD0iMTAuODYiIGN5PSI1Ljc0IiByPSIxLjA1IiBmaWxsPSIjNTBlNmZmIi8+JiN4YTsgICAgICA8Y2lyY2xlIGN4PSIxMi45NyIgY3k9IjcuODUiIHI9IjEuMDUiIGZpbGw9InVybCgjYTIwNTQ3ZTUtZDZhZi00NTZiLWFmYmMtMDVkMjJmZjhjYjlkKSIvPiYjeGE7ICAgICAgPGNpcmNsZSBjeD0iMTIuMSIgY3k9IjEyLjA3IiByPSIxLjA1IiBmaWxsPSJ1cmwoI2E0NzQ1ZjUxLTVlNzUtNDEyNi04MTJkLTZiYjhhNTEzMGUxNikiLz4mI3hhOyAgICAgIDxjaXJjbGUgY3g9IjkuOTgiIGN5PSI5Ljk2IiByPSIxLjA1IiBmaWxsPSIjNTBlNmZmIi8+JiN4YTsgICAgICA8Zz4mI3hhOyAgICAgICAgPHBhdGggZD0iTTEuMDcsMS40M0gyLjM2YTAsMCwwLDAsMSwwLDBWNWEuMjkuMjksMCwwLDEtLjI5LjI5SC43OUEuMjkuMjksMCwwLDEsLjUsNVYyQS41Ny41NywwLDAsMSwxLjA3LDEuNDNaIiBmaWxsPSIjOTk5Ii8+JiN4YTsgICAgICAgIDxwYXRoIGQ9Ik0xLjA3LDEuNDNIMi4zNmEwLDAsMCwwLDEsMCwwVjVhLjI5LjI5LDAsMCwxLS4yOS4yOUguNzlBLjI5LjI5LDAsMCwxLC41LDVWMkEuNTcuNTcsMCwwLDEsMS4wNywxLjQzWiIgZmlsbD0iIzk5OSIgb3BhY2l0eT0iMC41Ii8+JiN4YTsgICAgICA8L2c+JiN4YTsgICAgICA8Zz4mI3hhOyAgICAgICAgPHBhdGggZD0iTTE1LjY0LDEuNDNoMS4yOUEuNTcuNTcsMCwwLDEsMTcuNSwyVjVhLjI5LjI5LDAsMCwxLS4yOS4yOUgxNS45MkEuMjkuMjksMCwwLDEsMTUuNjQsNVYxLjQzQTAsMCwwLDAsMSwxNS42NCwxLjQzWiIgZmlsbD0iIzk5OSIvPiYjeGE7ICAgICAgICA8cGF0aCBkPSJNMTUuNjQsMS40M2gxLjI5QS41Ny41NywwLDAsMSwxNy41LDJWNWEuMjkuMjksMCwwLDEtLjI5LjI5SDE1LjkyQS4yOS4yOSwwLDAsMSwxNS42NCw1VjEuNDNBMCwwLDAsMCwxLDE1LjY0LDEuNDNaIiBmaWxsPSIjOTk5IiBvcGFjaXR5PSIwLjUiLz4mI3hhOyAgICAgIDwvZz4mI3hhOyAgICAgIDxwYXRoIGQ9Ik04LjY2LTYuMTZIOS45MWEwLDAsMCwwLDEsMCwwdjE3YTAsMCwwLDAsMSwwLDBIOC42NmEuNTcuNTcsMCwwLDEtLjU3LS41N1YtNS42QS41Ny41NywwLDAsMSw4LjY2LTYuMTZaIiB0cmFuc2Zvcm09InRyYW5zbGF0ZSgxMS4zNCAtNi42Nikgcm90YXRlKDkwKSIgZmlsbD0iIzk0OTQ5NCIvPiYjeGE7ICAgICAgPGc+JiN4YTsgICAgICAgIDxwYXRoIGQ9Ik0uNzksMTIuNjhIMi4wOGEuMjkuMjksMCwwLDEsLjI5LjI5djMuNmEwLDAsMCwwLDEsMCwwSDEuMDdBLjU3LjU3LDAsMCwxLC41LDE2VjEzQS4yOS4yOSwwLDAsMSwuNzksMTIuNjhaIiBmaWxsPSIjOTk5Ii8+JiN4YTsgICAgICAgIDxwYXRoIGQ9Ik0uNzksMTIuNjhIMi4wOGEuMjkuMjksMCwwLDEsLjI5LjI5djMuNmEwLDAsMCwwLDEsMCwwSDEuMDdBLjU3LjU3LDAsMCwxLC41LDE2VjEzQS4yOS4yOSwwLDAsMSwuNzksMTIuNjhaIiBmaWxsPSIjOTk5IiBvcGFjaXR5PSIwLjUiLz4mI3hhOyAgICAgIDwvZz4mI3hhOyAgICAgIDxnPiYjeGE7ICAgICAgICA8cGF0aCBkPSJNMTUuOTIsMTIuNjhoMS4yOWEuMjkuMjksMCwwLDEsLjI5LjI5djNhLjU3LjU3LDAsMCwxLS41Ny41N0gxNS42NGEwLDAsMCwwLDEsMCwwVjEzQS4yOS4yOSwwLDAsMSwxNS45MiwxMi42OFoiIGZpbGw9IiM5OTkiLz4mI3hhOyAgICAgICAgPHBhdGggZD0iTTE1LjkyLDEyLjY4aDEuMjlhLjI5LjI5LDAsMCwxLC4yOS4yOXYzYS41Ny41NywwLDAsMS0uNTcuNTdIMTUuNjRhMCwwLDAsMCwxLDAsMFYxM0EuMjkuMjksMCwwLDEsMTUuOTIsMTIuNjhaIiBmaWxsPSIjOTk5IiBvcGFjaXR5PSIwLjUiLz4mI3hhOyAgICAgIDwvZz4mI3hhOyAgICAgIDxwYXRoIGQ9Ik04LjY2LDcuMTZIOS45MWEwLDAsMCwwLDEsMCwwdjE3YTAsMCwwLDAsMSwwLDBIOC42NmEuNTcuNTcsMCwwLDEtLjU3LS41N1Y3LjczQS41Ny41NywwLDAsMSw4LjY2LDcuMTZaIiB0cmFuc2Zvcm09InRyYW5zbGF0ZSgtNi42NiAyNC42Nikgcm90YXRlKC05MCkiIGZpbGw9IiM5NDk0OTQiLz4mI3hhOyAgICA8L2c+JiN4YTsgIDwvZz4mI3hhOzwvc3ZnPg==;fontColor=#1F1F1F;" parent="1" vertex="1">
                    <mxGeometry x="198.51" y="301" width="50.99" height="50.99" as="geometry"/>
                </mxCell>
                <mxCell id="g8jBpLHVoKCk_19KpYFQ-735" value="&lt;b style=&quot;font-size: 13px;&quot;&gt;&lt;font style=&quot;font-size: 13px;&quot;&gt;Kubernetes&lt;/font&gt;&lt;/b&gt;" style="rounded=1;absoluteArcSize=1;arcSize=2;html=1;strokeColor=none;gradientColor=none;shadow=0;dashed=0;strokeColor=none;fontSize=13;fontColor=#1F1F1F;align=center;verticalAlign=top;spacing=10;spacingTop=-4;fillColor=#E1F5FE;" parent="1" vertex="1">
                    <mxGeometry x="333" y="115" width="538" height="327" as="geometry"/>
                </mxCell>
                <mxCell id="g8jBpLHVoKCk_19KpYFQ-737" value="" style="shape=image;verticalLabelPosition=bottom;labelBackgroundColor=#ffffff;verticalAlign=top;aspect=fixed;imageAspect=0;image=data:image/png,iVBORw0KGgoAAAANSUhEUgAAADAAAAAwCAYAAABXAvmHAAAABmJLR0QA/wD/AP+gvaeTAAAI8ElEQVRoge2Za3CU5RXHf+d5c2EFyi22tKWI6Iht1WrVKrFSsrsI6kwdRrEd2zqtOPFWZ4jCbihTjTMI2YAy2E4B29pqOyMEL7UgomSzVMBbnU6xHS+tpl6KtRJABmGT7L7n9EMu7G72lkC/cb4k7/Oc8z////u87/Oc9yycsBN2TCb/F9RIYpITXQjMA7oQfqfdqQdYNWf/8U51fAU0JqY4/AZM6oERObOfIvaQqsZouezD45Xy+AhYFD/NiUUQuQGoKOHdjdnDWukv5d7ZHxxr6mMTEN12thO3COM6wBtidA/CBhVbyvLwP4ZLYXgCGred58wtBq4ZNsZRU+BxNb2blllvDDV4aMkbt80U85YIFi7Du1uR8z3HKab2dBn+vULULWNF3V/LpVSWAC8avxxjiQmXlAsMHNEDY8Yy5uBk53h7CHFmwtOm7l5a6l4q5VxcwMK2czxPHjI4fwgEBkzNXejhf81EfjWceINtVpGeX+xldwWjmxKjnCftwyUP4Dk91YTPDTdeYJZLVWwBK3ijCwrwuvwrgQnDTQ50+yleUWTnMWCAcBaR7QVvYkEBBrWDsXge4+8lUr4Fsk7M5nNf6D1ioefBFiDyMPDvopEmHwDvDCZpg7j0W8FDR4xayx7a73fsCzJ13CgnbjfGKdm52WwiS1kefDkXS2Ph1QDMa/UqptaEDbvH4KIct49VUxfgjz7kqpJ7gZEZc7XAA+ULWPjsSEPOzRkd506tuU0DnWs1WXOlw54DvgAcELXrdUV4M9BXTthcMTr8WPApAK+x/QbDqjSdfiIdCz4L9pyLxutBVgPVwCFFr2bUi51ecsY1Bifl5C64AvkfoQp3YR5xgthql5zwTw+brFZ9psC31dnF/orwZhoTU1w03upM38HsfkMn9Qea2VkYa5xX8YGLxNewOD5eY+F1iobBFqi4c1B3xCUvfc2wDeTujmJfIpKYRB7LuwLOpKBiYLLBH6jQKf6y0CYAGraOd6Y7gIEkYuzJILCnbyOpQrjZqVyhP2n7BsvCOxV20rhjnHM9rwGjCyX1xGp9aB3ENZ9zvhc4x6o8P3XBwNWqOftV7FsGif4hHxmoOCXjf4T3nMkNLAv/d4CcdV9ZjDyAieY9RPMIMBFkelEwSPix0CYWt02g/tVKAJrDHRYLhoBbgcOIfnSUM71kzR5UrT473RKMD4DVv1rpB7zHQP5VLKdYfk6DBUTazgTGFwNzyH0ATl1Mxn3y6IAIxDQWWqPOvk7gwICA9Aj3iorWaUv4Jlq+eWgApzG+1I0/eAdNdV2Y5d1l+s3gXJo25b7cg0sJL9I2v8TRv1c79n2eSZ8Z46oqP6R3F9moAXcdTXXpYiQyzUXb7gK5B9ijHftO4fSJ452mPqLI2aQqM1kR/FMWTq6TiSv1+Oxk47W+V1U1p488wDxJ+utpaq0qi3wkvqSPPMAXOb3mApbP2AsULaedDH438+xChU89AEHeMCC3RhJkjpesqUvDswAVjW1z1OQxwInJd/2W4B8BvMb2ejNbmkXM7DyFl4HXga8Wym1uMLfsFWjYOh44s5gA0H19f2uAg8DvxeQq7Qmc3HtI9c0ia+k9TQMm9sv+cb85+KCKOxXsZhM2A0nMPtvLkH3FMosxPbewy1oBr6pquhWp/PpgHICaNZPsqednV3QXSLbHGCg39mRNNte9q7AOWGcNLwSoOnwyAM60RPoJLN4+jeW8mVdAif2/22CT+elHAEp9/vmiPxZzzYBnYosLOq6qTQLvA2j3SQtddVIxwiDVYEfIeaQ8s1qfowKy5Eq0PSHYzIFrY5efCsyiUitoueRTkOz6bl6rxxkTJqI22TOZZNhkVW8DLXX5q87otjGeuMt80//gKjrpoZP76jqzfO5M1GSOuUj7esS+k8Hy1xoL3th/lbUCgk7L1KQiKcZ0p7ykztRoe4MQvxToUGczeHv/J27qhLdJMwUE65esPU/kJQ8gFePMdIPDCapQARZt326xYB2LEuc6p8+ATiQafx/jQVXbhGRzErEzMiGzXmLJOQ0Fm+mSeshgi8AseptVX3HGD9l4rQ/cnxO/i5Wzj2JE2qcRaZ82cN1c967Ai5kxnthyACf+LcDEvuHJCEudJ7vJqYrNLItjlgAfFgGpnPuW22EDkwVEdo7Wjn2/EGPXUXAezXTyRH/rYb/J3DnMZEOGzyPp5tBzLIqfhsgPBuUZbAdUuCdzIHsbjYVewLijDKBJTrpjbLzW973KucBbQFo19Vi/gxeJX2/IxSZM9yLx6/rHtdIeB9SQ7RrwbgITcbIWCJTIqeLk+zSHOwoLALQl9PO+z79SdrPX2F7P8hl7tSdVi8ldrJz9MQALEmNNJNbvaCItNCVGAXBvaA8mDRaQy2mq63LRxMqy+kwmTf7y4Jbc4fybbsMLAa8quaOMjoQi3KbNobWZgy4afwC4PZsAMW0JNQ5cz2v13NSaZWCRktyxpywWmjtoF6RQ4bSqNumnuRrozDufGW+scZH29ZnPuZrfLCZXIdwiZjcKXKGuamBFqH+1UqbWtJVDHnjLAj3X5yMPJRpbFZH2kIptpXTHuUtjoQBNiRF0pb/MiF27aWrSLI+mRAXd/oVUe38GcEntKZUfOKSmFxU7NEu2Fl00vhBYUcxHsJf8A2NnyLiDWwWCQKcgbyq2F8FzyskmnAWMNnjSAjuucclLXwemFYE1Ea72m0NPFs9d0kxcJPFo9mmYZV2qXOI5Ob3vg7ykqWidZ95IwzYV5iDLNBZcUgqrcGvxKJCppuYDf8s/b42sCP3F0NmlsfqSmszwY8GngVi+eTPZqoHnf1oWVlkZV84+rMpc4EDulIgcpCkxAop2MrJjTC5jXqsHecvnDkv1fG/QO1QIq9yk0NtmN9hMtnADDgOjhoIFfAKMyeFwRJFaYsHd5YKUtwJ95sdCzwB35wwLQycPMJbcatjs1qGQ708+RDORaHur9P68dBxN7tdY8M6hRg1pBfoSmQXcj4D1QM/Q4wfZYWC1BiQ6nOBj+4Hu9i3VjBw9qFczJBuRPjSUdswJO2HH2f4HjA+YxE8ApIcAAAAASUVORK5CYII=;align=center;fontColor=#1F1F1F;" parent="1" vertex="1">
                    <mxGeometry x="541" y="121" width="23" height="23" as="geometry"/>
                </mxCell>
                <mxCell id="g8jBpLHVoKCk_19KpYFQ-748" value="" style="shape=image;verticalLabelPosition=bottom;labelBackgroundColor=#ffffff;verticalAlign=top;aspect=fixed;imageAspect=0;image=data:image/svg+xml,PHN2ZyB4bWxucz0iaHR0cDovL3d3dy53My5vcmcvMjAwMC9zdmciIHdpZHRoPSIyNTAwIiBoZWlnaHQ9IjIxNDgiIHZpZXdCb3g9IjAgMCAyNTYgMjIwIiBwcmVzZXJ2ZUFzcGVjdFJhdGlvPSJ4TWluWU1pbiBtZWV0Ij48cGF0aCBkPSJNMjQ1Ljk3IDE2OC45NDNjLTEzLjY2MiA3LjEyMS04NC40MzQgMzYuMjItOTkuNTAxIDQ0LjA3NS0xNS4wNjcgNy44NTYtMjMuNDM3IDcuNzgtMzUuMzQgMi4wOS0xMS45MDItNS42OS04Ny4yMTYtMzYuMTEyLTEwMC43ODMtNDIuNTk3QzMuNTY2IDE2OS4yNzEgMCAxNjYuNTM1IDAgMTYzLjk1MXYtMjUuODc2czk4LjA1LTIxLjM0NSAxMTMuODc5LTI3LjAyNGMxNS44MjgtNS42NzkgMjEuMzItNS44ODQgMzQuNzktLjk1IDEzLjQ3MiA0LjkzNiA5NC4wMTggMTkuNDY4IDEwNy4zMzEgMjQuMzQ0bC0uMDA2IDI1LjUxYy4wMDIgMi41NTgtMy4wNyA1LjM2NC0xMC4wMjQgOC45ODgiIGZpbGw9IiM5MTI2MjYiLz48cGF0aCBkPSJNMjQ1Ljk2NSAxNDMuMjJjLTEzLjY2MSA3LjExOC04NC40MzEgMzYuMjE4LTk5LjQ5OCA0NC4wNzItMTUuMDY2IDcuODU3LTIzLjQzNiA3Ljc4LTM1LjMzOCAyLjA5LTExLjkwMy01LjY4Ni04Ny4yMTQtMzYuMTEzLTEwMC43OC00Mi41OTQtMTMuNTY2LTYuNDg1LTEzLjg1LTEwLjk0OC0uNTI0LTE2LjE2NiAxMy4zMjYtNS4yMiA4OC4yMjQtMzQuNjA1IDEwNC4wNTUtNDAuMjg0IDE1LjgyOC01LjY3NyAyMS4zMTktNS44ODQgMzQuNzg5LS45NDggMTMuNDcxIDQuOTM0IDgzLjgxOSAzMi45MzUgOTcuMTMgMzcuODEgMTMuMzE2IDQuODgxIDEzLjgyNyA4LjkuMTY2IDE2LjAyIiBmaWxsPSIjQzYzMDJCIi8+PHBhdGggZD0iTTI0NS45NyAxMjcuMDc0Yy0xMy42NjIgNy4xMjItODQuNDM0IDM2LjIyLTk5LjUwMSA0NC4wNzgtMTUuMDY3IDcuODUzLTIzLjQzNyA3Ljc3Ny0zNS4zNCAyLjA4Ny0xMS45MDMtNS42ODctODcuMjE2LTM2LjExMi0xMDAuNzgzLTQyLjU5N0MzLjU2NiAxMjcuNDAyIDAgMTI0LjY3IDAgMTIyLjA4NVY5Ni4yMDZzOTguMDUtMjEuMzQ0IDExMy44NzktMjcuMDIzYzE1LjgyOC01LjY3OSAyMS4zMi01Ljg4NSAzNC43OS0uOTVDMTYyLjE0MiA3My4xNjggMjQyLjY4OCA4Ny42OTcgMjU2IDkyLjU3NGwtLjAwNiAyNS41MTNjLjAwMiAyLjU1Ny0zLjA3IDUuMzYzLTEwLjAyNCA4Ljk4NyIgZmlsbD0iIzkxMjYyNiIvPjxwYXRoIGQ9Ik0yNDUuOTY1IDEwMS4zNTFjLTEzLjY2MSA3LjEyLTg0LjQzMSAzNi4yMTgtOTkuNDk4IDQ0LjA3NS0xNS4wNjYgNy44NTQtMjMuNDM2IDcuNzc3LTM1LjMzOCAyLjA4Ny0xMS45MDMtNS42ODYtODcuMjE0LTM2LjExMi0xMDAuNzgtNDIuNTk0LTEzLjU2Ni02LjQ4My0xMy44NS0xMC45NDctLjUyNC0xNi4xNjdDMjMuMTUxIDgzLjUzNSA5OC4wNSA1NC4xNDggMTEzLjg4IDQ4LjQ3YzE1LjgyOC01LjY3OCAyMS4zMTktNS44ODQgMzQuNzg5LS45NDkgMTMuNDcxIDQuOTM0IDgzLjgxOSAzMi45MzMgOTcuMTMgMzcuODEgMTMuMzE2IDQuODggMTMuODI3IDguOS4xNjYgMTYuMDIiIGZpbGw9IiNDNjMwMkIiLz48cGF0aCBkPSJNMjQ1Ljk3IDgzLjY1M2MtMTMuNjYyIDcuMTItODQuNDM0IDM2LjIyLTk5LjUwMSA0NC4wNzgtMTUuMDY3IDcuODU0LTIzLjQzNyA3Ljc3Ny0zNS4zNCAyLjA4Ny0xMS45MDMtNS42ODctODcuMjE2LTM2LjExMy0xMDAuNzgzLTQyLjU5NUMzLjU2NiA4My45OCAwIDgxLjI0NyAwIDc4LjY2NXYtMjUuODhzOTguMDUtMjEuMzQzIDExMy44NzktMjcuMDIxYzE1LjgyOC01LjY4IDIxLjMyLTUuODg0IDM0Ljc5LS45NUMxNjIuMTQyIDI5Ljc0OSAyNDIuNjg4IDQ0LjI3OCAyNTYgNDkuMTU1bC0uMDA2IDI1LjUxMmMuMDAyIDIuNTU1LTMuMDcgNS4zNjEtMTAuMDI0IDguOTg2IiBmaWxsPSIjOTEyNjI2Ii8+PHBhdGggZD0iTTI0NS45NjUgNTcuOTNjLTEzLjY2MSA3LjEyLTg0LjQzMSAzNi4yMi05OS40OTggNDQuMDc0LTE1LjA2NiA3Ljg1NC0yMy40MzYgNy43NzctMzUuMzM4IDIuMDlDOTkuMjI3IDk4LjQwNCAyMy45MTUgNjcuOTggMTAuMzUgNjEuNDk3LTMuMjE3IDU1LjAxNS0zLjUgNTAuNTUgOS44MjUgNDUuMzMxIDIzLjE1MSA0MC4xMTMgOTguMDUgMTAuNzMgMTEzLjg4IDUuMDVjMTUuODI4LTUuNjc5IDIxLjMxOS01Ljg4MyAzNC43ODktLjk0OCAxMy40NzEgNC45MzUgODMuODE5IDMyLjkzNCA5Ny4xMyAzNy44MTEgMTMuMzE2IDQuODc2IDEzLjgyNyA4Ljg5Ny4xNjYgMTYuMDE3IiBmaWxsPSIjQzYzMDJCIi8+PHBhdGggZD0iTTE1OS4yODMgMzIuNzU3bC0yMi4wMSAyLjI4NS00LjkyNyAxMS44NTYtNy45NTgtMTMuMjMtMjUuNDE1LTIuMjg0IDE4Ljk2NC02LjgzOS01LjY5LTEwLjQ5OCAxNy43NTUgNi45NDQgMTYuNzM4LTUuNDgtNC41MjQgMTAuODU1IDE3LjA2NyA2LjM5MU0xMzEuMDMyIDkwLjI3NUw4OS45NTUgNzMuMjM4bDU4Ljg2LTkuMDM1LTE3Ljc4MyAyNi4wNzJNNzQuMDgyIDM5LjM0N2MxNy4zNzUgMCAzMS40NiA1LjQ2IDMxLjQ2IDEyLjE5NCAwIDYuNzM2LTE0LjA4NSAxMi4xOTUtMzEuNDYgMTIuMTk1cy0zMS40Ni01LjQ2LTMxLjQ2LTEyLjE5NWMwLTYuNzM0IDE0LjA4NS0xMi4xOTQgMzEuNDYtMTIuMTk0IiBmaWxsPSIjRkZGIi8+PHBhdGggZD0iTTE4NS4yOTUgMzUuOTk4bDM0LjgzNiAxMy43NjYtMzQuODA2IDEzLjc1My0uMDMtMjcuNTIiIGZpbGw9IiM2MjFCMUMiLz48cGF0aCBkPSJNMTQ2Ljc1NSA1MS4yNDNsMzguNTQtMTUuMjQ1LjAzIDI3LjUxOS0zLjc3OSAxLjQ3OC0zNC43OTEtMTMuNzUyIiBmaWxsPSIjOUEyOTI4Ii8+PC9zdmc+;fontColor=#1F1F1F;" parent="1" vertex="1">
                    <mxGeometry x="439.40999999999997" y="373" width="53.22" height="45.75" as="geometry"/>
                </mxCell>
                <mxCell id="g8jBpLHVoKCk_19KpYFQ-787" value="Cosmos DB" style="rounded=1;absoluteArcSize=1;arcSize=2;html=1;strokeColor=#23445d;shadow=0;dashed=0;strokeColor=none;fontSize=13;align=center;verticalAlign=top;spacing=10;spacingTop=-4;fillColor=#E1F5FE;fontStyle=1;fontColor=#1F1F1F;" parent="1" vertex="1">
                    <mxGeometry x="884" y="264" width="100" height="100" as="geometry"/>
                </mxCell>
                <mxCell id="g8jBpLHVoKCk_19KpYFQ-786" value="" style="shape=image;verticalLabelPosition=bottom;labelBackgroundColor=#ffffff;verticalAlign=top;aspect=fixed;imageAspect=0;image=data:image/svg+xml,PHN2ZyB4bWxucz0iaHR0cDovL3d3dy53My5vcmcvMjAwMC9zdmciIGlkPSJiMDg5Y2ZjYS0wZGUxLTQ1MWMtYTFjYS02NjgwZWE1MGNiNGYiIHdpZHRoPSIxOCIgaGVpZ2h0PSIxOCIgdmlld0JveD0iMCAwIDE4IDE4Ij4mI3hhOyAgPGRlZnM+JiN4YTsgICAgPHJhZGlhbEdyYWRpZW50IGlkPSJiMjVkMDgzNi05NjRhLTRjODQtOGMyMC04NTVmNjZlODM0NWUiIGN4PSItMTA1LjAwNiIgY3k9Ii0xMC40MDkiIHI9IjUuOTU0IiBncmFkaWVudFRyYW5zZm9ybT0idHJhbnNsYXRlKDExNy43MzkgMTkuNjQ0KSBzY2FsZSgxLjAzNiAxLjAyNykiIGdyYWRpZW50VW5pdHM9InVzZXJTcGFjZU9uVXNlIj4mI3hhOyAgICAgIDxzdG9wIG9mZnNldD0iMC4xODMiIHN0b3AtY29sb3I9IiM1ZWEwZWYiLz4mI3hhOyAgICAgIDxzdG9wIG9mZnNldD0iMSIgc3RvcC1jb2xvcj0iIzAwNzhkNCIvPiYjeGE7ICAgIDwvcmFkaWFsR3JhZGllbnQ+JiN4YTsgICAgPGNsaXBQYXRoIGlkPSJiMzZjN2Y1ZC0yZWYxLTQ3NjAtOGEyNS1lZWI5NjYxZjRlNDciPiYjeGE7ICAgICAgPHBhdGggZD0iTTE0Ljk2OSw3LjUzQTYuMTM3LDYuMTM3LDAsMSwxLDcuNTc0LDIuOTg3LDYuMTM3LDYuMTM3LDAsMCwxLDE0Ljk2OSw3LjUzWiIgZmlsbD0ibm9uZSIvPiYjeGE7ICAgIDwvY2xpcFBhdGg+JiN4YTsgIDwvZGVmcz4mI3hhOyAgPHRpdGxlPkljb24tZGF0YWJhc2VzLTEyMTwvdGl0bGU+JiN4YTsgIDxwYXRoIGQ9Ik0yLjk1NCw1LjI2NmEuMTc1LjE3NSwwLDAsMS0uMTc2LS4xNzZoMEEyLjAxMiwyLjAxMiwwLDAsMCwuNzY5LDMuMDgxYS4xNzYuMTc2LDAsMCwxLS4xNzYtLjE3NWgwYS4xNzYuMTc2LDAsMCwxLC4xNzYtLjE3NkEyLjAxMiwyLjAxMiwwLDAsMCwyLjc3OC43Mi4xNzUuMTc1LDAsMCwxLDIuOTU0LjU0NGgwQS4xNzUuMTc1LDAsMCwxLDMuMTMuNzJoMEEyLjAxMiwyLjAxMiwwLDAsMCw1LjEzOSwyLjcyOWEuMTc1LjE3NSwwLDAsMSwuMTc2LjE3NmgwYS4xNzUuMTc1LDAsMCwxLS4xNzYuMTc2aDBBMi4wMTEsMi4wMTEsMCwwLDAsMy4xMyw1LjA5LjE3Ny4xNzcsMCwwLDEsMi45NTQsNS4yNjZaIiBmaWxsPSIjNTBlNmZmIi8+JiN4YTsgIDxwYXRoIGQ9Ik0xNS42MTEsMTcuNDU2YS4xNDEuMTQxLDAsMCwxLS4xNDEtLjE0MWgwYTEuNjA5LDEuNjA5LDAsMCwwLTEuNjA3LTEuNjA3LjE0MS4xNDEsMCwwLDEtLjE0MS0uMTRoMGEuMTQxLjE0MSwwLDAsMSwuMTQxLS4xNDFoMGExLjYwOCwxLjYwOCwwLDAsMCwxLjYwNy0xLjYwNy4xNDEuMTQxLDAsMCwxLC4xNDEtLjE0MWgwYS4xNDEuMTQxLDAsMCwxLC4xNDEuMTQxaDBhMS42MDgsMS42MDgsMCwwLDAsMS42MDcsMS42MDcuMTQxLjE0MSwwLDEsMSwwLC4yODJoMGExLjYwOSwxLjYwOSwwLDAsMC0xLjYwNywxLjYwN0EuMTQxLjE0MSwwLDAsMSwxNS42MTEsMTcuNDU2WiIgZmlsbD0iIzUwZTZmZiIvPiYjeGE7ICA8Zz4mI3hhOyAgICA8cGF0aCBkPSJNMTQuOTY5LDcuNTNBNi4xMzcsNi4xMzcsMCwxLDEsNy41NzQsMi45ODcsNi4xMzcsNi4xMzcsMCwwLDEsMTQuOTY5LDcuNTNaIiBmaWxsPSJ1cmwoI2IyNWQwODM2LTk2NGEtNGM4NC04YzIwLTg1NWY2NmU4MzQ1ZSkiLz4mI3hhOyAgICA8ZyBjbGlwLXBhdGg9InVybCgjYjM2YzdmNWQtMmVmMS00NzYwLThhMjUtZWViOTY2MWY0ZTQ3KSI+JiN4YTsgICAgICA8cGF0aCBkPSJNNS43MDksMTMuMTE1QTEuNjM4LDEuNjM4LDAsMSwwLDUuNzE0LDkuODQsMS4zMDcsMS4zMDcsMCwwLDAsNS43MjEsOS43LDEuNjUxLDEuNjUxLDAsMCwwLDQuMDYsOC4wNjRIMi44MzJhNi4yNTEsNi4yNTEsMCwwLDAsMS41OTUsNS4wNTFaIiBmaWxsPSIjZjJmMmYyIi8+JiN4YTsgICAgICA8cGF0aCBkPSJNMTUuMDQ1LDcuODE1YzAtLjAxNSwwLS4wMy0uMDA3LS4wNDRhNS45NzgsNS45NzgsMCwwLDAtMS40MDYtMi44OCwxLjgyNSwxLjgyNSwwLDAsMC0uMjg5LS4wOSwxLjgwNiwxLjgwNiwwLDAsMC0yLjMsMS42NjMsMiwyLDAsMCwwLS4yLS4wMTMsMS43MzcsMS43MzcsMCwwLDAtLjU4MSwzLjM3NCwxLjQ1MSwxLjQ1MSwwLDAsMCwuNTQxLjFoMi4wM0ExMy40NTMsMTMuNDUzLDAsMCwwLDE1LjA0NSw3LjgxNVoiIGZpbGw9IiNmMmYyZjIiLz4mI3hhOyAgICA8L2c+JiN4YTsgIDwvZz4mI3hhOyAgPHBhdGggZD0iTTE3LjE5MSwzLjgzMmMtLjYyOS0xLjA0Ny0yLjEtMS40NTUtNC4xNTUtMS4xNDlhMTQuNjA2LDE0LjYwNiwwLDAsMC0yLjA4Mi40NTIsNi40NTYsNi40NTYsMCwwLDEsMS41MjguNzY3Yy4yNDEtLjA1My40ODMtLjExNi43MTUtLjE1MUE3LjQ5LDcuNDksMCwwLDEsMTQuMywzLjY2MmEyLjE4OCwyLjE4OCwwLDAsMSwxLjk1OS43MjVoMGMuMzgzLjYzOC4wNiwxLjcyOS0uODg2LDNhMTYuNzIzLDE2LjcyMywwLDAsMS00Ljc0OSw0LjA1MUExNi43NTgsMTYuNzU4LDAsMCwxLDQuOCwxMy43Yy0xLjU2NC4yMzQtMi42ODIsMC0zLjA2NS0uNjM2cy0uMDYtMS43My44ODYtMi45OTVjLjExNy0uMTU3LjE0Ni0uMjM0LjI3OS0uMzkyYTYuMjUyLDYuMjUyLDAsMCwxLC4wMjYtMS42M0ExMS41NTIsMTEuNTUyLDAsMCwwLDEuNzU2LDkuNDE5Qy41MTcsMTEuMDc2LjE4MSwxMi41NjYuODA5LDEzLjYxM2EzLjE2NSwzLjE2NSwwLDAsMCwyLjksMS4yNDksOC40MzQsOC40MzQsMCwwLDAsMS4yNTEtLjEsMTcuODU1LDE3Ljg1NSwwLDAsMCw2LjIxOS0yLjQsMTcuODA4LDE3LjgwOCwwLDAsMCw1LjA2MS00LjMzMkMxNy40ODMsNi4zNjksMTcuODE5LDQuODgsMTcuMTkxLDMuODMyWiIgZmlsbD0iIzUwZTZmZiIvPiYjeGE7PC9zdmc+;fontColor=#1F1F1F;" parent="1" vertex="1">
                    <mxGeometry x="905.5" y="293" width="57" height="57" as="geometry"/>
                </mxCell>
                <mxCell id="g8jBpLHVoKCk_19KpYFQ-791" value="" style="shape=image;verticalLabelPosition=bottom;labelBackgroundColor=#ffffff;verticalAlign=top;aspect=fixed;imageAspect=0;image=data:image/png,iVBORw0KGgoAAAANSUhEUgAAADAAAAAwCAYAAABXAvmHAAAABmJLR0QA/wD/AP+gvaeTAAAEIklEQVRoge2ZS2xUVRiAv//OTEttO6SkwRgTFjROHwMIxoWyMI2U6EKCG6NLY2KqMWqxRPoIpBocilZ52LhoNGw0mBjZSEICFWuEmBhfhQ7TqRWIUaL47sO2M/fe42IolZm5M+fcKQuT+TaTOf/7njv/+e8dKFOmTJkyJSB+jCKdqj5QwVGgFQiWmIMNjCh4bHyf/G5qbPmJGKhkCGij9OS55qNNYMiPsfEORLvU/a7wsZ9gxVCKB8b75aSJjdkOPKICrnDAyMYAEQ609imjXTUqoLmBdmCDUVZmtPyywJMmBtq30PouVWdbTKCoN8/LiD8URHR/0NrblRb6JCv5956CTWtM84N3P4fYR57iVaLYDXTo+NK6hda9qJoFns5e95M8QLgKdm8voCA809yj1un40irADvAGENLR1aW6smARQRQHdfwULaCpV20TeNAgt6Ksqs58FiliS1O3eqiYr4I/4mifqnAXOA9E8skvxIq516Olx1P0fXqG6OSbsuClUHAH3BTP45F8PmZtOPqDzcNn5vnsV+f6+q7RFHXH/uGe4Tl+nFO67gAaKmp4tpCCZwEbdqrVKHpNoh2/YnPkks3xKw4pN7M2Pu3yejLNydYVBAUOT6RNXKJgT3OPus1L7llAOkQMWGkS7NE1Qd6/t/KGtYszmSu+fqXFHbUWkzOuiUuAWuBlL2HeAlq61CbgcdNIxQIo5XP8VTzR2KvuLuZ/Sd/iIBDwEyubSNhCgNNXHcamXJrDvgZgy3I4BCqn/hxv0R61EcV9fqIABAXuqrMIhzKx1lYL/XdW0PlNiturhI6Iz+NE2BzdlTuH5Y4SDsrfU0KGcEj4YmvVDWudjSE6G5f1HLxOTqrx/TIKfHpTopWAwNn4fs5lr+e91pbQATj5ZIX4bUGx/cw8LSfmGEgutctLs4r+RJq9F8xa6H9wHYsOkJxDJG8B8Zh8i3DENMqhiTQ/zSkGNlbQPZri4mwmXuvpOQa/S5OYMm6hi7yTfEW+zCfwvNtDKXqBv02iJKZcomGLLbcGUEDyWsKXt93C5nrfTW3astnjJfQs4NyAXBXYaxIpe38Xv/vq/Ys+hJfir8nPXvKC/UYqOYwiqRusoSZz0o79lbnya2tKSR2ASXuawUIKBQuI90lKCTt1oz0XCeEoaBuZp7MxRFPtkvvqIFSb3kVCR6FJNKOiQVO3OpHvmeAmj9PDiX2ytZit1pEVdHgB8N0DfWAj7NBR1Cpg7FVJoHgre/3ry4Zp5eGr/D4GEzEZ07H/379W0Z56zvfLnyjvfrxciKLX5CWv0diWmGQIcueRZSS+egVvmxiYzZ0fiOOK3gsnXwg7RvrENjExHpyTMfkEOGZqVwwRPkzE5JSpna/J30nRDgyT+XOiVGzglKtoXwZfZcqUKVPGjH8B1Zs7lRiD0sIAAAAASUVORK5CYII=;fontColor=#1F1F1F;" parent="1" vertex="1">
                    <mxGeometry x="189" y="155" width="70" height="70" as="geometry"/>
                </mxCell>
                <mxCell id="g8jBpLHVoKCk_19KpYFQ-792" value="Redis" style="text;html=1;resizable=0;autosize=1;align=center;verticalAlign=middle;points=[];fillColor=none;strokeColor=none;rounded=0;labelBackgroundColor=none;fontSize=13;fontColor=#1F1F1F;fontStyle=1" parent="1" vertex="1">
                    <mxGeometry x="441" y="421" width="46" height="20" as="geometry"/>
                </mxCell>
                <mxCell id="g8jBpLHVoKCk_19KpYFQ-802" value="" style="shape=image;verticalLabelPosition=bottom;labelBackgroundColor=#ffffff;verticalAlign=top;aspect=fixed;imageAspect=0;image=data:image/svg+xml,PHN2ZyB4bWxucz0iaHR0cDovL3d3dy53My5vcmcvMjAwMC9zdmciIGlkPSJiODE5ZTVjYy04ZjY5LTQ2MjktOTUxNy0yZWQ0NWRkOWI4NTgiIHdpZHRoPSIxOCIgaGVpZ2h0PSIxOCIgdmlld0JveD0iMCAwIDE4IDE4Ij48ZGVmcz48cmFkaWFsR3JhZGllbnQgaWQ9ImYyNWM5ZDBiLWI4NzAtNDI0Yy1iYzMzLTI4OTY2YWU5Y2JlOCIgY3g9IjkiIGN5PSI3LjM1IiByPSI2LjQyIiBncmFkaWVudFVuaXRzPSJ1c2VyU3BhY2VPblVzZSI+PHN0b3Agb2Zmc2V0PSIwIiBzdG9wLWNvbG9yPSIjYjc3YWY0Ii8+PHN0b3Agb2Zmc2V0PSIwLjIxIiBzdG9wLWNvbG9yPSIjYjM3OGYyIi8+PHN0b3Agb2Zmc2V0PSIwLjQzIiBzdG9wLWNvbG9yPSIjYTY3MmVkIi8+PHN0b3Agb2Zmc2V0PSIwLjY1IiBzdG9wLWNvbG9yPSIjOTI2N2U0Ii8+PHN0b3Agb2Zmc2V0PSIwLjg4IiBzdG9wLWNvbG9yPSIjNzU1OWQ4Ii8+PHN0b3Agb2Zmc2V0PSIxIiBzdG9wLWNvbG9yPSIjNjI0ZmQwIi8+PC9yYWRpYWxHcmFkaWVudD48bGluZWFyR3JhZGllbnQgaWQ9ImFhOTlmOWY4LTJkNDktNDZlYi1hNjMxLTdkNzE4YTgxYzM4ZCIgeDE9IjkuMDIiIHkxPSIzLjkxIiB4Mj0iOS4wOCIgeTI9IjExLjQ5IiBncmFkaWVudFVuaXRzPSJ1c2VyU3BhY2VPblVzZSI+PHN0b3Agb2Zmc2V0PSIwIiBzdG9wLWNvbG9yPSIjZjJmMmYyIi8+PHN0b3Agb2Zmc2V0PSIwLjIzIiBzdG9wLWNvbG9yPSIjZjFmMWYyIiBzdG9wLW9wYWNpdHk9IjAuOTkiLz48c3RvcCBvZmZzZXQ9IjAuMzciIHN0b3AtY29sb3I9IiNlZGVkZjEiIHN0b3Atb3BhY2l0eT0iMC45NSIvPjxzdG9wIG9mZnNldD0iMC40OCIgc3RvcC1jb2xvcj0iI2U3ZTVmMCIgc3RvcC1vcGFjaXR5PSIwLjg5Ii8+PHN0b3Agb2Zmc2V0PSIwLjU4IiBzdG9wLWNvbG9yPSIjZGVkYmVlIiBzdG9wLW9wYWNpdHk9IjAuODEiLz48c3RvcCBvZmZzZXQ9IjAuNjciIHN0b3AtY29sb3I9IiNkM2NlZWIiIHN0b3Atb3BhY2l0eT0iMC43Ii8+PHN0b3Agb2Zmc2V0PSIwLjc2IiBzdG9wLWNvbG9yPSIjYzRiZWU4IiBzdG9wLW9wYWNpdHk9IjAuNTciLz48c3RvcCBvZmZzZXQ9IjAuODQiIHN0b3AtY29sb3I9IiNiNGFiZTUiIHN0b3Atb3BhY2l0eT0iMC40MSIvPjxzdG9wIG9mZnNldD0iMC45MiIgc3RvcC1jb2xvcj0iI2EwOTVlMSIgc3RvcC1vcGFjaXR5PSIwLjIyIi8+PHN0b3Agb2Zmc2V0PSIwLjk5IiBzdG9wLWNvbG9yPSIjOGI3ZGRjIiBzdG9wLW9wYWNpdHk9IjAuMDIiLz48c3RvcCBvZmZzZXQ9IjEiIHN0b3AtY29sb3I9IiM4OTdiZGMiIHN0b3Atb3BhY2l0eT0iMCIvPjwvbGluZWFyR3JhZGllbnQ+PC9kZWZzPjx0aXRsZT5JY29uLWRldm9wcy0yNjI8L3RpdGxlPjxwYXRoIGQ9Ik0xMC4yMywxNy4zOWwuODEtLjg3VjE0LjJIN3YyLjMybC44MS44N0EuMzIuMzIsMCwwLDAsOCwxNy41aDJBLjMyLjMyLDAsMCwwLDEwLjIzLDE3LjM5WiIgZmlsbD0iI2NlY2VjZSIvPjxwYXRoIGQ9Ik05LC41QTUuODksNS44OSwwLDAsMCwzLjA5LDcuMDdjLjI3LDIuNDcsMi42MiwzLjYyLDMuMjksNi43NWEuNDkuNDksMCwwLDAsLjQ3LjM4aDQuM2EuNDkuNDksMCwwLDAsLjQ3LS4zOGMuNjctMy4xMywzLTQuMjgsMy4yOS02Ljc1QTUuODksNS44OSwwLDAsMCw5LC41Wk03LDE0LjIiIGZpbGw9InVybCgjZjI1YzlkMGItYjg3MC00MjRjLWJjMzMtMjg5NjZhZTljYmU4KSIvPjxwYXRoIGQ9Ik0xMS40NiwzLjc5YTEuNCwxLjQsMCwwLDAtMS4zNSwxLjQ0VjZIOFY1LjIzQTEuNDEsMS40MSwwLDAsMCw2LjU5LDMuNzksMS40LDEuNCwwLDAsMCw1LjI0LDUuMjMsMS40MSwxLjQxLDAsMCwwLDYuNTksNi42OGguNjR2NmEuMzYuMzYsMCwwLDAsLjcyLDB2LTZoMi4xNnY2YS4zNi4zNiwwLDEsMCwuNzIsMHYtNmguNjNhMS40LDEuNCwwLDAsMCwxLjM1LTEuNDVBMS40LDEuNCwwLDAsMCwxMS40NiwzLjc5Wk03LjIzLDZINi41NWEuNzQuNzQsMCwwLDEtLjY4LS43Ny43NC43NCwwLDAsMSwuNjgtLjc3Ljc0Ljc0LDAsMCwxLC42OC43N1ptNC4yOCwwaC0uNjhWNS4xOWEuNjguNjgsMCwxLDEsMS4zNSwwQS43My43MywwLDAsMSwxMS41MSw2WiIgZmlsbD0idXJsKCNhYTk5ZjlmOC0yZDQ5LTQ2ZWItYTYzMS03ZDcxOGE4MWMzOGQpIi8+PHBvbHlnb24gcG9pbnRzPSI2Ljk2IDE1LjggMTEuMDQgMTUuMDEgMTEuMDQgMTQuNTYgNi45NiAxNS4zNiA2Ljk2IDE1LjgiIGZpbGw9IiM5OTkiLz48cG9seWdvbiBwb2ludHM9IjExLjA0IDE2LjExIDExLjA0IDE1LjY3IDYuOTYgMTYuNDggNi45NiAxNi41MiA3LjI3IDE2Ljg2IDExLjA0IDE2LjExIiBmaWxsPSIjOTk5Ii8+PC9zdmc+;fontColor=#1F1F1F;" parent="1" vertex="1">
                    <mxGeometry x="609.5" y="448" width="45" height="45" as="geometry"/>
                </mxCell>
                <mxCell id="g8jBpLHVoKCk_19KpYFQ-821" value="" style="group;fontColor=#1F1F1F;" parent="1" vertex="1" connectable="0">
                    <mxGeometry x="391" y="197.5" width="138.01" height="158" as="geometry"/>
                </mxCell>
                <mxCell id="g8jBpLHVoKCk_19KpYFQ-742" value="" style="rounded=1;absoluteArcSize=1;arcSize=2;html=1;strokeColor=#23445d;shadow=0;dashed=0;strokeColor=none;fontSize=13;align=center;verticalAlign=top;spacing=10;spacingTop=-4;fillColor=#FFFFFF;fontStyle=1;fontColor=#1F1F1F;" parent="g8jBpLHVoKCk_19KpYFQ-821" vertex="1">
                    <mxGeometry width="126" height="144" as="geometry"/>
                </mxCell>
                <mxCell id="g8jBpLHVoKCk_19KpYFQ-744" value="Batch Receiver" style="rounded=1;absoluteArcSize=1;arcSize=2;html=1;strokeColor=#82b366;shadow=0;dashed=0;strokeColor=none;fontSize=13;align=center;verticalAlign=top;spacing=10;spacingTop=-4;fillColor=#d5e8d4;fontStyle=1;fontColor=#1F1F1F;" parent="g8jBpLHVoKCk_19KpYFQ-821" vertex="1">
                    <mxGeometry x="7.5" y="12" width="111" height="43" as="geometry"/>
                </mxCell>
                <mxCell id="g8jBpLHVoKCk_19KpYFQ-745" value="" style="rounded=1;absoluteArcSize=1;arcSize=2;html=1;strokeColor=#23445d;shadow=0;dashed=0;strokeColor=none;fontSize=13;align=left;verticalAlign=top;spacing=10;spacingTop=-4;fillColor=#E1F5FE;fontStyle=1;fontColor=#1F1F1F;" parent="g8jBpLHVoKCk_19KpYFQ-821" vertex="1">
                    <mxGeometry x="7.509999999999991" y="76" width="111" height="56" as="geometry"/>
                </mxCell>
                <mxCell id="g8jBpLHVoKCk_19KpYFQ-743" value="" style="shape=image;verticalLabelPosition=bottom;verticalAlign=top;imageAspect=0;aspect=fixed;image=data:image/svg+xml,PHN2ZyB4bWxucz0iaHR0cDovL3d3dy53My5vcmcvMjAwMC9zdmciIHhtbG5zOnhsaW5rPSJodHRwOi8vd3d3LnczLm9yZy8xOTk5L3hsaW5rIiB3aWR0aD0iMzY3cHgiIGhlaWdodD0iMjcwcHgiIHZpZXdCb3g9IjAgMCAzNjcgMjcwIiB2ZXJzaW9uPSIxLjEiPiYjeGE7ICAgIDwhLS0gR2VuZXJhdG9yOiBTa2V0Y2ggNTEuMyAoNTc1NDQpIC0gaHR0cDovL3d3dy5ib2hlbWlhbmNvZGluZy5jb20vc2tldGNoIC0tPiYjeGE7ICAgIDx0aXRsZT5BcnRib2FyZDwvdGl0bGU+JiN4YTsgICAgPGRlc2M+Q3JlYXRlZCB3aXRoIFNrZXRjaC48L2Rlc2M+JiN4YTsgICAgPGRlZnMvPiYjeGE7ICAgIDxnIGlkPSJBcnRib2FyZCIgc3Ryb2tlPSJub25lIiBzdHJva2Utd2lkdGg9IjEiIGZpbGw9Im5vbmUiIGZpbGwtcnVsZT0iZXZlbm9kZCI+JiN4YTsgICAgICAgIDxwYXRoIGQ9Ik04OS43OTE3MTE5LDE5My41MDg3NjEgTDYyLjkwMDAzOTIsMTkzLjUwODc2MSBMNjIuOTAwMDM5MiwxODUuMDY0MTIgQzYwLjMzMTEwNjQsMTg4LjI4ODk1IDU3LjczNDg4MzUsMTkwLjYzOTIxNSA1NS4xMTEyOTI2LDE5Mi4xMTQ5ODUgQzUwLjUyMDAwODQsMTk0LjY4MzkxOCA0NS4zMDAyMzM5LDE5NS45NjgzNjUgMzkuNDUxODEyNCwxOTUuOTY4MzY1IEMyOS45OTU5NTM0LDE5NS45NjgzNjUgMjEuNTc4NzI1NCwxOTIuNzE2MjU0IDE0LjE5OTg3NTksMTg2LjIxMTkzNSBDNS4zOTk5MTQ2NCwxNzguNDUwNDc4IDEsMTY4LjE3NDkwMSAxLDE1NS4zODQ4OTUgQzEsMTQyLjM3NjI1NyA1LjUwOTIyOTI5LDEzMS45OTEzNjUgMTQuNTI3ODIzMSwxMjQuMjI5OTA5IEMyMS42ODgwNDAxLDExOC4wNTM1MzggMjkuOTEzOTY3NCwxMTQuOTY1NCAzOS4yMDU4NTIsMTE0Ljk2NTQgQzQ0LjYxNzAwODMsMTE0Ljk2NTQgNDkuNzAwMTM5NSwxMTYuMTEzMjAzIDU0LjQ1NTM5ODEsMTE4LjQwODg0NSBDNTcuMTg4MzA1MywxMTkuNzIwNjQxIDYwLjAwMzE1NzYsMTIxLjg3OTYwNSA2Mi45MDAwMzkyLDEyNC44ODU4MDMgTDYyLjkwMDAzOTIsNzAuMzY0NTc2NiBMODkuNzkxNzExOSw3MC4zNjQ1NzY2IEw4OS43OTE3MTE5LDE5My41MDg3NjEgWiBNNjMuNzE5OTA3MywxNTUuNDY2ODgyIEM2My43MTk5MDczLDE1MC42NTY5NjUgNjIuMDI1NTMwMiwxNDYuNTcxMzMgNTguNjM2NzI1MywxNDMuMjA5ODU1IEM1NS4yNDc5MjAzLDEzOS44NDgzNzkgNTEuMTQ4NjIxLDEzOC4xNjc2NjYgNDYuMzM4NzA0MiwxMzguMTY3NjY2IEM0MC45ODIyMDYxLDEzOC4xNjc2NjYgMzYuNTgyMjkxNCwxNDAuMTg5OTg3IDMzLjEzODgyODMsMTQ0LjIzNDY5IEMzMC4zNTEyNjI5LDE0Ny41MTQxNzggMjguOTU3NTAxMiwxNTEuMjU4MjA1IDI4Ljk1NzUwMTIsMTU1LjQ2Njg4MiBDMjguOTU3NTAxMiwxNTkuNjc1NTU5IDMwLjM1MTI2MjksMTYzLjQxOTU4NiAzMy4xMzg4MjgzLDE2Ni42OTkwNzUgQzM2LjUyNzYzMzMsMTcwLjc0Mzc3NyA0MC45Mjc1NDc5LDE3Mi43NjYwOTggNDYuMzM4NzA0MiwxNzIuNzY2MDk4IEM1MS4yMDMyNzkxLDE3Mi43NjYwOTggNTUuMzE2MjQyOCwxNzEuMDk5MDUgNTguNjc3NzE4NywxNjcuNzY0OTAzIEM2Mi4wMzkxOTQ2LDE2NC40MzA3NTYgNjMuNzE5OTA3MywxNjAuMzMxNDU3IDYzLjcxOTkwNzMsMTU1LjQ2Njg4MiBaIE0xOTAuNjUwMDYsMTkzLjUwODc2MSBMMTYzLjc1ODM4NywxOTMuNTA4NzYxIEwxNjMuNzU4Mzg3LDE4NS4wNjQxMiBDMTYxLjE4OTQ1NCwxODguMjg4OTUgMTU4LjU5MzIzMSwxOTAuNjM5MjE1IDE1NS45Njk2NDEsMTkyLjExNDk4NSBDMTUxLjM3ODM1NiwxOTQuNjgzOTE4IDE0Ni4xNTg1ODIsMTk1Ljk2ODM2NSAxNDAuMzEwMTYsMTk1Ljk2ODM2NSBDMTMwLjg1NDMwMSwxOTUuOTY4MzY1IDEyMi40MzcwNzMsMTkyLjcxNjI1NCAxMTUuMDU4MjI0LDE4Ni4yMTE5MzUgQzEwNi4yNTgyNjMsMTc4LjQ1MDQ3OCAxMDEuODU4MzQ4LDE2OC4xNzQ5MDEgMTAxLjg1ODM0OCwxNTUuMzg0ODk1IEMxMDEuODU4MzQ4LDE0Mi4zNzYyNTcgMTA2LjM2NzU3NywxMzEuOTkxMzY1IDExNS4zODYxNzEsMTI0LjIyOTkwOSBDMTIyLjU0NjM4OCwxMTguMDUzNTM4IDEzMC43NzIzMTUsMTE0Ljk2NTQgMTQwLjA2NDIsMTE0Ljk2NTQgQzE0NS40NzUzNTYsMTE0Ljk2NTQgMTUwLjU1ODQ4NywxMTYuMTEzMjAzIDE1NS4zMTM3NDYsMTE4LjQwODg0NSBDMTU4LjA0NjY1MywxMTkuNzIwNjQxIDE2MC44NjE1MDYsMTIxLjg3OTYwNSAxNjMuNzU4Mzg3LDEyNC44ODU4MDMgTDE2My43NTgzODcsMTE3LjQyNTAwNCBMMTkwLjY1MDA2LDExNy40MjUwMDQgTDE5MC42NTAwNiwxOTMuNTA4NzYxIFogTTE2NC41NzgyNTUsMTU1LjQ2Njg4MiBDMTY0LjU3ODI1NSwxNTAuNjU2OTY1IDE2Mi44ODM4NzgsMTQ2LjU3MTMzIDE1OS40OTUwNzMsMTQzLjIwOTg1NSBDMTU2LjEwNjI2OCwxMzkuODQ4Mzc5IDE1Mi4wMDY5NjksMTM4LjE2NzY2NiAxNDcuMTk3MDUyLDEzOC4xNjc2NjYgQzE0MS44NDA1NTQsMTM4LjE2NzY2NiAxMzcuNDQwNjM5LDE0MC4xODk5ODcgMTMzLjk5NzE3NiwxNDQuMjM0NjkgQzEzMS4yMDk2MTEsMTQ3LjUxNDE3OCAxMjkuODE1ODQ5LDE1MS4yNTgyMDUgMTI5LjgxNTg0OSwxNTUuNDY2ODgyIEMxMjkuODE1ODQ5LDE1OS42NzU1NTkgMTMxLjIwOTYxMSwxNjMuNDE5NTg2IDEzMy45OTcxNzYsMTY2LjY5OTA3NSBDMTM3LjM4NTk4MSwxNzAuNzQzNzc3IDE0MS43ODU4OTYsMTcyLjc2NjA5OCAxNDcuMTk3MDUyLDE3Mi43NjYwOTggQzE1Mi4wNjE2MjcsMTcyLjc2NjA5OCAxNTYuMTc0NTkxLDE3MS4wOTkwNSAxNTkuNTM2MDY3LDE2Ny43NjQ5MDMgQzE2Mi44OTc1NDMsMTY0LjQzMDc1NiAxNjQuNTc4MjU1LDE2MC4zMzE0NTcgMTY0LjU3ODI1NSwxNTUuNDY2ODgyIFogTTI5NC41NDE5MiwxNTUuNTQ4ODY5IEMyOTQuNTQxOTIsMTY4LjU1NzUwNyAyOTAuMDMyNjksMTc4Ljk0MjM5OSAyODEuMDE0MDk3LDE4Ni43MDM4NTYgQzI3My44NTM4OCwxOTIuODgwMjI2IDI2NS42Mjc5NTIsMTk1Ljk2ODM2NSAyNTYuMzM2MDY4LDE5NS45NjgzNjUgQzI1MC45MjQ5MTEsMTk1Ljk2ODM2NSAyNDUuODQxNzgsMTk0LjgyMDU2MSAyNDEuMDg2NTIyLDE5Mi41MjQ5MTkgQzIzOC4zNTM2MTQsMTkxLjIxMzEyMyAyMzUuNTM4NzYyLDE4OS4wNTQxNTkgMjMyLjY0MTg4LDE4Ni4wNDc5NjEgTDIzMi42NDE4OCwyMzEuNTUwNjM5IEwyMDUuNzUwMjA4LDIzMS41NTA2MzkgTDIwNS43NTAyMDgsMTE3LjQyNTAwNCBMMjMyLjY0MTg4LDExNy40MjUwMDQgTDIzMi42NDE4OCwxMjUuODY5NjQ1IEMyMzUuMDQ2ODM5LDEyMi42OTk0NzMgMjM3LjY0MzA2MiwxMjAuMzQ5MjA4IDI0MC40MzA2MjcsMTE4LjgxODc4IEMyNDUuMDIxOTExLDExNi4yNDk4NDcgMjUwLjI0MTY4NiwxMTQuOTY1NCAyNTYuMDkwMTA3LDExNC45NjU0IEMyNjUuNTQ1OTY2LDExNC45NjU0IDI3My45NjMxOTQsMTE4LjIxNzUxIDI4MS4zNDIwNDQsMTI0LjcyMTgzIEMyOTAuMTQyMDA1LDEzMi40ODMyODYgMjk0LjU0MTkyLDE0Mi43NTg4NjMgMjk0LjU0MTkyLDE1NS41NDg4NjkgWiBNMjY2LjU4NDQxOCwxNTUuNDY2ODgyIEMyNjYuNTg0NDE4LDE1MS4xNDg4ODkgMjY1LjIxNzk4NSwxNDcuNDA0ODYyIDI2Mi40ODUwNzgsMTQ0LjIzNDY5IEMyNTkuMDQxNjE1LDE0MC4xODk5ODcgMjU0LjYxNDM3MiwxMzguMTY3NjY2IDI0OS4yMDMyMTUsMTM4LjE2NzY2NiBDMjQ0LjMzODY0MSwxMzguMTY3NjY2IDI0MC4yMjU2NzcsMTM5LjgzNDcxNCAyMzYuODY0MjAxLDE0My4xNjg4NjEgQzIzMy41MDI3MjUsMTQ2LjUwMzAwOCAyMzEuODIyMDEyLDE1MC42MDIzMDcgMjMxLjgyMjAxMiwxNTUuNDY2ODgyIEMyMzEuODIyMDEyLDE2MC4yNzY3OTkgMjMzLjUxNjM4OSwxNjQuMzYyNDM0IDIzNi45MDUxOTQsMTY3LjcyMzkxIEMyNDAuMjkzOTk5LDE3MS4wODUzODYgMjQ0LjM5MzI5OSwxNzIuNzY2MDk4IDI0OS4yMDMyMTUsMTcyLjc2NjA5OCBDMjU0LjYxNDM3MiwxNzIuNzY2MDk4IDI1OS4wMTQyODYsMTcwLjc0Mzc3NyAyNjIuNDAzMDkxLDE2Ni42OTkwNzUgQzI2NS4xOTA2NTcsMTYzLjQxOTU4NiAyNjYuNTg0NDE4LDE1OS42NzU1NTkgMjY2LjU4NDQxOCwxNTUuNDY2ODgyIFogTTM2My42NzEzNzMsMTQyLjI2NzAwNiBDMzU5Ljg5OTk2MSwxNDAuNDYzMjg4IDM1Ni4wNzM5NDksMTM5LjU2MTQ0MiAzNTIuMTkzMjIsMTM5LjU2MTQ0MiBDMzQzLjMzODYwMSwxMzkuNTYxNDQyIDMzNy41OTk1ODIsMTQzLjE2ODgyNSAzMzQuOTc1OTkxLDE1MC4zODM3IEMzMzMuOTkyMTQ0LDE1My4wMDcyOTEgMzMzLjUwMDIyOCwxNTYuNTMyNjg5IDMzMy41MDAyMjgsMTYwLjk1OTk5OCBMMzMzLjUwMDIyOCwxOTMuNTA4NzYxIEwzMDYuNjA4NTU2LDE5My41MDg3NjEgTDMwNi42MDg1NTYsMTE3LjQyNTAwNCBMMzMzLjUwMDIyOCwxMTcuNDI1MDA0IEwzMzMuNTAwMjI4LDEyOS44ODY5OTggQzMzNi4zNDI0NTIsMTI1LjQ1OTY4OSAzMzkuNDAzMjYyLDEyMi4yNjIyMzUgMzQyLjY4Mjc1MSwxMjAuMjk0NTQyIEMzNDcuMTEwMDYsMTE3LjY3MDk1MSAzNTIuMzU3MTY0LDExNi4zNTkxNzUgMzU4LjQyNDIxOCwxMTYuMzU5MTc1IEMzNTkuODQ1MzI5LDExNi4zNTkxNzUgMzYxLjU5NDM2NCwxMTYuNDQxMTYxIDM2My42NzEzNzMsMTE2LjYwNTEzNiBMMzYzLjY3MTM3MywxNDIuMjY3MDA2IFoiIGlkPSJkYXByIiBmaWxsPSIjMEQyMTkyIi8+JiN4YTsgICAgICAgIDxwb2x5Z29uIGlkPSJ0aWUiIGZpbGw9IiMwRDIxOTIiIGZpbGwtcnVsZT0ibm9uemVybyIgcG9pbnRzPSIyMDUuNTM4NDA5IDE5NC4wNjIxNzIgMjMyLjYxNDU1MSAxOTQuMDYyMTcyIDIzNC45NDY2MjEgMjU3LjYzMzgzMSAyMTkuMDc2NDggMjY4Ljc1NDQzIDIwMy4yMDYzMzkgMjU3LjYzMzgzMSIvPiYjeGE7ICAgICAgICA8cmVjdCBpZD0iUmVjdGFuZ2xlLTQiIGZpbGw9IiMwRDIxOTIiIGZpbGwtcnVsZT0ibm9uemVybyIgeD0iMTQ0LjgyOTQ5NyIgeT0iMi4yNzkwODgyOSIgd2lkdGg9IjEwMi43MjI2NDMiIGhlaWdodD0iNzIuMjk0MTQ0NCIgcng9IjIiLz4mI3hhOyAgICAgICAgPHJlY3QgaWQ9IlJlY3RhbmdsZS00IiBmaWxsPSIjRkZGRkZGIiBmaWxsLXJ1bGU9Im5vbnplcm8iIG9wYWNpdHk9IjAuMDc5OTk5OTk4MiIgeD0iMTQ0LjgyOTQ5NyIgeT0iMi4yNzkwODgyOSIgd2lkdGg9IjM3Ljk5NzYzNjkiIGhlaWdodD0iNzIuMjk0MTQ0NCIvPiYjeGE7ICAgICAgICA8cmVjdCBpZD0iUmVjdGFuZ2xlLTMiIGZpbGw9IiMwRDIxOTIiIGZpbGwtcnVsZT0ibm9uemVybyIgeD0iMTEyLjM5MDc2OCIgeT0iNjkuOTA5MDk0NCIgd2lkdGg9IjE2Ni4yNDg0ODgiIGhlaWdodD0iMTcuMzUxMzQxMiIgcng9IjMuNzIwMTYiLz4mI3hhOyAgICAgICAgPHJlY3QgaWQ9IlJlY3RhbmdsZS00IiBmaWxsPSIjRkZGRkZGIiBmaWxsLXJ1bGU9Im5vbnplcm8iIG9wYWNpdHk9IjAuMDc5OTk5OTk4MiIgeD0iMTEyLjM5MDc2OCIgeT0iNjkuOTA5MDk0NCIgd2lkdGg9IjUxLjQzNzU0NzgiIGhlaWdodD0iMjEuMzU1NDk2OSIvPiYjeGE7ICAgIDwvZz4mI3hhOzwvc3ZnPg==;fontColor=#1F1F1F;" parent="g8jBpLHVoKCk_19KpYFQ-821" vertex="1">
                    <mxGeometry x="32.42999999999995" y="84" width="61.17" height="45" as="geometry"/>
                </mxCell>
                <mxCell id="g8jBpLHVoKCk_19KpYFQ-800" value="" style="endArrow=classic;startArrow=classic;html=1;fontSize=13;fontColor=#1F1F1F;entryX=0.5;entryY=1;entryDx=0;entryDy=0;exitX=0.484;exitY=-0.144;exitDx=0;exitDy=0;exitPerimeter=0;" parent="g8jBpLHVoKCk_19KpYFQ-821" source="g8jBpLHVoKCk_19KpYFQ-743" target="g8jBpLHVoKCk_19KpYFQ-744" edge="1">
                    <mxGeometry width="50" height="50" relative="1" as="geometry">
                        <mxPoint x="-58.99000000000001" y="191" as="sourcePoint"/>
                        <mxPoint x="-8.990000000000009" y="141" as="targetPoint"/>
                    </mxGeometry>
                </mxCell>
                <mxCell id="g8jBpLHVoKCk_19KpYFQ-822" value="" style="group;fontColor=#1F1F1F;" parent="g8jBpLHVoKCk_19KpYFQ-821" vertex="1" connectable="0">
                    <mxGeometry x="12.009999999999991" y="14" width="126" height="144" as="geometry"/>
                </mxCell>
                <mxCell id="g8jBpLHVoKCk_19KpYFQ-823" value="" style="rounded=1;absoluteArcSize=1;arcSize=2;html=1;strokeColor=#23445d;shadow=0;dashed=0;strokeColor=none;fontSize=13;align=center;verticalAlign=top;spacing=10;spacingTop=-4;fillColor=#FFFFFF;fontStyle=1;fontColor=#1F1F1F;" parent="g8jBpLHVoKCk_19KpYFQ-822" vertex="1">
                    <mxGeometry width="126" height="144" as="geometry"/>
                </mxCell>
                <mxCell id="g8jBpLHVoKCk_19KpYFQ-824" value="Batch Receiver" style="rounded=1;absoluteArcSize=1;arcSize=2;html=1;strokeColor=#82b366;shadow=0;dashed=0;strokeColor=none;fontSize=13;align=center;verticalAlign=top;spacing=10;spacingTop=-4;fillColor=#d5e8d4;fontStyle=1;fontColor=#1F1F1F;" parent="g8jBpLHVoKCk_19KpYFQ-822" vertex="1">
                    <mxGeometry x="7.5" y="10" width="111" height="41" as="geometry"/>
                </mxCell>
                <mxCell id="g8jBpLHVoKCk_19KpYFQ-825" value="" style="rounded=1;absoluteArcSize=1;arcSize=2;html=1;strokeColor=#23445d;shadow=0;dashed=0;strokeColor=none;fontSize=13;align=left;verticalAlign=top;spacing=10;spacingTop=-4;fillColor=#E1F5FE;fontStyle=1;fontColor=#1F1F1F;" parent="g8jBpLHVoKCk_19KpYFQ-822" vertex="1">
                    <mxGeometry x="7.509999999999991" y="76" width="111" height="56" as="geometry"/>
                </mxCell>
                <mxCell id="g8jBpLHVoKCk_19KpYFQ-826" value="" style="shape=image;verticalLabelPosition=bottom;verticalAlign=top;imageAspect=0;aspect=fixed;image=data:image/svg+xml,PHN2ZyB4bWxucz0iaHR0cDovL3d3dy53My5vcmcvMjAwMC9zdmciIHhtbG5zOnhsaW5rPSJodHRwOi8vd3d3LnczLm9yZy8xOTk5L3hsaW5rIiB3aWR0aD0iMzY3cHgiIGhlaWdodD0iMjcwcHgiIHZpZXdCb3g9IjAgMCAzNjcgMjcwIiB2ZXJzaW9uPSIxLjEiPiYjeGE7ICAgIDwhLS0gR2VuZXJhdG9yOiBTa2V0Y2ggNTEuMyAoNTc1NDQpIC0gaHR0cDovL3d3dy5ib2hlbWlhbmNvZGluZy5jb20vc2tldGNoIC0tPiYjeGE7ICAgIDx0aXRsZT5BcnRib2FyZDwvdGl0bGU+JiN4YTsgICAgPGRlc2M+Q3JlYXRlZCB3aXRoIFNrZXRjaC48L2Rlc2M+JiN4YTsgICAgPGRlZnMvPiYjeGE7ICAgIDxnIGlkPSJBcnRib2FyZCIgc3Ryb2tlPSJub25lIiBzdHJva2Utd2lkdGg9IjEiIGZpbGw9Im5vbmUiIGZpbGwtcnVsZT0iZXZlbm9kZCI+JiN4YTsgICAgICAgIDxwYXRoIGQ9Ik04OS43OTE3MTE5LDE5My41MDg3NjEgTDYyLjkwMDAzOTIsMTkzLjUwODc2MSBMNjIuOTAwMDM5MiwxODUuMDY0MTIgQzYwLjMzMTEwNjQsMTg4LjI4ODk1IDU3LjczNDg4MzUsMTkwLjYzOTIxNSA1NS4xMTEyOTI2LDE5Mi4xMTQ5ODUgQzUwLjUyMDAwODQsMTk0LjY4MzkxOCA0NS4zMDAyMzM5LDE5NS45NjgzNjUgMzkuNDUxODEyNCwxOTUuOTY4MzY1IEMyOS45OTU5NTM0LDE5NS45NjgzNjUgMjEuNTc4NzI1NCwxOTIuNzE2MjU0IDE0LjE5OTg3NTksMTg2LjIxMTkzNSBDNS4zOTk5MTQ2NCwxNzguNDUwNDc4IDEsMTY4LjE3NDkwMSAxLDE1NS4zODQ4OTUgQzEsMTQyLjM3NjI1NyA1LjUwOTIyOTI5LDEzMS45OTEzNjUgMTQuNTI3ODIzMSwxMjQuMjI5OTA5IEMyMS42ODgwNDAxLDExOC4wNTM1MzggMjkuOTEzOTY3NCwxMTQuOTY1NCAzOS4yMDU4NTIsMTE0Ljk2NTQgQzQ0LjYxNzAwODMsMTE0Ljk2NTQgNDkuNzAwMTM5NSwxMTYuMTEzMjAzIDU0LjQ1NTM5ODEsMTE4LjQwODg0NSBDNTcuMTg4MzA1MywxMTkuNzIwNjQxIDYwLjAwMzE1NzYsMTIxLjg3OTYwNSA2Mi45MDAwMzkyLDEyNC44ODU4MDMgTDYyLjkwMDAzOTIsNzAuMzY0NTc2NiBMODkuNzkxNzExOSw3MC4zNjQ1NzY2IEw4OS43OTE3MTE5LDE5My41MDg3NjEgWiBNNjMuNzE5OTA3MywxNTUuNDY2ODgyIEM2My43MTk5MDczLDE1MC42NTY5NjUgNjIuMDI1NTMwMiwxNDYuNTcxMzMgNTguNjM2NzI1MywxNDMuMjA5ODU1IEM1NS4yNDc5MjAzLDEzOS44NDgzNzkgNTEuMTQ4NjIxLDEzOC4xNjc2NjYgNDYuMzM4NzA0MiwxMzguMTY3NjY2IEM0MC45ODIyMDYxLDEzOC4xNjc2NjYgMzYuNTgyMjkxNCwxNDAuMTg5OTg3IDMzLjEzODgyODMsMTQ0LjIzNDY5IEMzMC4zNTEyNjI5LDE0Ny41MTQxNzggMjguOTU3NTAxMiwxNTEuMjU4MjA1IDI4Ljk1NzUwMTIsMTU1LjQ2Njg4MiBDMjguOTU3NTAxMiwxNTkuNjc1NTU5IDMwLjM1MTI2MjksMTYzLjQxOTU4NiAzMy4xMzg4MjgzLDE2Ni42OTkwNzUgQzM2LjUyNzYzMzMsMTcwLjc0Mzc3NyA0MC45Mjc1NDc5LDE3Mi43NjYwOTggNDYuMzM4NzA0MiwxNzIuNzY2MDk4IEM1MS4yMDMyNzkxLDE3Mi43NjYwOTggNTUuMzE2MjQyOCwxNzEuMDk5MDUgNTguNjc3NzE4NywxNjcuNzY0OTAzIEM2Mi4wMzkxOTQ2LDE2NC40MzA3NTYgNjMuNzE5OTA3MywxNjAuMzMxNDU3IDYzLjcxOTkwNzMsMTU1LjQ2Njg4MiBaIE0xOTAuNjUwMDYsMTkzLjUwODc2MSBMMTYzLjc1ODM4NywxOTMuNTA4NzYxIEwxNjMuNzU4Mzg3LDE4NS4wNjQxMiBDMTYxLjE4OTQ1NCwxODguMjg4OTUgMTU4LjU5MzIzMSwxOTAuNjM5MjE1IDE1NS45Njk2NDEsMTkyLjExNDk4NSBDMTUxLjM3ODM1NiwxOTQuNjgzOTE4IDE0Ni4xNTg1ODIsMTk1Ljk2ODM2NSAxNDAuMzEwMTYsMTk1Ljk2ODM2NSBDMTMwLjg1NDMwMSwxOTUuOTY4MzY1IDEyMi40MzcwNzMsMTkyLjcxNjI1NCAxMTUuMDU4MjI0LDE4Ni4yMTE5MzUgQzEwNi4yNTgyNjMsMTc4LjQ1MDQ3OCAxMDEuODU4MzQ4LDE2OC4xNzQ5MDEgMTAxLjg1ODM0OCwxNTUuMzg0ODk1IEMxMDEuODU4MzQ4LDE0Mi4zNzYyNTcgMTA2LjM2NzU3NywxMzEuOTkxMzY1IDExNS4zODYxNzEsMTI0LjIyOTkwOSBDMTIyLjU0NjM4OCwxMTguMDUzNTM4IDEzMC43NzIzMTUsMTE0Ljk2NTQgMTQwLjA2NDIsMTE0Ljk2NTQgQzE0NS40NzUzNTYsMTE0Ljk2NTQgMTUwLjU1ODQ4NywxMTYuMTEzMjAzIDE1NS4zMTM3NDYsMTE4LjQwODg0NSBDMTU4LjA0NjY1MywxMTkuNzIwNjQxIDE2MC44NjE1MDYsMTIxLjg3OTYwNSAxNjMuNzU4Mzg3LDEyNC44ODU4MDMgTDE2My43NTgzODcsMTE3LjQyNTAwNCBMMTkwLjY1MDA2LDExNy40MjUwMDQgTDE5MC42NTAwNiwxOTMuNTA4NzYxIFogTTE2NC41NzgyNTUsMTU1LjQ2Njg4MiBDMTY0LjU3ODI1NSwxNTAuNjU2OTY1IDE2Mi44ODM4NzgsMTQ2LjU3MTMzIDE1OS40OTUwNzMsMTQzLjIwOTg1NSBDMTU2LjEwNjI2OCwxMzkuODQ4Mzc5IDE1Mi4wMDY5NjksMTM4LjE2NzY2NiAxNDcuMTk3MDUyLDEzOC4xNjc2NjYgQzE0MS44NDA1NTQsMTM4LjE2NzY2NiAxMzcuNDQwNjM5LDE0MC4xODk5ODcgMTMzLjk5NzE3NiwxNDQuMjM0NjkgQzEzMS4yMDk2MTEsMTQ3LjUxNDE3OCAxMjkuODE1ODQ5LDE1MS4yNTgyMDUgMTI5LjgxNTg0OSwxNTUuNDY2ODgyIEMxMjkuODE1ODQ5LDE1OS42NzU1NTkgMTMxLjIwOTYxMSwxNjMuNDE5NTg2IDEzMy45OTcxNzYsMTY2LjY5OTA3NSBDMTM3LjM4NTk4MSwxNzAuNzQzNzc3IDE0MS43ODU4OTYsMTcyLjc2NjA5OCAxNDcuMTk3MDUyLDE3Mi43NjYwOTggQzE1Mi4wNjE2MjcsMTcyLjc2NjA5OCAxNTYuMTc0NTkxLDE3MS4wOTkwNSAxNTkuNTM2MDY3LDE2Ny43NjQ5MDMgQzE2Mi44OTc1NDMsMTY0LjQzMDc1NiAxNjQuNTc4MjU1LDE2MC4zMzE0NTcgMTY0LjU3ODI1NSwxNTUuNDY2ODgyIFogTTI5NC41NDE5MiwxNTUuNTQ4ODY5IEMyOTQuNTQxOTIsMTY4LjU1NzUwNyAyOTAuMDMyNjksMTc4Ljk0MjM5OSAyODEuMDE0MDk3LDE4Ni43MDM4NTYgQzI3My44NTM4OCwxOTIuODgwMjI2IDI2NS42Mjc5NTIsMTk1Ljk2ODM2NSAyNTYuMzM2MDY4LDE5NS45NjgzNjUgQzI1MC45MjQ5MTEsMTk1Ljk2ODM2NSAyNDUuODQxNzgsMTk0LjgyMDU2MSAyNDEuMDg2NTIyLDE5Mi41MjQ5MTkgQzIzOC4zNTM2MTQsMTkxLjIxMzEyMyAyMzUuNTM4NzYyLDE4OS4wNTQxNTkgMjMyLjY0MTg4LDE4Ni4wNDc5NjEgTDIzMi42NDE4OCwyMzEuNTUwNjM5IEwyMDUuNzUwMjA4LDIzMS41NTA2MzkgTDIwNS43NTAyMDgsMTE3LjQyNTAwNCBMMjMyLjY0MTg4LDExNy40MjUwMDQgTDIzMi42NDE4OCwxMjUuODY5NjQ1IEMyMzUuMDQ2ODM5LDEyMi42OTk0NzMgMjM3LjY0MzA2MiwxMjAuMzQ5MjA4IDI0MC40MzA2MjcsMTE4LjgxODc4IEMyNDUuMDIxOTExLDExNi4yNDk4NDcgMjUwLjI0MTY4NiwxMTQuOTY1NCAyNTYuMDkwMTA3LDExNC45NjU0IEMyNjUuNTQ1OTY2LDExNC45NjU0IDI3My45NjMxOTQsMTE4LjIxNzUxIDI4MS4zNDIwNDQsMTI0LjcyMTgzIEMyOTAuMTQyMDA1LDEzMi40ODMyODYgMjk0LjU0MTkyLDE0Mi43NTg4NjMgMjk0LjU0MTkyLDE1NS41NDg4NjkgWiBNMjY2LjU4NDQxOCwxNTUuNDY2ODgyIEMyNjYuNTg0NDE4LDE1MS4xNDg4ODkgMjY1LjIxNzk4NSwxNDcuNDA0ODYyIDI2Mi40ODUwNzgsMTQ0LjIzNDY5IEMyNTkuMDQxNjE1LDE0MC4xODk5ODcgMjU0LjYxNDM3MiwxMzguMTY3NjY2IDI0OS4yMDMyMTUsMTM4LjE2NzY2NiBDMjQ0LjMzODY0MSwxMzguMTY3NjY2IDI0MC4yMjU2NzcsMTM5LjgzNDcxNCAyMzYuODY0MjAxLDE0My4xNjg4NjEgQzIzMy41MDI3MjUsMTQ2LjUwMzAwOCAyMzEuODIyMDEyLDE1MC42MDIzMDcgMjMxLjgyMjAxMiwxNTUuNDY2ODgyIEMyMzEuODIyMDEyLDE2MC4yNzY3OTkgMjMzLjUxNjM4OSwxNjQuMzYyNDM0IDIzNi45MDUxOTQsMTY3LjcyMzkxIEMyNDAuMjkzOTk5LDE3MS4wODUzODYgMjQ0LjM5MzI5OSwxNzIuNzY2MDk4IDI0OS4yMDMyMTUsMTcyLjc2NjA5OCBDMjU0LjYxNDM3MiwxNzIuNzY2MDk4IDI1OS4wMTQyODYsMTcwLjc0Mzc3NyAyNjIuNDAzMDkxLDE2Ni42OTkwNzUgQzI2NS4xOTA2NTcsMTYzLjQxOTU4NiAyNjYuNTg0NDE4LDE1OS42NzU1NTkgMjY2LjU4NDQxOCwxNTUuNDY2ODgyIFogTTM2My42NzEzNzMsMTQyLjI2NzAwNiBDMzU5Ljg5OTk2MSwxNDAuNDYzMjg4IDM1Ni4wNzM5NDksMTM5LjU2MTQ0MiAzNTIuMTkzMjIsMTM5LjU2MTQ0MiBDMzQzLjMzODYwMSwxMzkuNTYxNDQyIDMzNy41OTk1ODIsMTQzLjE2ODgyNSAzMzQuOTc1OTkxLDE1MC4zODM3IEMzMzMuOTkyMTQ0LDE1My4wMDcyOTEgMzMzLjUwMDIyOCwxNTYuNTMyNjg5IDMzMy41MDAyMjgsMTYwLjk1OTk5OCBMMzMzLjUwMDIyOCwxOTMuNTA4NzYxIEwzMDYuNjA4NTU2LDE5My41MDg3NjEgTDMwNi42MDg1NTYsMTE3LjQyNTAwNCBMMzMzLjUwMDIyOCwxMTcuNDI1MDA0IEwzMzMuNTAwMjI4LDEyOS44ODY5OTggQzMzNi4zNDI0NTIsMTI1LjQ1OTY4OSAzMzkuNDAzMjYyLDEyMi4yNjIyMzUgMzQyLjY4Mjc1MSwxMjAuMjk0NTQyIEMzNDcuMTEwMDYsMTE3LjY3MDk1MSAzNTIuMzU3MTY0LDExNi4zNTkxNzUgMzU4LjQyNDIxOCwxMTYuMzU5MTc1IEMzNTkuODQ1MzI5LDExNi4zNTkxNzUgMzYxLjU5NDM2NCwxMTYuNDQxMTYxIDM2My42NzEzNzMsMTE2LjYwNTEzNiBMMzYzLjY3MTM3MywxNDIuMjY3MDA2IFoiIGlkPSJkYXByIiBmaWxsPSIjMEQyMTkyIi8+JiN4YTsgICAgICAgIDxwb2x5Z29uIGlkPSJ0aWUiIGZpbGw9IiMwRDIxOTIiIGZpbGwtcnVsZT0ibm9uemVybyIgcG9pbnRzPSIyMDUuNTM4NDA5IDE5NC4wNjIxNzIgMjMyLjYxNDU1MSAxOTQuMDYyMTcyIDIzNC45NDY2MjEgMjU3LjYzMzgzMSAyMTkuMDc2NDggMjY4Ljc1NDQzIDIwMy4yMDYzMzkgMjU3LjYzMzgzMSIvPiYjeGE7ICAgICAgICA8cmVjdCBpZD0iUmVjdGFuZ2xlLTQiIGZpbGw9IiMwRDIxOTIiIGZpbGwtcnVsZT0ibm9uemVybyIgeD0iMTQ0LjgyOTQ5NyIgeT0iMi4yNzkwODgyOSIgd2lkdGg9IjEwMi43MjI2NDMiIGhlaWdodD0iNzIuMjk0MTQ0NCIgcng9IjIiLz4mI3hhOyAgICAgICAgPHJlY3QgaWQ9IlJlY3RhbmdsZS00IiBmaWxsPSIjRkZGRkZGIiBmaWxsLXJ1bGU9Im5vbnplcm8iIG9wYWNpdHk9IjAuMDc5OTk5OTk4MiIgeD0iMTQ0LjgyOTQ5NyIgeT0iMi4yNzkwODgyOSIgd2lkdGg9IjM3Ljk5NzYzNjkiIGhlaWdodD0iNzIuMjk0MTQ0NCIvPiYjeGE7ICAgICAgICA8cmVjdCBpZD0iUmVjdGFuZ2xlLTMiIGZpbGw9IiMwRDIxOTIiIGZpbGwtcnVsZT0ibm9uemVybyIgeD0iMTEyLjM5MDc2OCIgeT0iNjkuOTA5MDk0NCIgd2lkdGg9IjE2Ni4yNDg0ODgiIGhlaWdodD0iMTcuMzUxMzQxMiIgcng9IjMuNzIwMTYiLz4mI3hhOyAgICAgICAgPHJlY3QgaWQ9IlJlY3RhbmdsZS00IiBmaWxsPSIjRkZGRkZGIiBmaWxsLXJ1bGU9Im5vbnplcm8iIG9wYWNpdHk9IjAuMDc5OTk5OTk4MiIgeD0iMTEyLjM5MDc2OCIgeT0iNjkuOTA5MDk0NCIgd2lkdGg9IjUxLjQzNzU0NzgiIGhlaWdodD0iMjEuMzU1NDk2OSIvPiYjeGE7ICAgIDwvZz4mI3hhOzwvc3ZnPg==;fontColor=#1F1F1F;" parent="g8jBpLHVoKCk_19KpYFQ-822" vertex="1">
                    <mxGeometry x="32.42999999999995" y="84" width="61.17" height="45" as="geometry"/>
                </mxCell>
                <mxCell id="g8jBpLHVoKCk_19KpYFQ-827" value="" style="endArrow=classic;startArrow=classic;html=1;fontSize=13;fontColor=#1F1F1F;entryX=0.5;entryY=1;entryDx=0;entryDy=0;strokeColor=#1F1F1F;" parent="g8jBpLHVoKCk_19KpYFQ-822" target="g8jBpLHVoKCk_19KpYFQ-824" edge="1">
                    <mxGeometry width="50" height="50" relative="1" as="geometry">
                        <mxPoint x="63" y="78" as="sourcePoint"/>
                        <mxPoint x="-8.990000000000009" y="141" as="targetPoint"/>
                    </mxGeometry>
                </mxCell>
                <mxCell id="g8jBpLHVoKCk_19KpYFQ-833" style="edgeStyle=orthogonalEdgeStyle;rounded=0;orthogonalLoop=1;jettySize=auto;html=1;fontSize=13;fontColor=#1F1F1F;strokeColor=#1F1F1F;" parent="1" edge="1">
                    <mxGeometry relative="1" as="geometry">
                        <mxPoint x="508" y="344" as="sourcePoint"/>
                        <mxPoint x="608" y="471" as="targetPoint"/>
                        <Array as="points">
                            <mxPoint x="508" y="471"/>
                        </Array>
                    </mxGeometry>
                </mxCell>
                <mxCell id="g8jBpLHVoKCk_19KpYFQ-869" style="edgeStyle=orthogonalEdgeStyle;rounded=0;orthogonalLoop=1;jettySize=auto;html=1;exitX=1;exitY=0.5;exitDx=0;exitDy=0;fontSize=13;fontColor=#1F1F1F;strokeColor=#1F1F1F;" parent="1" source="g8jBpLHVoKCk_19KpYFQ-844" target="g8jBpLHVoKCk_19KpYFQ-825" edge="1">
                    <mxGeometry relative="1" as="geometry"/>
                </mxCell>
                <mxCell id="g8jBpLHVoKCk_19KpYFQ-844" value="" style="shape=image;verticalLabelPosition=bottom;labelBackgroundColor=#ffffff;verticalAlign=top;aspect=fixed;imageAspect=0;image=data:image/png,iVBORw0KGgoAAAANSUhEUgAAAGAAAABgCAYAAADimHc4AAAABmJLR0QA/wD/AP+gvaeTAAAJIElEQVR4nO2de3BU1R3HP+fukheQlJdVIAgiFKUIhSoEeeRBEqzN0KGBsRaTEHBaa4UAikAgBAkglPJsxzIdSAhFrGGYKaIhYReiVR61EEWLBErBgoISsLwSILv39A+GsToE9t69zzSff3N+5/fd882es7vn3N+BZppppplmmnEhhYWFSmFhoWK3jnAQdgvQS2rpY8NVVV0BRAhFTPVlba+wW5MeXGdA2rq0eNUjFkjJOL6pf5tQg5N9ub5/2aVND64xIK00raUaVF6QQr4IRDXS7DrIP0R4PXPKx5VftFKfXpxvgESMWJ/+lISXgXtCjKpFUNQ2OvZ3ZWPLgmbKCxdHG5C8Pv0RIVkBJOjs4oBETtmZU/mOkbqMxJEGJP7psc7eoLrwFvO8XrZ5FDmpMqvyuAF9GYqjDMhYkxFTH9EwXQp1Oohog7t35PrgsVsAABKR3HXkmIA3uBXBKBAtTMjiATEwqMrs7j/pfjmr31PVVVVV0oQ8mrD9HZBSPPJhFLkCyWAr8wrYjyLyfFnb37Uy7y102EPy+h93UmhYZOA8r5dtQSmeqxq//YQdyS1/4RlrMmKuRF1/TkhmA62szn9rZL2QYlW9GrngvQlbL1mZ2bo14OY83yL4FyHJBCIsy31HRAsEQ7xK0PL1wZJ3QGpp6g+DqmeFQD5qRb7wEX9XCebtytnxnumZzOw8dW1qR9XjmQtyIuC2Xy2lEGxWGzwv7Jz41qdmJTHFgITXx0RH11+cJCT5QGszclhInZCsDrS8VlQ1tuqy0Z0bbkBycVqGEGIV0NXovu1FfiYQs3zZFRsQGLY+GGZAUknaAAWxHBhqVJ8O5X2pyryduZW7jegsbAPSN6TfEwiKQpATcMo3a/ORQrAZEXzel+X7dzgd6TZgzOtjIs7XX3wGyUtAbDgiXEydkOI3V1q2XrxnbFm9ng50GXBjnldWgLxPT3wT5JSAfD3rgyYDktel9xcKy4FhmuT9nyAk+0DJ840v3xtyTKgNU9anr0WSQ5if5wfHJ5DZezQ92/UgyhtFXUMdJy+c4oMzH/JGzTbOXP4inO516QCoqT3C5kNb2HMy5LFrDBVBiT+7YkIojUM3oCQ97I9eEwfk8sT3xzb694AaoKS6lD9/XIY07pOeJh2vfvQa6w6UhJ3Dn1MR0tha9u10cHzCbQcfwKt4mTggl18P/JVtOp7s8wSDOg80Lf+3scyAzN6jQ247qlcGWX3H2aZDi9ZwscyAHu3u19Q+q984RvXKsEVHz3Y9Dc/bGJYZEO3VvsX77CPPMKSLsRtloeiIaWH0dnTjOPoXSkUozBw2g9539bZbimk42gCASE8E85PnEh8Xb7cUU3C8AQCxkbEsSVtEh5j2dksxHFcYANAhpj0LRxTRKsIh28gG4RoDALq16Uph0hxaeMw4NmQPrjIAoN/dfZn+6DSEsP1IkyG4zgCApG6JPD0gpJ9aHI8rDQAY2zuTnz5o3TdWs3CtAQC/fPhpUrun2C0jLFxtgEAwbfAUBnTsb7cU3TjOgI+//Iem9l7FS8HwfO5r080kRebiOAPy/QUc/+qEppiWES1ZNKKI77a6yxxRJuI4A65cv8Is32zOXjmrKa5dTDuWpC4iLirOJGXm4DgDAM7W1TLTN4fL17UdROsU24milHlEeRt7iNJ5ONIAgBP/OcHcXS/REGzQFPdA+17MHj4Tj3DHESXHGgDw4ZmDLH53KVJq2x8e1HkgkwY9a5IqY3G0AQBVJ95m9b7fa457vOeP+PlDPzNBkbE43gCArTXb2Hxoi+a4nB9kMbJHugmKjMMVBgCsef+P7Djm1xQjEExNmMzgeL3PeZuPawyQSH67ezn7Pz+gKU4RCvnDZvBghwdMUhYerjEAbhzcmldVxD/PH9MUF+mNZH7KPOLjOpukTD+uMgCgrqGOfH8BX1z+UlNcXGQsC1Lmm6RKP64zAOBc3TmmV87gwtULmuI6tg612Ip1uNIAgM8ufU6+v4Crgat2SwkL1xoAcLi2hqK3FxGUji4JdFtcbQDA3lP7WLVX+xc1p+B6AwDePPIWGw9usluGLpqEAQAl1aVsP+q+wolNxgCJZNmelew+ucduKZpoMgYAqFJlwTsvc+jsJ3ZLCZkmZQDAtcA15vjncvLCKbulhESTMwDgwrWLzPLP4Xz9V3ZLuSNN0gCA05dOM9tfQH1A1/PTlmGZAaEMRF1DnaE5j5w7SsHOeQTUgKY4o3XcDssMOFJ79I5tamqPGJ63+vQHLNu9UtNjr2boaAzLDAhlR0vPrlcoVB7bQUl1acjtzdJxKywzYM/Jvbz60WuN/n3jwU3sO/U30/JvPLiJlXtX33EqNFvHt7H0SXm4cWIhs/dovtf+xqOgh8/WsPnQFstedNvoNiR1S2JIl8F0iYsnLiqO+kC94TpCfVJeS62Il5DyeRNKCjcxZD1CLPVnVxSE0lpbtRTnFFt1KpqLhOsaRLvKDTsVAfulZIp/fMVfdcTqRCKSS0ZmCiGXAl109+NuTgtkYZuYuLV6L4oIexoxueS8UzGsFL5h87gJly44FUMvCzJ8oJJK0wYqKitADDK6b5uplsg8o69DMec/9euLdxYDd5uSwzpMvRDI1KkixKunnEoDyFfMvvLEkrn6NpevOZVtEiVvZ065tjOQOrB0MEYUj0yUQi4H+lmZVwOfCEVMsfJaREs3ZHzjt1cNPZEwQEA2YE19ytA4hyCvbUxsH6vvpLRtOnDI+tAA8hVxTS3w/cKn7aCpQdg+HyduSL/fq7JQSsZYnNqHqkz255YfsjjvN7DdgJukrE9PApYj6WtmHgmHEXLqzuzKcjPzhIpjNuX92RW7hh5P6G/i+nAeQZ5677U+Thl8cNA74H9JLE78jpfIGVKQB0SG2V0DiOJgRIv8qiffqDVCn5E40oCbpBan9pCKsiCM9cGnQt6unAptFUAsxNEG3CS1ZGSKilwGPBRSgKBGSKb5cireNFdZ+LjCAIDEXYle76cRuRIxH2isLMp5KVjSLjp2ednYsutW6tOLawy4yZCNj7eJuh54UQqm8PVtfAEQ6yJUMbs8t1xbmRWbcZ0BN0krTusVFGIZgEfKqZXjKw/bramZZppppplmtPBfF3sPBXFW2BYAAAAASUVORK5CYII=;fontColor=#1F1F1F;" parent="1" vertex="1">
                    <mxGeometry x="294" y="275.5" width="80" height="80" as="geometry"/>
                </mxCell>
                <mxCell id="g8jBpLHVoKCk_19KpYFQ-846" value="Ingress&lt;br&gt;Controller" style="text;html=1;resizable=0;autosize=1;align=center;verticalAlign=middle;points=[];fillColor=none;strokeColor=none;rounded=0;shadow=1;glass=1;comic=1;labelBackgroundColor=none;fontSize=13;fontColor=#1F1F1F;fontStyle=1" parent="1" vertex="1">
                    <mxGeometry x="298" y="351.99" width="72" height="36" as="geometry"/>
                </mxCell>
                <mxCell id="g8jBpLHVoKCk_19KpYFQ-848" value="App&lt;br&gt;Insights" style="text;html=1;resizable=0;autosize=1;align=center;verticalAlign=middle;points=[];fillColor=none;strokeColor=none;rounded=0;shadow=1;glass=1;comic=1;labelBackgroundColor=none;fontSize=13;fontColor=#1F1F1F;fontStyle=1" parent="1" vertex="1">
                    <mxGeometry x="602" y="493" width="60" height="36" as="geometry"/>
                </mxCell>
                <mxCell id="g8jBpLHVoKCk_19KpYFQ-864" style="edgeStyle=orthogonalEdgeStyle;rounded=0;orthogonalLoop=1;jettySize=auto;html=1;exitX=0.129;exitY=0.991;exitDx=0;exitDy=0;entryX=0;entryY=0.5;entryDx=0;entryDy=0;fontSize=13;fontColor=#1F1F1F;strokeColor=#1F1F1F;exitPerimeter=0;" parent="1" source="g8jBpLHVoKCk_19KpYFQ-825" target="g8jBpLHVoKCk_19KpYFQ-780" edge="1">
                    <mxGeometry relative="1" as="geometry"/>
                </mxCell>
                <mxCell id="781" style="edgeStyle=orthogonalEdgeStyle;rounded=0;orthogonalLoop=1;jettySize=auto;html=1;exitX=0.5;exitY=1;exitDx=0;exitDy=0;entryX=0.878;entryY=0.002;entryDx=0;entryDy=0;entryPerimeter=0;strokeColor=#1F1F1F;fontColor=#1F1F1F;" edge="1" parent="1" source="VqOTAM9-LENdobnW5lSC-711" target="g8jBpLHVoKCk_19KpYFQ-780">
                    <mxGeometry relative="1" as="geometry"/>
                </mxCell>
                <mxCell id="VqOTAM9-LENdobnW5lSC-711" value="" style="shape=image;verticalLabelPosition=bottom;verticalAlign=top;imageAspect=0;aspect=fixed;image=data:image/png,iVBORw0KGgoAAAANSUhEUgAABdwAAAXdCAYAAADzaZ/BAAAACXBIWXMAAC4jAAAuIwF4pT92AAAgAElEQVR4nOzd33Oc13kn+IMflkUvJ4RUguWeSCYl27JsV0w4PRtP4t0l/BcIuZ8qQlW87sBdtdem7qc4dF93lYGrvQxYu/chtiqTcSY9Jp2VY8uORESy23LTFCArIi0R6K1XOdBAFH/gx9vd73nP51OFUtlVibvPedXd7/d9zvNMDYfDAAAAAAAAHM+09QMAAAAAgOMTuAMAAAAAQAkE7gAAAAAAUAKBOwAAAAAAlEDgDgAAAAAAJRC4AwAAAABACQTuAAAAAABQAoE7AAAAAACUQOAOAAAAAAAlELgDAAAAAEAJBO4AAAAAAFACgTsAAAAAAJRA4A4AAAAAACUQuAMAAAAAQAkE7gAAAAAAUAKBOwAAAAAAlEDgDgAAAAAAJRC4AwAAAABACQTuAAAAAABQAoE7AAAAAACUQOAOAAAAAAAlELgDAAAAAEAJBO4AAAAAAFACgTsAAAAAAJRA4A4AAAAAACUQuAMAAAAAQAkE7gAAAAAAUAKBOwAAAAAAlEDgDgAAAAAAJRC4AwAAAABACQTuAAAAAABQAoE7AAAAAACUQOAOAAAAAAAlELgDAAAAAEAJBO4AAAAAAFACgTsAAAAAAJRA4A4AAAAAACUQuAMAAAAAQAkE7gAAAAAAUAKBOwAAAAAAlEDgDgAAAAAAJRC4AwAAAABACQTuAAAAAABQAoE7AAAAAACUQOAOAAAAAAAlELgDAAAAAEAJBO4AAAAAAFACgTsAAAAAAJRA4A4AAAAAACUQuAMAAAAAQAlmLSIAAJSr2eovhBDmHvL/dKvXaVyz7AAAUC9Tw+HQlgIAwCM0W/0iQC+C9DP3/IX43586xhpuhxD2Avjin1v7/9nrNLbsDwAAVJ/AHQAA7hEr1O/9O06gflx7gfzVEMKNGMKrkAcAgIoRuAMAkL1mq78YQtj7O5fIeuwP4a/2Oo2rFXhNAACQNYE7AADZabb6RSuYpfiXSsD+KNt74XsIYb3Xadyo9ssFAID6EbgDAJCF2CZmOYbspzN4z9dDCKvCdwAAGB+BOwAAtRUr2ZfjXw4h+4MI3wEAYAwE7gAA1E6z1d8L2evSLqZMV2LwvlqftwQAANUgcAcAoBZiNftKDNpP2dVH2oxV75d7ncZWxV8rAAAkQeAOAEDSmq3+YgzZz9vJI1sLIVzUbgYAAI5H4A4AQJJi0H5R25hSFcH7aq/TuFqj9wQAAGMjcAcAICmC9rHYKE4NqHgHAIDDEbgDAJCE2KN9VdA+VlrNAADAIQjcAQCotGarP1cM9tSjfaJeMVwVAAAeTeAOAEBlNVv9ldg+5pRdmrjtEMJKr9NYzXwdAADggQTuAABUTrPVX4jtY87ancrR3x0AAB5A4A4AQGXE9jFFRftf2ZXKe6XXaVzMfREAAGA/gTsAAJUQq9rXQwin7Ugyrsdq92u5LwQAABSmK/AaAADIXLPVLyqlfyxsT07R8udq7LUPAADZU+EOAMDENFv9M7GqXa/29F2J1e5buS8EAAD5ErgDADARzVZ/KQ5GPWUHamM7hLCoxQwAALnSUgYAgLGLLWT+WtheO8V+/liLGQAAcqXCHQCAsWm2+nOxqv0lq157a71OYzn3RQAAIC8CdwAAxqLZ6i/EsF2/9nxcjy1m9HUHACALAncAAEYuhu1XtZDJ0mYIYUlfdwAAcqCHOwAAI9Vs9ZeF7Vk7Xex/fOgCAAC1JnAHAGBkYtj+Q2F79k7F0F1PdwAAak1LGQAARmJf2A77vdzrNFatCAAAdaTCHQCA0gnbeYgfqnQHAKCuBO4AAJRK2M4BCN0BAKglgTsAAKURtnMIQncAAGpH4A4AQCmE7RyB0B0AgFoxNBUAgGMTtnNM3+p1GtcsIgAAqRO4AwBwLM1WfyGE8GOryDFshxAWhe4AAKRO4A4AwJHFsP1qCOGUVeSYitD9TK/T2LKQAACkSg93AACOpNnqz4UQ1oXtlKS4jq7G6woAAJIkcAcA4KiKyvbTVo8SnQ0hXLagAACkSuAOAMChNVv91RiOQtnON1v9FasKAECK9HAHAOBQmq3+cgjhh1aNEftur9O4apEBAEiJwB0AgAMzJJUxMkQVAIDkaCkDAMCBxGGWq8J2xuRUHMoLAADJELgDAHBQF/VtZ8zONVv9ixYdAIBUaCkDAMAjNVv9pRDCX1spJuRbvU7jmsUHAKDqVLgDAPBQ+1rJwKS4/gAASILAHQCAR9G3nUk7q7UMAAAp0FIGAIAHarb6iyGEv7FCVITWMgAAVJoKdwAA7ksrGSrI9QgAQKUJ3AEAeJCVEMJpq0OFFK1lVmwIAABVpaUMAACf0mz1z4QQ3rAyVNB2COFMr9PYsjkAAFSNCncAAO5H6w6qqhjge9nuAABQRSrcAQD4BINSScRzvU7jhs0CAKBKVLgDAHAv1cOkwCkMAAAqR+AOAMDHmq3+cjGY0oqQgHPxNAYAAFSGwB0AgP0uWg0S4noFAKBSBO4AAHwkVrefthokRJU7AACVInAHAGCPamFS5LoFAKAyBO4AAKhuJ2Wq3AEAqAyBOwAAQZUwiXP9AgBQCQJ3AIDMxepg1e2krKhyP2MHAQCYNIE7AAAr2a8AdaDKHQCAiZsaDod2AQAgU7Eq+A37Tw1shxDO9DqNLZsJAMCkqHAHAMib6nbq4lQIYcluAgAwSQJ3AIC8Lee+ANSKB0gAAEyUwB0AIFPNVn8pVgVDXZxttvoLdhMAgEkRuAMA5Et1O3XkugYAYGIE7gAAGWq2+nMhhJfsPTUkcAcAYGIE7gAAeTJckro6FdslAQDA2AncAQDyJJCkzlzfAABMhMAdACAz2smQAYE7AAATIXAHAMiPMJK6K9rKLNhlAADGTeAOAJCfRXtOBgxPBQBg7ATuAAD5UeFODjxYAgBg7ATuAAAZiW02TtlzMnC22eqfsdEAAIyTwB0AIC+qfsmJ6x0AgLESuAMA5EU7GXIicAcAYKwE7gAAeVmw32RE4A4AwFgJ3AEAMqF/Oxk6/Z/+82+/aeMBABgXgTsAQD5U+5Kdx2bD9XZ3sNruDgxQBQBg5ATuAACZmJ0J/5u9Jje/+/3w7RDC+RDCG+3uYL3dHXjwBADAyEwNh0OrCwBQU+3uYC6EsBxCWPm7f7r7+AcfhqftNTn5o89NvfmtL888e89b3gghXLx0Yf6qiwEAgDIJ3AEAaigG7Svx76O+7Rs/uWuryc7sTHjnO9+YfeIB77sI3lcvXZhfdWUAAFAGgTsAQI3cL2gvvHd7GHq/2LHVZOncN2cf9bY3Y8W74B0AgGMRuAMA1EAcCHkx9qr+lJvvDsOrNwTu5Ons8zNh7uTUQd77Zvz3aP3ShfktlwsAAIclcAcASNijgvY9v/z17uavbu6ettfk6IVnpm83npw+cYi3vh1CuFz8Cd4BADgMgTsAQILa3cFCbBvz0KB9zz++sfPmrd8P7x0cCVn446emN7/876eP8sBJ8A4AwKEI3AEAEtLuDhZjRfu5w7zqv//ZzubtD4Yq3MnSH31u6s1vfXnmuA+c1mKf9xuuIgAAHkTgDgCQgKMG7Xv+9tW779zdCU/Ya3J04rGpzT97caasB06CdwAAHkjgDgBQYe3uYDm2jjl7nFe58ZO7tplszc6Ed77zjdmyHzhdia1mrrqyAADYI3AHAKigGLQXFe2lVOUK3MnduW/OjmoFNmLFu+AdAACBOwBAVbS7g7kQwlKZQXth671huP76jn0mayMM3PcUwfvqpQvzq7mvNQBAzgTuAAATFoP2lfh3quxXI3CHEJpfmQknT0yNYyU2Y8W74B0AIEMCdwCACRl10L5H4A4hnH1+JsydHEvgvmcznlZZv3RhfssWAADkQeAOADBm7e7gTAzZl0cZtO/p39q9/dpbuyfsMzmbQOC+Z7sYrhoHrAreAQBqTuAOADAmMWgvKl7Pj3PNf/nr3c1f3dwtrSc8pGiCgfsewTsAQAYE7gAAIzapoH2PwB0qEbjvtxb7vN+oygsCAKAcAncAgBFpdweLMWg/N8k1FrhDCM/MT7/9pcb00xVbCsE7AEDNCNwBAEpWlaB9j8AdQvjjp6Y3v/zvp6v678GV2GrmagVeCwAAxyBwBwAoSbs7WIrDUCsRtO8RuEPlA/c9G7HiXfAOAJAogTsAwDG1u4PlWNFeyTBP4A7JBO57NmLF+3o1Xg4AAAclcAcAOKKqB+17BO6QXOC+ZzNWvK9W4+UAAPAoAncAgENodwdzsW3MctWD9j0CdwjhhWembzeenD6R6FII3gEAEiFwBwA4gH1Be/F3KqU1E7hDCGefnwlzJ6dSX4ntotVMbDezVYHXAwDAPQTuAAAP0e4OzsRq9uSC9j3/3N99+63B7tPVeDUwGTUJ3PcI3gEAKkrgDgBwHzFoL/qzn099fbbeG4brr+9U4JXA5NQscN9TBO/rsd3MjWq8JACAvAncAQD2qVPQvkfgDrUN3PdbE7wDAEyewB0A4N+C9sXYOqY2QfsegTuE8J1vzIbZmSwWogjeVy9dmL9agdcCAJAdgTsAkLUYtBcV7efqug53PhiGH/1M4E7ezn1zNrf3vxEr3gXvAABjJHAHALKUQ9C+38ZP7lbnxcAEZBi479mIw1XXq/FyAADqTeAOAGSl3R0sx6D9dE7vW+BOzk48NrX5Zy/OZPXv/H1sxor31cq9MgCAGhG4AwBZyDVo3/P3P9vZvP3BMPfAkUwJ3D9B8A4AMEICdwCgttrdwVwIYSnnoH3Pf//5zq/e/8Pwj6vxamC8nn5i6lcvPjvj+v+k7aLVTGw3s1WlFwYAkDKBOwBQOzFoX4l/p+xwCL/89e7mr27uqvAlS8/MT7/9pcb003b/vgTvAAAlErgDALUhaH+wf/nt7jtv/Gb3iaq+Phils8/PhLmTU9b44YrgfT22m7lR5RcKAFBlAncAIHnt7uBMbBuzJGi/v633huH66ztVfGkwcs2vzISTJwTuh7AmeAcAOBqBOwCQrH1B+3m7+HB3d0L421fvVvklwsic++asxT2aInhfvXRh/mqKLx4AYBIE7gBAcgTtR/P//uPd28NhOJHia4ejeuwz4e0//9qs/u3HsxEr3gXvAACPIHAHAJLR7g4WY9B+zq4d3n//+c6v3v/D8I9Te91wHE/+u6k3/+S5mWctYik24nDV9Rq8FwCAkRC4AwCVJ2gvxy9/vbv5q5u7p+vwXuCgnvvC9Dtf/Py0gcHl2owV76t1elMAAGUQuAMAldXuDpZDCMuC9nLcfHcYXr1hcCp5MTB1pATvAAD3ELgDAJUTg/aiol01dokMTiVHBqaOxXbRaia2m9nK4P0CADyQwB0AqAxB++j97at337m7E7TXIAuf++zUr/7Xr86YWzA+gncAIHsCdwBgotrdwVwIYSX+nbIbo/WPb+y8eev3QwMkycIz89Nvf6kx/bTdHrsieF+P7WZuZPbeAYDMCdwBgIkQtE9G/9bu7dfe2j2R43snP2efnwlzJ/Vvn7A1wTsAkBOBOwAwVu3u4EwchCponwB93MmJ/u2VUgTvq5cuzF/NfSEAgHoTuAMAYxGD9qI/+3krPln/7Z/u3vzDh+GpnNeA+vujz029+a0vz2ifVD0bseJd8A4A1JLAHQAYKUF79fxzf/fttwa7+lpTay88M3278eS09knVtRGHq67nvhAAQL0I3AGAkWh3B4uxbcxLVrha3rs9DL1f7OS+DNTct1+cCY8/pn97AjZjxftq7gsBANSDwB0AKFUM2ouK9nNWtrr+9tW779zdCU/kvg7U02c/E27+x6/NapuUFsE7AFALAncAoBSC9rT8/K3dm7+5tSuQpJae+8L0O1/8/LQHSmnaLlrNxHYzW7kvBgCQHoE7AHAs7e5gOQbtp61kOrSVoc60k6kFwTsAkCSBOwBwJIL29GkrQx1pJ1M7RfC+HtvN3Mh9MQCA6hO4AwAH1u4O5kIIy3EYqqA9ca/3d7ffHOyeyn0dqJcXnpm+3Xhy+oRtraU1wTsAUHUCdwDgkWLQvhL/BLQ1ceeDYfjRz7SVoV6+843ZMDtjU2uuCN5XL12Yv5r7QgAA1SNwBwAeSNBef//w2s7b/3pn+HTu60A9PPnvpt78k+dmnrWd2diIFe+CdwCgMgTuAMCntLuDM7E/+3mrU2/9W7u3X3trV/sNauHs8zNh7qRhqRkSvAMAlSFwBwA+JmjPk+Gp1IFhqYQQNmPwvmoxAIBJEbgDAEXQvhDbxgjaM2R4KnVgWCr7CN4BgIkRuANAxtrdwWKsaD/nOsjX3Z0Q/utP794eDoOwkiRNTYXb/8efzLp+uVcRvBeh++VLF+a3rA4AMA4CdwDIkKCde716Y+ftm+8ankqanp2f3n6+Me2UBg+yXYTugncAYBwE7gCQkXZ3sBxbx5y17+x354Nh+NHPdqwJySmq2//i67MnZmfsHY+0va/i/YblAgBGQeAOABmIQXtR0X7afvMgqtxJkep2jmgt9nkXvAMApRK4A0CNCdo5DFXupEZ1OyVYixXv1ywmAFAGgTsA1Ey7O5iLbWOKP1WfHIoqd1Kiup0SbcSK96sWFQA4DoE7ANSEoJ0yqHInFarbGRHBOwBwLAJ3AEhcuzs4E0P2ZUE7ZXi9v7v95mDXtUSlqW5nxDZj8L5qoQGAwxC4A0CiYtBe9Gc/bw8p092dEP7up3fv7A7D4xaWKpqdCdvf+cassJ1xELwDAIcicAeAxAjaGYf+rd3br721e8JiU0VfPz3z/vypqc/ZHMaoCN5X44DVLQsPADyIwB0AEtHuDhZj65iX7Bnj8N/+6e7NP3wYnrLYVMnJx6duNl+YcV0yKdtF6C54BwAeROAOABUXg/aiov2cvWKctt4bhuuvG6BKtXz7xZnw+GNTdoVJ295X8X7DbgAAewTuAFBR7e5gKVa0C9qZmJ+/tXvzN7d2VRNTCQalUlFrsc+74B0AELgDQNW0u4PlWNF+2uYwacUA1R/97O723Z0g5GSiPvuZcPM/fm3Wwx+qbC1WvF+zSwCQL4E7AFSEoJ2q0lqGKmh+ZSacPKGVDEnYiBXvV20XAORH4A4AE9TuDuZi25hlQTtVprUMkzR/amrj66dnFkJw0oKkCN4BIEMCdwCYgH1B+4oAiRTE1jLv3N0JT9gwxux6r9NY8LlJwjZj8L5qEwGg/gTuADBGAiMS9VFYtPGTu0Vf4h/bRMZoO4Sw2Os0Pu6J7XOUhAneASADAncAGIN2d3Am9mc/b71JyKfaITRb/eI6/r5NZExe7nUa9w0nY/C+ZPYFCSqC99U4YHXLBgJAvQjcAWCEBO0k6qF9h5utfvHfn7O5jNhar9NYPsj/hKHTJKo4wXFZ8A4A9SJwB4ARaHcHi3EQqqCdlFyJwc9DB/w1W/2isviacJMRuh5byRwqhIzB+7IHQiRme1/F+w2bBwBpE7gDQIli0H5R2ENi1mJF+4GDnmarvxBCuKqHNiPwqb7th+WzmIQd+vMYAKgWgTsAlEC4Q6KOFew0W/2ikviHNp+SfbfXaTz0lMVBxc/mYrjqSzaJxKzFivcjP3gCACZD4A4AxxDbFxRhzlnrSCL2egavllFBaYgqJXvgkNTjME+DhD10pgYAUD0CdwA4AgP6SNDIhvM1W/1VQSYlOPCQ1KMSvJMwwTsAJELgDgAH1O4OikGRS4J2ErO5bxhfqUH7fs1W/6qWShzDyMP2/eLn+Ur8M4eAlGzG4L30kyAAQDkE7gDwCIIZEjXWUKbZ6s/FIaraK3FY13udxsIkVs3nOwkTvANARQncAeABBDEkamIhjNCdI7geQljsdRojO31xEE4wkbCxnGICAA5O4A4A99jX43dJ0E5CNuIg1IlWOwrdOYRKhO33MqODRI1sTgcAcDgCdwCIDNMjUZUbpCd05wAqGbbvF4P3ZbMJSMz2vor3GzYPAMZP4A5A9gTtJKpyQft+QnceovJh+37t7mAxfkcI3knNWvyeELwDwBgJ3AHIlhCFRCUToAjduY+kwvb94ndGMdPjpeq8KjgQwTsAjJHAHYDsCNpJVJKBidCdfYpreCXFsH0/p6JIWKVPRgFAXQjcAciGfrwkqOjFu16HysRmq78qoMzaWq/TWK7TAgjeSZjgHQBGSOAOQO3FoL0IRU7bbRJRBO2X49C7pKuB92u2+sV7+qvqvCLG5Hu9TuNyXRe73R3MxVYzxd+pCrwkOKjr8Xtm1YoBQHkE7gDUlqCdBNUyaN+v2eoX/17+sDqviBHaji1ksgjzBO8kbDNWvAveAaAEAncAamVf4LEsaCchm/Hh0Hpdg/b9mq3+QuzrLpSsr+KaXup1Gtdye+Pxe2jJA18StBkf+q7m8F0EAKMicAegFlQWkqhsqwrjMNV1MxVq6Urx0DP14ahlcNKKRNX+tBUAjJLAHYCkxaF1y4J2EuP4fqSve+280us0Lua+CPcytJtEbe+reE96cDcAjJPAHYAkxaC9CHXO20ESshGD9qs27X9qtvqLsdrdQ7N0ZdtC5jDa3cFi/O4SvJOatfj9JXgHgEcQuAOQFEE7iRK0P0JsMVNU/L9U6RfK/azF4ahaTxxQDN5XXO8kSPAOAI8gcAcgCcIJErUWj+IL2g+o2eovxeBdtXv1bcde7eu5L8RReYhMwjxIBoAHELgDUGmO35MoFYDHoNo9CaraSyR4J2GCdwC4h8AdgEoStJMoQXuJYrV7MbDvdG3eVPo2Y1W7cG0E2t3BXDzNZRA4qblefF4bBg4AAncAKqbdHSzHoF3ARiq2YyhcBA2qfUsWq90FkJP30XXe6zQu5r4Q4yB4J2Gb8cGz4B2AbAncAagEQTsJErSPUbPV13JjcrSPmZAYvC/5fiRBm/E7ctV3JAC5EbgDMDExSFiOFXyCBFKxGfuLC9onoNnqL8QQR7up0fuoRVKv09AiqQI8mCZRHk4DkB2BOwBj56g8iXJMvkKarb45D6OzEYN2fdorKAbvy659ErO9r+LdQzwAak3gDsDYCNpJlKC9wmLwXnymvJT7WpRARXtCDBcnYQaMA1BrAncARq7dHez1Xl4StJOQjXgEft2mVZ8e70e2vdciSdCephi8e+hEigTvANSSwB2AkdkXtAvASMlGDAC000hQs9U3G+Jgrsf2DuuGodaD71wS5nsXgFoRuANQunZ3sBDDLjf9pMQNf83EdjPLTtd8rKhmX4/V7Ncq8poomeCdhPkeBqAWBO4AlEY/WRLlSHvNxar3pfiXW9uNvZC9qGTXHikj5qaQsOuxpZvZKQAkSeAOwLEJ2kmUoD1D+8L3xRpXvgvZ+ZjgnYQZWg5AkgTuABxZuztYju0aBO2k4uMBkYJ2wr8F8Av7AviUP8s2Ysh+VbsY7icG70vxAbn5BqRkM86cWL10Yd7MCQAqT+AOwKHFoN0NOynZjjfrl92s8zCx73vxtxD/qvg5V4RPRahe9Dm+1us09DvmUHyPkyjf5QAkQeAOwIG5QSdBbs45ltiCZi98P7Pvn+P4HCz6GG/FYH1LuE7Z4vd60WrmrMUlIdv7Kt6dVgOgcgTuADyU3q8kSt9XRq7Z6p+J4XuIQfzcvv/Ne//zvbZilfqe/f+5CNY9IGJszGIhYeaxAFA5AncA7kvQTqIE7QBHJHgnYYJ3ACpD4A7AJ7S7gzMxZF8WtJOQ67FtjKAd4Jjib4EieD9vLUnMRgzetd8CYGIE7gB8xM01iXJjDTAifhuQML8PAJgYgTtA5txMkyg30gBjEn8rLGszR4KcgANg7ATuAJmKfVqLG+eXXAMkZC3eOF+zaQDjZb4LCTPjBYCxEbgDZMZANBJlGBpARcTgfa/i/bR9ISFF8H45hLB66cL8lo0DYBQE7gCZaHcHS/HGWNBOSgTtABXW7g6W44N8wTsp2Y7B+2XBOwBlE7gD1JwbYRLkJhggMfH3RvFg/6y9IyHb+yrePdwHoBQCd4CaErSTIEE7QOK0riNhTtUBUAqBO0CN6KlKovRTBagZwTsJE7wDcCwCd4AaiEH7Svw7ZU9JxGa8oV21YQD11O4OzsTg/bwtJjFX4qm7qzYOgMMQuAMkTNBOogTtAJkRvJOwjfi7RfAOwIEI3AES5KaVRLlhBchc/A2zrFiABG3E9ncKBgB4KIE7QEIE7SRK0A7AJzilR8Kc1APgoQTuAAmIg8eWBe0kRu9TAB7KwHcSthkLYdYNfQdgP4E7QIXFoL34IX/OPpGQtVj5dcOmAXBQ7e5gOf7uEbyTku2iwCAWGQjeARC4A1SRoJ1ECdoBOLYYvBcV72etJgkRvAPwEYE7QIW4wSRBezeXq4J2AMqkAIGEKUIAyJjAHaACHKEmQaq4ABgLwTsJE7wDZEjgDjAhcUjYkqCdxAjaAZiIdndwJv5uMkSe1BgkD5ARgTvAmMWgfSX+nbL+JGIzVmit2jAAJknwTsI24u8pwTtAjQncAcZE0E6iBO0AVFIM3pf9tiJBG3H+jd9XADUkcAcYsXgzuBJvCN0Mkgo3ggAkQVEDCVPYAFBDAneAEXHcmUQ56gxAkmLwvlfxbj4OKdmM9w3rZuQApE/gDlAyQTuJErQDUBvt7mDZYHoSZDg9QA0I3AFK0u4OFuON3TlrSkLW4k3dNZsGQN3E4L2oeD9rc0mI4B0gYQJ3gGMStJOotVjRfsMGAlB3fq+RML/ZABIjcAc4onZ3sBQrpty4kYqiWmrdTRsAuRK8kzDBO0AiBO4Ah6QnKAlyLBkA9jFzh4Rdib/pzN0BqCiBO8ABCdpJkKAdAB5C8E7CDLwHqCiBO8BDtLuDudg2ZlnQTkI2Y3iwLmgHgEeLwfvegNVTloyEFMH76qUL86s2DaAaBO4A97EvaHfTRUo2Y6WTGy4AOAK/AUmY34EAFSFwB9hHdROJcoMFACWKwfveb0KnHEmJk44AEyZwB9C/k3Tp3QkAI2aOD4kyywdgQgTucAzNVn8x/l+fiX+Fohpm4RD/X/cHZUOOLXIAACAASURBVDfiX+h1GgK0MRC0kyhBOwCMmeCdRAneJ2xfbrAQ84JwzNzgWgih2MutXqdxrRaLBDUjcIdHaLb6Z+IX4cK+L8hzY1q37fhluhfEF1+yN3qdxg37djzt7mAxHhMWtJOStTgUS9AOABMSf0deHOM9AZRlLRZtuJ8sWbPVX4hFeHIDQOAO+zVb/eJLcTF+Qe79s4p9vPe+UK/Gv2u9TkO1wgG4QSJRbo4AoGL8riRhflsew77cYC8zqOpnwCdyA6foYXwE7mSv2eov7fuyPJvwelyPX6Trvkg/zQ0RiXIzBAAV1+4OFuJwVScnSc2V2GrG/eND3BOwLyXeVmpDAA+jJ3AnO7FFzN4X5Us1ff/be+F7DOCzrX7Xa5ME7fXZXBW0A0A6zAYiYeYD3SPmBkvxr65FW3IDGBGBO1mIT6SXYuVJylXsR3Ulty9RQTsJMtAKAGogBu8rcV5QFdtTwoNsxKKP1RxXaF/Iviw3EL7DcQjcqbXYLma5xpXsR7EWv0DX03vpD9fuDvYerAjaSclmcWMjaAeAeom/TVfin+CdlGzGivcsgvdmq79c8xPwh7Udg/dVbWfgaATu1E58Kr3sh+0jfRzypf702s0MicrqRgYAcrXvt+qyohASsxmLmdbrVhgScwMnUR5tc6/dpap3ODiBO7XRbPUX45elnomH99Fgxl6nkVS/aEE7iRK0A0CmtD0kUbVpfRhzg4s17ss+KntV78nlBjAJAneS5wuzVBvxC7TSx8b2DaRaErSTkI14k1K7dk4AwOEI3klUssF7bBuT60y3sl2JJ+W1m4EHELiTLEH7SFUyeN8XtDvFQEo2YkW7H6QAwCe0uwP3NKRqLf7GrXS1cwzaPdwajSQK9mASBO4kR9A+VpX4Am13BwuxGkHQTkoE7QDAgQjeSVglg/dmq78Uq/EF7aNX3PcsazUD/5PAnWTEoSarfoROxER6vLvxIFFJVPsAANWj0ISEFb+BVyddbKJAb6KSnA0HoyBwp/Karf5c/ML8K7s1UR/36xv1dHJBO4kStAMApdBKkYRN5JRnzA0u+3dm4rZjZnAx83UgcwJ3Ki32W7tsMGalbBZVN71Oo/TBj3F41LKgnYRsx5M3lwXtAEDZYvC+En8juyciJRvxN3Lp9433arb6K/EBlX9HqmMztpnRXpMsCdypJO1jknAlfoEeu9o9Bu0G2ZCSj098XLowP9ITHwAA7e5gLgbvK0JFErMZK95Xy37ZzVZ/IeYGZ10UlbUWC/bcM5EVgTuV4+l0UrZj6H6kqgVBOwkStAMAE7MveF/2G5rElBq8N1v94j7y+y6CJBwrN4AUCdypDFXtSTtwtbvqHBK1GR8OrQvaAYAqULxCoo5VwKKqPWmlnZKHqhO4UwnNVn8pfmkKYNNV/HBaelCPNkE7iRrZEVgAgDII3knUoYN3p+FrQW93siBwZ6JMEq+lV/ZPJI+DnpYF7STmevzxL2gHAJLQ7g4WYxjpxDApKYL39VjkcuN+rzvmBsXv8pfsbG18IjeAuhG4MzGxhcy6o2C1tPG1L860Pj831fYwhcRsxB/7Ki4AgCQJ3knY2r3Be2whs+4ERy1txFPyWsxQOwJ3JkILmfqbmgq3//TLMydOnpjKfSlIg6AdAKiVdnewEE+ZKoAhNUXwvrrxk7tn4ol4uUF9bcbQ/VruC0G9CNwZu9h37b9Y+Ty88Mz07caT0ydyXwcqay22jvEDDwCopdji8aLgnZT8/K3dm7+5tfuUTctC0VZopddpaOdJbQjcGatmq7/qh15+vvDk9M2vPjPtxxJV8qnjqgAAdRaD95U4X0nFMJV0dyeEVzd3bm69N3T/mJ/v9TqNy7kvAvUgcGcs4pCTdX0E8zV/aurW10/PPJn7OjBxgnYAIGvt7mAuBu8rgneqpAjbe7+4e+vOB8F9Y77Wep3Gcu6LQPoE7oxcDNuvGo7K44+FW82vzD45O5P9UjBe27H3Y9E6xkAeAIBPBu/LBlIyae/dHob/78bOzT98GFS2sxZbzLh3I1kCd0ZK2M69hO6MkaAdAOAA2t3BcuzzLnhn7Iqw/X/8cuf2cBjM/mLP9RDCotCdVAncGZlmq78Qw3bHFPkEoTsjthmD9lVBOwDAwQneGTdhOw8hdCdZAndGQtjOowjdGYHN2J/ddHsAgGNodweLMXg3g4uREbZzAEJ3kiRwp3TCdg5K6E5JBO0AACMgeGdUhO0cgtCd5AjcKVXs2X7NEUQOSujOMWzE/uzrFhEAYHTa3cFCHLB63jJzXMJ2jkDoTlIE7pTGgFSOSujOIW3EivarFg4AYHza3cGZWPEueOdI7nwwDH//c2E7R7LR6zQWLR0pELhTCmE7x3Xy8ambzRdmnrKQPMSVWNEuaAcAmKAYvBcV78taiXJQd3dC6P3i7q07H4QnLRpHtNbrNJYtHlUncKcUzVa/aOnwktXkOOZPTd36+ukZP76411qsaL9hZQAAqqPdHczF4H1F8M7DCNsp0Q96ncaKBaXKBO4cW7PVX3WkkLI894Xpd774+eknLCiCdgCANOwL3pfN8+J+frq5c2uwPRS2U5aXe53GqtWkqgTuHEuz1S9+UP3QKlKmF56Zvt14clpPvzxtF21jQgirgnYAgPS0u4Pl2Odd8M5HXu/vbr852HUCgrJ9t9dpaDdKJQncObJmq19Mqv+xFaRsU1Ph/T/98sznTp6Ysrb52Avaix7tJs8DACRO8E5hsD18/6ebO5+zGIxAcQ+50Os0FGpROQJ3jiQOSb2hTx+jMjsTtr/94uyp2RlLXHOCdgCAGmt3B4sxeD9nn/Py3u1h+B+/3Lk9HAanlxmV6yGExV6n4V6SShG4cyTNVv9aCOGs1WOU5k5O3Tz7/MxTFrmWNmN/dn33AAAyIHjPSzEk9R9eu3vzDx8G93OM2lqv01i2ylSJwJ1Da7b6RTXqX1k5xuH5xvSdZ+enH7fYtSFoBwDIWAzei3DsvOugvgxJZcwMUaVSBO4cSrPVL34c/Y1VY5yaX5kJ+rknbyMOQvUjCACAIng/EyveBe8107+1e/u1t3a1kWGc9HOnUgTuHJi+7UzKZz8Tbv6HF2af0s89SRuxot30eAAAPmVf8L7kXjN9dz4Yhr//+c77w2EwKJVxu97rNBasOlUgcOfAmq3+egjhJSvGJHzhyembX31mWv+/dAjaAQA4sHZ3UBR4rcQ/wXuieq/t3HzvztB9G5PySq/TuGj1mTSBOwfSbPWLaoO/tlpM0tnnZ4pBqvag2tZCCJcvXZi/lvtCAABweIL3dL052L3zen/X/C0m7Vu9TsP9KBMlcOeRtJKhKmZnwva3X5w9pbVMJa3FinY98wAAKEW7O1iO7WZOW9Fq00qGCtFahokTuPNIzVZ/1SAbqkJrmUopBtOsC9oBABglwXv1aSVDxWgtw0QJ3HmoZqu/GEL4G6tElTS/MhNOntBaZoKKoP1ybB2zle0qAAAwVu3uYCm2mjln5aujf2v39mtv7Z7IfR2olOKedaHXaSgMYyIE7jxUs9W/oYqAqvlfHp96+z+8MPO0jRk7QTsAABPX7g4WY8W74H3C7u6E8Hc/vXtndxj0bqdqrvQ6jSW7wiQI3HmgZqtf/ID5vhWiil54Zvp248lpVRTjsRmD9lVBOwAAVRGD92UtUCfn9f7u9puDXfPeqKrv9jqNq3aHcRO4c18GpVJ1BqiOxWbsz76awXsFACBR7e7gTKx4F7yPUTEo9Uc/28nm/ZKkzV6nccbWMW4Cd+7LoFRS8Oz89PbzjWkPhconaAcAIDn7gvclxWOjd/31nZtb7xmUSuW93Os03NsyVgJ3PqXZ6hc/Ut6wMlTd1FS4/Rdfnz2hyr00GzFod+QOAIBktbuDuThcdUXwPhpb7w2LwL2Ob436KWaRnel1GtqjMjbTlpr7uGhRSMFwGE78c3/3ps06tiJo/+6lC/OLwnYAAFJXzB26dGG+uK8tisleiYEbJfrlr3fftp4k4lR8+AZjo8KdT1DdToq+/eJMePyxKXt3eGtxEKqQHQCAWmt3B8uxuOy0nT4e1e0kSJU7Y6XCnXupbic5/6y64rCKoP25Sxfml4XtAADkoJhPdOnCfFFg9nKcWcQRqW4nQarcGSsV7nxMdTsp+843ZoNe7o+0Fnu036j46wQAgJFqdwdLMYA7Z6UPTnU7CVPlztiocGc/1e0k619+u6sv4/1tx76VexXtwnYAALJ36cL8ejHDqJhlFGcacQCq20lYUeW+bAMZBxXufKTZ6hdT3N+xGqRqairc/ouvz55Q5f6xImi/XPwVQ6Mq8poAAKCS2t3BYgzjztuh+7vzwTD86Geq20naZq/TOGMLGTWBOx9ptvpFdfv3rQYpe+GZ6duNJ6dPZL6JRT/KVUE7AAAcXrs7OBNPfwve7/HqjZ23b747fLpSLwoO7+Vep7Fq3RglgTsfabb6W/F4DSRrdiZsf+cbs7lex5uxP7sfDgAAcEz7gvcl98oh3N0J4b/+9O7t4TDkXuBE+jZ6ncaifWSUBO4UYXtxbO6HVoI6OPv8TJg7OZXTXgraAQBgRNrdwVwcrrqSc/D+L7/dfeeN3+w+UYGXAmX4Vq/TuGYlGRVDUwmGRlAnbw5238xkQ4vBTi9fujB/RtgOAACjUbRpvHRhvqh0LyreX4mzkrLz5mBXfkSdrNhNRkmFe+aarX7xo+GN3NeBevnON2ZDjYenbsSK9qsVeC0AAJCddnewHNvNnM7hvW+9NwzXXzcslVrZ7nUac7aUUfGEEk/1qJ1f/273nRq+rSJo/+6lC/OLwnYAAJic4oRpcdK0OHEaWzzWWkaniMnHqdheGUZC4M5S9itA7fz6d7t1Kr9YCyE8J2gHAIBq2Re8/2UskKmld94bPuXSo4bkYYyMljIZa7b6CyGEH+e+DtTTt1+cCY8/lvTw1LXYOuZGBV4LAADwCO3uYDG2mjlXl7W6+e4wvHpDOxlq64lep7FleymbCve8OT5Dbf12a5hiW5liANMPYkX7srAdAADSUZxILU6mFq0gYwFN8vq/006GWlPlzkgI3PPmg4XaSqytTBG0vxJCOHPpwvyKoB0AANIVg/eiwO251IN37WSoObkYI6GlTKa0kyEHCbSVKYL2y8XfpQvzjrEBAEANtbuDM7HVTBHunUrlHWonQya0laF0s5Y0W57iUXtFW5kvfn7qiQq+z834g3td0A4AAPUWT7Aut7uDuRDCSvyrfPAe28k8W4GXAqNU5GOrVpgyCdzzJXCn9n737vC9L34+VClw34yDUH2ZAwBAZmKxzcV2d3A5heD93feHJyvwMmDUFgXulE1LmQw1W/3iqXqKAyXh0M59sxLPFa/HtjG+xAEAgI+1u4PlePr1dJVW5b3bw9D7hXYyZGG712nM2WrKZGhqnlS3k42t9yb6UHEjhPDdSxfmF4TtAADAvYr7hEsX5ose7y/HE7GVcOv3Q0V65OJUnHMIpRG452kx9wUgH7/7/fDtCbzZvaB98dKF+asuNwAA4GH2Be9/Ge8nJqpoz2nDyIicjFIJ3PPkg4Rs3Hp3eHeM73VN0A4AABzVpQvz68X9RHFfMcng/fe3h0/ZRDIiJ6NUerhnRv92cjSGPu5rcRjqDRcYAABQlnZ3sBiHq740rkXVv50M6eNOqQTumWm2+kX/9r/OfR3Iy9nnZ8LcyalRvGdBOwAAMHLt7uBMHK56ftT/W/1bu7dfe2v3hF0lM8/1Og339pRCS5n8GARBdt59v9SBP9shhFdCCE9cujC/LGwHAABGrbjvKO4/ilAwFv6MzM3t4U0bSobkZZRm5H0WqBx9qcjO9r9+NPDniWO+7yJov1z8Xbowv+UqAgAAxi0W/Cy3u4OV2Gqm+DtV5st4787wMRtLhorAfd3GUwaBe348sSM7x/zBuBmD9lVBOwAAUAXx3uRiuzu4XHbw/sGH4WmbTIYUqFIaPdwzYmAqOTvC4NTN2J991YUDAABUWbs7KO73l2Kf99NHfakGppIxg1MpjcA9I81Wv3ha9ze5rwN5an5lJpw8caDBqYJ2AAAgWe3uYPmowfvNd4fh1RsCd7L1RK/TcLKdYzM0NS/ayZCtOx8+8p1vhBD+8tKF+TPCdgAAIFXF/UxxXxNCeDne5xzY1nvDTRtPxuRmlEIP97w4GkO2ih+OT/3R1P0qPDZiRftVVwcAAFAXsZBotd0dLMaK93OPemu/f3+oMJOcnbH7lEHgnhcDIMjW3Z3hvZ93V4phqIJ2AACgzuI9z2IM3ovhqi896O1+eDfsuhjImMCdUgjcgSy8+6/hbnyfa7Gi/YadBwAAchGD96vt7uBMrHg/f+9bv/Ph8PMuCDImcKcUAve8PPL4GNTVBzvDInB/TtAOAADkLN4TLbe7g4v3Bu/DYTjh4iBjAndKoTcXkIWdnfAlYTsAAMC/Ke6PLl2YXw4hPBFCeOXOB8PfWxoyZ/YhpVDhnolmq+8pHQAAAPAJly7MbxWV7v/7//mbfwgh/N9Wh4ydtfmUQYV7PgTuZM+DJwAAgPt7/w/D9ywNwPEJ3IGcCNwBAADuz/0S2Wu2+trKcGwCdwAAAAAE7hDCgjXguATu+fCBAQAAAAAwQgL3fDgSA/49AAAAAGCEBO5ATpz0AAAAAGBkBO4AAAAAAFACgTsAAAAAAJRA4A4AAAAAACUQuAMAAAAAQAkE7gAAAAAAUAKBO5CTLbsNAAAAwKgI3IGcXLPbAAAAAIyKwD0fV3NfAAAAAACAURK4AwAAAACEcMMacFwCdwAAAACcjCd7vU5D4M6xCdzzYVgk2et1Gn5AAgAAADAyAvdM9DoNwyIBAAAA4P62rQtlELgDufDFCQAA8ABOBENQrEopBO55uZ77ApA1X5wAAAAAjJTAPS/6uAMAAAAPolCPnDnlQSkE7nlR4UvOfHECAAA8nEI9gGMSuOfFFyc5c/0DAAA8nEIlcub6pxQC97z44CBnTngAAAA8nEIlcnbD7lMGgXtefHCQM4E7AADAw7lvIlu9TkNuRikE7hnxwUHGtnudhkoNAACAhxO4k6sNO09ZBO758QFCjvxoBAAAeIRYqLRpnciQIlVKI3DPj+CRHJlfAAAAcDByA3Lkuqc0Avf8+AAhR657AACAg3H/RI5c95RG4J4fHyDkyHUPAABwME4Ik51ep+G6pzQC98z0Oo0ieNzOfR3IyqaBwQAAAAemYIncmHdIqQTuefLUjpy43gEAAA4oDk69br3IiNyAUgnc8+SDhJy43gEAAA7HfRQ5cb1TKoF7nnyQkBPXOwAAwOG4jyIb+rdTNoF7hmIf983c14Es6N8OAABwSL1OY92akQn92ymdwD1fnt6RAz8SAQAAjuaKdSMDcgNKJ3DPlw8UcuDBEgAAwNG4nyIH8jFKJ3DPlONhZGDbdQ4AAHBk7qeoO21oGQmBe94cD6PO/DgEAAA4ohhEXrd+1JjcgJEQuOfNBwt15voGAAA4nlXrR425vhkJgXveikByO/dFoJa0kwEAADg+91XUVdFO5prdZRQE7hnrdRpbvjypKdc1AADAMcW2MhvWkRq6bFMZFYE7gknqyBcnAABAObTdoI7kYYyMwD1zse3GZu7rQK04FgYAAFAe7Wipmyvx9AaMhMCd4Gk1NaO6HQAAoCTa0VJDrmdGSuBOELhTI9uuZwAAgNIpbKIuilPxcgNGSuDO3hCUNStBDazH6gsAAABKEtt2Gp5KHQjbGTmBO3t84FAHF+0iAADASMgNqAOnNRg5gTsf6XUaVz2tJnEbhp4AAACMRmzDsWl5SdiaU/GMg8Cd/TzlI2Wq2wEAAEbLfRcpc/0yFgJ3PtbrNNY9rSZRG/GUBgAAAKNT5Abb1pcErTkVz7gI3LmXp32kyHULAAAwYrEdh9PxpEhuwNgI3PkEPdlIkOp2AACA8bmsyp3EqG5nrATu3M+yVSEhnlIDAACMSaxydx9GSlyvjNXUcDi04nxKs9UvKobPWRkqrqhuX7RJAAAA49Vs9YuK4dOWnYorqtsVljJWKtx5EE//SMGKXQIAAJgIuQFVt+06ZRIE7txX7Im9ZnWosOIp9TUbBAAAMH5xBtyGpafCLuvdziQI3HmYiwahUFHbqtsBAAAmzn0ZVbUZB/zC2AnceaD4FNCHE1V0MQ7qAQAAYELiqeMfWH8qaEVuwKQYmsojNVv94gv0rJWiIq73Oo0FmwEAADB5zVZ/LoRQFOydsh1UxJVep7FkM5gUFe4chCNiVInp4gAAABURq4jdp1EVWtAycQJ3HikOUHVEjCp4xaBUAACAaul1GutFVbFtoQIuGpTKpAncOaiLceAETErRSuai1QcAAKik5VhdDJOy0es0zCJk4gTuHIgjYlSA6w8AAKCi5AZM2Lbrj6oQuHNgsbXMK1aMCfieVjIAAADVFlvLrNkmJmBZKxmqQuDOocSWHtetGmPkSBgAAEA6VrSkZczW4sMeqASBO0expC8bY7IdrzcAAAASEFvLuI9jXK7HhzxQGQJ3Di0e0fHlyTgsxR9rAAAAJCK2BH3ZfjFi27GVjNyAShG4cyT6uTMG34vXGQAAAInpdRqr+rkzYivmvVFFU8Ph0MZwZM1Wv+iR9ZIVpGRF/zXTxQEAABLXbPWLQPSsfaRkP+h1GlrJUEkq3DmuZUNUKZn+awAAAPWxaA4cJbsibKfKBO4cS+yT5cuTshST7Bf1XwMAAKgHuQElux6LP6GyBO4cmy9PSrJtSCoAAED9xD7bQlKOa1uRHikQuFOK+OW5aDU5or0vTcNOAAAAaqjXaRQz4F62txyRsJ1kCNwpTQxLfXlyFMvCdgAAgHrrdRqrcgOOQJEeSRG4UypfnhzBy7HSAQAAgJqLucH37DMHJGwnOVPD4dCuUbpmq1/0ZvuhleURXo4/tgAAAMhIs9Uv7gXP23MeQthOklS4MxIq3TkAYTsAAECmep1GUaj3A/vPAwjbSZYKd0ZKpTsPIGwHAABAbsD9CNtJmgp3Rmpfpfu2lSZeB98VtgMAABCckOfThO0kT4U7Y9Fs9RdCCFdDCKeseLZ8aQIAAHBfKt0JIWyGEJbkBqROhTtjET8sF+OHJ/m5LmwHAADgQWKl+7eckM9WkRssyA2oA4E7YxM/NBfihyj52BC2AwAA8Cj7ivXkBhmZng7/V8wNtnJfC+pBSxkmotnqF0+uz1v92luLk+cBAADgQJqt/lwIYT2EcM6K1duz89PbzzemVy5dmDfrjdpQ4c5ExBDWUJT6Ko4AvixsBwAA4LCKSudep1FUuv/A4tXT1FS4/fXTM+8/35g+FU81QG0I3JmYff3Z9HWvl814FMzTaQAAAI6s12mshBD+Ul/3evnsZ8LNP/3yzIn5U1Ofi29M4E6taCnDxBVHxR77TPh/PvgwfMduJO9KCGFZ3zUAAADK0mz1z8QWM2ctatq+8OT0zS81pp+anfnU23ju0oX5G7mvD/Wgwp2JK8LZP//a7M3nG9N3pqbC+3YkSXstZJaE7QAAAJSp12nc6HUaCyGEVyxsmqanwp2ihcxXn7lv2F5YyH2NqA+BO1Wx8Oz89ON/9tWZz518fOqmXUnKRrF/WsgAAAAwSr1O42JsTXvdQqdj7uTUzT//+uzj+1rI3I+2MtSGljJMXLs7KI6GvbH/dbw52L3zxm92d4fD8LAPYyarqGq/2Os0LtsHAAAAxqVoTRtCKPq7f9+iV1dR1f7iF2d2HxG077l+6cK8KndqQYU7VfCpp5iq3SvvSqxqF7YDAAD/P3t39xvXmd8J/pCy3e3unqZ6YsZhkg7VOzdZ7AUV1MXuHRVg7625EAYIdiEZy80gQFBmE3MxwgYQPQusgQWGTXMwszMYYiwtBhhgfdHyX9DiH0BEvNrFALtRpZPUuKs7FvvN3balWhz5oZuSRbGeejvneZ7Pxzhwp+O2Tp1TdV6+z+/5PTBXdStT1e7t9to3Fz4coar9NP35yYYKdxq3tT+oQ9u3ztqPwfHwl//5bx59+tmjasnZalwvLIp6r/DjAAAAQEt0uv262r0O4OUGDfvKy9WP//DbF167+I2FcXbkj3c2luUNJE+FO23wwj5d9Wjof/uHLy19e3nx2KKqjanbx7x9uLdySdgOAABAm4TZ13W72nedmGYsLFQf/1cri7/67/7rl8YN2yt93MmFCncatbU/qPuufTTqPvzqk2H1//7d4w9//NPh687c3LwberU/LOTzAgAAkKhOt18H73UA/4ZzOHt1YeTvv7b46R/89uLSSxcm/uMOdjaWhe4k7yWnkIZFLYjx1VcWqv/m0oXXBe9zcScE7Q8K+KwAAABkILzDXu10+1dCm5l153U26j7t/+h3F1+vs5opca7Iggp3GrW1P9ieZFVxwftMCNoBAADIguB9+mYQtJ/2Rzsby/fb8UlhPCrcadpEU4WerXj/yc+G3xwOq1ed1Wh1j/bb9bQ7QTsAAAC5COuQXQmtZurg/bqTG6/u0f77ry1+ElrHzLLosc6JBO4kTYU7jdraH0z1C/jZo6r6u588/uiHg8eLnz2yOvkIeuGB464e7QAAAOQuBO83qqrarCq5wXm+8nL149XXF7++vLT46hR6tI/ig52N5atz+ZNgRgTuNGZrf1D3b//LWf35P/7psOr/5PEP//5nw287y19St425HUb6AQAAoDidbr8O3q9aYPVpdTX7t76x8OPv/M7it7/x6kzaxrzI8c7G8sV5/6EwTQJ3GrO1P6hHk7836z+/rnofHD/+uPfh41/8+tPqtYLP+EFoG6OaHQAAAIJQ9X41VL6vlXpcvvm1hR/+zj9ceG2O1exn+c7OxrJ2tyRLD3eaNFH/9lHVN4mVf7j4ar3Vvd5/9HD40d/95PGjQsL3D6qquhdCdjcrAAAAeEZ4X96tt9LC92dC9rZ0CLgSCgYhSSrcaczW/qC+oa029eefVL7/+Hj4449+BDXbLgAAIABJREFUPnwtk8VWeyFgv6eSHQAAAMYXwvcrIYC/kkPP95cuVB9982sLP1/5rcVvX/z6QtVwJftZ7uxsLN9o5Z7BCATuNGJrf1DftP6qTUf/5x8Pq7//2fCjn/x0+PNf/nr4jc8eVd9qwW6d53TAfk8VOwAAAMxGp9u/HIL3K6kE8CcB+2tLC6996xsLr371lbn3ZB9Hb2dj+VIKOwrPI3CnEVv7g3p0+PttPvp1+5mf/6qqHv582PvZL4eLv/p0+Monn1avN7U/iwvV//14WP3nqqruh4D9vgp2AAAAaEaogL8ctjqAv9TkTP5XXq4+/OrLC5988+sLr/zWP1h4vV7wtKUV7KP41s7GssyDJOnhTlPm0r99EvWo71dfqarXvrnw1M2yroSv29H85GfDD4fD6ld1GP/pZ9Xj+v/38SfDsW6s9QrgX3154Uf1f371K9Xiq19ZePzKS9U3v/m1hW/V+xBGoP9kZ2P5fqMHBQAAAHgizDKvt7unj0iohL94kn288nL1319YWPj9ava5QWNFgjNw5dnjCqkQuNOU1gfuZ6lHiGsXv7Ew0o3sJKA/cepGeNqr54yCHwvbAQAAoP0O91ZO3t/r2en1LP/67z84a8enlBvkRuBOshadOhqS/UrfJ+qA/uI3frON2S/t3kx2DgAAAJipnY3lF77TTyk3yE2yhZogcGfutvYHLprxVLcDAABAuo6cuyjFFGqSH4E7TRC4x1PhDgAAAOnyXh9JwSapErjTBBfMSOdNPwMAAABazXt9PPkRSRK404TLjnqUg4T2FQAAAPgygXs8gTtJErgzV1v7gzpsX3LUo+jfDgAAAAnb2Vh+WFVVzzmMsp7QvsIXBO7Mm9HJeEbBAQAAIH3e7yOFwk1IisCdeXOhjOeGDAAAAOnzfh9P4SbJEbgzby6UcXph2hkAAACQNi1j48mRSI7AnbnZ2h9cqqpq1RGPYvQbAAAAMrCzsVwH7sfOZRSBO8kRuDNP2snEM/oNAAAA+VBYF2cpFHBCMgTuzJNRyXhuxAAAAJAP7/nx5EkkReDOPLlAxjkO080AAACAPHjPjydPIikCd+ZpzdGO4iYMAAAAGdnZWFbhHk+LYpIicGcutvYHRiPjuQkDAABAfg6c0yhrW/uDiwntL4UTuDMvAvd4AncAAADIj/f9eHIlkiFwZ15cGCOZZgYAAABZ8r4fT65EMgTuzIt+W3GOUtpZAAAAYGTWbIsnVyIZAndmbmt/UF8UlxzpKEa7AQAAIEM7G8sPFdpFW09sfymYwJ15MO0nnsAdAAAA8uW9P9LW/kC+RBIE7syDaT/xTC8DAACAfAnc4wncSYLAnXlwQYzT29lYfpDSDgMAAABRFNrFky+RBIE7M7W1P7hUVdWqoxzFKDcAAABkLBTa9ZzjKDookASBO7PmYhjPKDcAAADkT8FdnKWt/YGcidYTuDNrpvvEc8MFAACA/Hn/jydnovUE7syaC2Gc452NZRXuAAAAkD/v//HkTLSewJ1ZW3OEo7jZAgAAQAFCwd2xcx1FSxlaT+DOzGztD4w6xjOdDAAAAMohB4izurU/uJTSDlMegTuzJHCP50YLAAAA5ZADxJM30WoCd2bJBTDSzsayGy0AAACUQ2vZePImWk3gzizpqxXnKKWdBQAAACaj8G4s8iZaTeDOTGztD+qL35KjG8VNFgAAAMpz4JxHWdvaH1xMaH8pjMCdWTG9J57AHQAAAMojD4gnd6K1BO7Miuk98fRtAwAAgPII3OMJ3GktgTuz4sIXp7ezsfwgpR0GAAAApkIBXjyFnrSWwJ2p29ofXKqqatWRjWI0GwAAAAq0s7H8sKqqI+c+ynpC+0phBO7MglHGeEazAQAAoFwK8SJt7Q90V6CVBO7MggtePDdWAAAAKJdCvHjyJ1pJ4M4sqHCPc7yzsezGCgAAAOVSiBdP4E4rCdyZBX204gjbAQAAoGA7G8sPqqrq+Q5EUfBJKwncmSr9s8ZiFBsAAACQD8RZ2tofCN1pHYE70yZwj+eGCgAAAJgBH08OResI3Jk2I4uRdjaWBe4AAACAfCCeHIrWEbgzbUYW4xyltLMAAADAbOxsLNcV7scObxQ5FK0jcGdqQt+sJUc0itFrAAAA4IScIM7q1v7gUko7TP4E7kyTaTzx3EgBAACAE/q4x1PlTqsI3JkmF7h4bqQAAADACYV58RSA0ioCd6ZJ4B6nt7Ox/CClHQYAAABmZ2djWeAeTx5FqwjcmYqt/cHFum+WoxnFTRQAAAB41oEjEmUt5FLQCgJ3psVoYjztZAAAAIBnKdCLJ5eiNQTuTIsLWzw3UAAAAOBZCvTi6eNOawjcmRYXtkg7G8tuoAAAAMCzFOjFUwhKawjcmZZ1RzKKfmwAAADAl+xsLD+squrIkYkil6I1BO5MbGt/YBQxntFqAAAA4Cxyg0jyKdpC4M40uKDFc+MEAAAAzqINbTz5FK0gcGca9G+P58YJAAAAnEWhXjz5FK0gcGcajCDGOQr92AAAAAC+ZGdj+UFVVT1HJop8ilYQuDORrf1BPXq45ChGMUoNAAAAnEd+EGcp5FTQKIE7k3Ihi6edDAAAAHAe+UE8Ve40TuDOpFzI4hmhBgAAAM4jP4inMJTGCdyZlMA9Ti/0YQMAAAA4087Gcl3hfuwIRZFT0TiBO2Pb2h9crKpq1RGMYjoYAAAAMCpV7nFWt/YHl1LaYfIjcGcSRg3juVECAAAAo1K4F09eRaME7kzCBSyewB0AAAAYlRwhnj7uNErgziRcwCKF/msAAAAA59rZWBa4x1MgSqME7kxi3dGLcpDQvgIAAADtIE+IsxbWHYRGCNwZy9b+wGhhPKPSAAAAQCyz5ePJrWiMwJ1xuXDFE7gDAAAAseQJ8bRBpjECd8blwhXPiDQAAAAQS+AeT6EojRG4My4XrjhHOxvLD1PaYQAAAKB5IU84ciqiWHeQxgjciba1P6ir25ccuShGowEAAIBxmTUfyfqDNEXgzji0k4nnxggAAACMSyFfPPkVjRC4Mw4jhPHcGAEAAIBxyRXiya9ohMCdcbhgxentbCw/SGmHAQAAgPYIuULPKYkiv6IRAneibO0PLlZVteqoRdFOBgAAAJiUfCHOUliHEOZK4E4so4PxTPsCAAAAJiVfiCdwZ+4E7sQSuMdzQwQAAAAmJV+IJ8di7gTuxDIyGGlnY9mULwAAAGAiIV84dhSjCNyZO4E7sdYdsSgHCe0rAAAA0G6K+uKsbu0PLqW0w6RP4M7ItvYHRgXjme4FAAAATIucIZ5uDcyVwJ0YLlDx3AgBAACAaZEzxFNAylwJ3InhAhXPVC8AAABgKnY2lgXu8eRZzJXAnRguUHGOdjaWH6a0wwAAAEDrWS8uztrW/uBiSjtM2gTujCQsMLHkaEUx6gwAAABMm9n08bRJZm4E7oxKdXs8N0AAAABg2hT4xZNrMTcCd0blwhTPDRAAAACYNnlDPLkWcyNwZ1Sm3sTp7WwsP0hphwEAAID2C+vFHTlVUdYT2lcSJ3DnXGFhiTVHKop2MgAAAMCsyB0ibe0PVLkzFwJ3RuGCFM/0LgAAAGBW5A7xdG9gLgTujMIFKZ4bHwAAADArcod4CkqZC4E7o3BBirSzsWxqFwAAADATYd24nqMbRb7FXAjcGYWFJeIcpLSzAAAAQJIU+8VZ2tof6OLAzAnceSELSozFtC4AAABg1uQP8QTuzJzAnfO4EMUzwgwAAADMmsA9nsJSZk7gznlciOK54QEAAAAzFdaPO3aUo8i5mDmBO+dxIYpztLOx/DClHQYAAACSZZZ9nNWt/cGllHaY9AjcOVO4AC05QlHc6AAAAIB5Mcs+nvbJzJTAnRdR3R7PjQ4AAACYFzlEPHkXMyVw50VcgOK50QEAAABzsbOxLIeIJ+9ipgTuvIgpNnGOdzaWH6S0wwAAAEDyjpzCKGsJ7SsJErjzXFv7g4suQNGMKgMAAADzJo+ItLU/UOXOzAjcOYsLTzw3OAAAAGDe5BHx5F7MjMCds2gnE+9+ajsMAAAAJE/gHk/gzswI3DmLC08kC5UAAAAA87azsfywqqqeAx9lPaF9JTECd87iwhPnIKWdBQAAALKiCDDS1v5AdwdmQuDOl1g4YixubAAAAEBT5BLx5F/MhMCd5zHCF0//dgAAAKApAvd4AndmQuDO87jgxHNjAwAAABqxs7H8oKqqY0c/ivyLmRC48zwuOHGOwgIlAAAAAE1RDBhnaWt/cCmlHSYNAneeEi40S45KFO1kAAAAgKYJ3OMpOmXqBO48y4UmnhsaAAAA0DT5RDw5GFMncOdZLjTx3NAAAACARu1sLJuBH08OxtQJ3HnWZUckynFYmAQAAACgaQfOQJTVrf3BxYT2lwQI3PlCuMCsOSJRVLcDAAAAbSGniKfKnakSuHOaC0w8NzIAAACgLeQU8eRhTJXAndO0k4mnPxoAAADQCjsbywL3eAJ3pkrgzmkuMJHcyAAAAICWOXJComivzFQJ3Dlt3dGIYiESAAAAoG0UB0ba2h8oQmVqBO484cIyFjcwAAAAoG3kFfHkYkyNwJ0T+rfH078dAAAAaBuBezyBO1MjcOeEC0s8NzAAAACgVXY2lh9WVdVzVqJos8zUCNw5ocI9zlG4gQEAAAC0jSLBSFv7A9kYUyFwp76gXKqqatWRiKKdDAAAANBWAvd4uj8wFQJ3KheUsbhxAQAAAG0lt4gnH2MqBO5U2smMxY0LAAAAaKWdjeUHVVUdOztRBO5MhcCdygUl2nG4cQEAAAC0lWLBOEuh7TJMROBeuK39wcWqqtZKPw6R3LAAAACAtpNfxFOUysQE7mgnE88NCwAAAGi7+85QNIE7ExO440ISzw0LAAAAaLWdjWUFg/EUpjIxgTsC90huWAAAAEAiDpyoKGuh/TKMTeDOevFHII4bFQAAAJAKRYPxFKcyEYF7wbb2B6bJxHOjAgAAAFIhx4gncGciAveyuYDE078dAAAASIUcI54CVSYicC+bwD2ekWEAAAAgCTsbyw+rqjpytqJov8xEBO5lM2IXpxduVAAAAACpUDwYaWt/oEiVsQncC7W1P7hUVdVq6cchkhsUAAAAkBp5RjyBO2MTuJfLhSOeGxQAAACQGn3c48nNGJvAvVzaycRzgwIAAACSsrOx/KBuk+usRZGbMTaBe7mM1MU53tlYFrgDAAAAKTJrP87S1v5A6M5YBO4F2tofXKyqaq304xDJjQkAAABIlVwjnmJVxiJwL5MRuniq2wEAAIBUyTXiCdwZi8C9TC4Y8YwEAwAAAEkKbXKPnb0oClYZi8C9TAL3SDsbywJ3AAAAIGWyjTirW/uDSyntMO0gcC/TeukHINJBUnsLAAAA8GUC93iKVokmcC+MFZbHos8ZAAAAkDr5RjyBO9EE7uVxoYhnBBgAAABImna5Y1G4SjSBe3kE7vHckAAAAIAcaJsbZ21rf3AxpR2meQL38hiZi9Pb2Vh+mNIOAwAAAJxBUWE8xatEEbgXJKysvFr6cYjkRgQAAADkQs4RT+BOFIF7WVwg4rkRAQAAALmwcGo83SKIInAviwtEPDciAAAAIAuhbe6RsxllPaF9pQUE7mVR4R7neGdjWeAOAAAA5MRs/khb+wOZGiMTuBcirKi8VvpxiOQGBAAAAORG3hFP4M7IBO7l0E4mnup2AAAAIDfyjngCd0YmcC+HC0M8I74AAABAVnY2lh9UVdVzVqMoZGVkAvdyCNwj7WwsC9wBAACAHMk84ixt7Q+E7oxE4F4OKyrHOUhpZwEAAAAiaCsTTzErIxG4F8AI3FjceAAAAIBcqXCPJ19jJAL3MhiBi+fGAwAAAGRpZ2O5LjQ8dnajyNcYicC9DC4I8QTuAAAAQM5kH3FWt/YHl1LaYZohcC+DKS9xejsbyw9T2mEAAACASNrpxlPUyrkE7pkLI2+rpR+HSEZ4AQAAgNzJP+IpauVcAvf8uRDEc8MBAAAAsrazsSz/iKfCnXMJ3PPnQhDPlCoAAACgBAfOcpS1rf3BxYT2lwYI3PMncI9zHFbqBgAAAMidKvd4sjZeSOCev7XSD0AkNxoAAACgFIoO42nfzAsJ3DO2tT8w4hbPjQYAAAAohcLDePI2XkjgnjcXgHhuNAAAAEARdjaWH1ZVdeRsR1lPaF9pgMA9bwL3SFboBgAAAAojC4mkqwQvInDPm55ScazMDQAAAJRGe914AnfOJHDP1Nb+oA7bl0o/DpHcYAAAAIDSqHCPp8iVMwnc82WkLZ4bDAAAAFCUnY3lB1VV9Zz1KHI3ziRwz5eRtngCdwAAAKBEMpE4S6G7BHyJwD1fRtri9MLK3AAAAACl0WY3nuyN5xK4Z2hrf3CpqqrV0o9DJCO5AAAAQKnkIvFUuPNcAvc8+cHHM5ILAAAAFGlnY7nORY6d/Sgq3HkugXue/ODjGckFAAAASiYbibMaukzAUwTueRK4xzkOI7kAAAAApZKNxJPB8SUC9zytlX4AIrmhAAAAAKVT4R5PW2e+ROCema39gZG1eG4oAAAAQNF2NpblI/HkcHzJSw5JdvzQ47mhcK5Ot5/q9+T+4d7KZgv2o3Gdbr+uPNgt9OM/PNxbudqC/ZhIp9u/UVXVjYQ/Aum4fbi3cjvF81X4tS7G6fv6g7BVh3srnguhhTrdfv08O86zzIPDvRXPDhDnoKqqdcdsZGtb+4OLOxvLDxPZX+ZA4J4fgXskI7iMyANHwjrd/sU6QCu05dZxRveGS36LzEnKzwYX/U5G8txj1On2T/7jUT1YGb4LD0MLwnoQ28s0zFl4jtuuqmppjD95vdPt7x7urWgjCqO751kiWv2+dTexfWaGBO750TsqzlFKOwvECy9p90oO271kAkQ7uWc8FTh0uv3jEL7fOxXCP3B4YaY2xwzbT2yaIQdRvDvEuyxw5zSBe0a29geXJ3wQKZHqdshY4WF7JWwHmLqlEMJ/EcR3uv3eqRD+nusuTE+n278UAvNJXO90+9sGx2BkcpJ4uk3wFIF7XvzA47mRQKaE7dWbQh+AuVgN2xvVb6rg74Z70F1taGAi47aSeda2KncYTd2LfGt/cFTwe9Q4tODhKYsOR1a0k4knjIJ8ldqzvQphe5ILPgJkoA4Hr1dV9V5VVR91uv379YKPYUFbYEShuv36lI7X9fDvA0YjK4m0tT9QBMsXBO558eOO09vZWDatEDLU6fZvn1QaFkjYDtAu9eDv96qq+stOt/+gXsBR8Acj2Z7yYZr2vw9yphtAPAPrfEHgnomt/cGlMJWV0bmBQIZC2D6taqjU3BG2A7Ra/bz+VlVVf3Wq8v2iUwZPm3J1+wlV7jA6eUk8RbB8QeCeDyNp8UyRgswI21f0JgVIx0nle9125m6n27/q3MEXZlVAoModRhC6AfQcqygCd74gcM+HH3Y8I7aQkU63vy1sByBRdRu074eWM6reKVqn278ywwUIVbnD6BQpxlna2h8ohuUJgXs+BO5xjnc2lt08IBOdbr8Om28Vej4PhO0A2VgNVe96vVOyWVehq3KH0ShSjCdw5wmBez7WSj8AkYTtkIkQtr9X6Pk8qqpKCwKA/Cyd6vV+W/BOKWZc3X5ClTuMRuAeTzEsTwjcM7C1P/CDjufGARkQtldXDvdWHrZgXwCYneuCdwqyO6ePqsodzhG6Ahw7TlHkczwhcM+DH3Q8gTskLiwuJ2wHoBSCd7IWCinmNXNblTuMRneAOKtb+wPXFgTumRC4R9rZWBa4Q8I63X7dG+92oeewrjK5IWwHKNZJ8L5rcVUyM++qc2vgwPlkJ/H0cUfgngk/5jhHKe0s8LQQtt8L/W1Lcxwq21WaAPBWWFxVawySF6rbV+f8OTYNWsG5BO7xFMUicE/d1v7gcqGh0yTcMCBRwnZhOwBPqe+Htzrd/oOw2CQkJ4TeTQwc1b+fTd8YOJvuAGNxP0bgngE/5HhuGJCgwsP22lVhOwBnqCuDf9Dp9u/qS02CNhuobj+hyh3Od+AYRVnb2h+4rhRO4J4+7WTiCawgMeFF6HbBYfubh3srBgsBOM8b9bNup9tXtUsSwjNek99XVe5wPhlKPFld4QTu6VPhHqe3s7H8IKUdhtKFF7E6bF4r9FDUYXupC8QCEK8OEL/X6fbvqXYnAZstKKhQ5Q4vpvAnnqyucAL3hG3tDy41OPUuVW4UkBBhu7AdgLGtq3anzVpQ3X5ClTu8mBwlnsC9cAL3tJmiEs9UKEiEsL26I2wHYEKq3Wmz7Ra1C1TlDmfY2Vh+WFXVkeMTZT2hfWUGBO5pM2IWz8gspON24WH7jRbsBwB5OKl2v+p80gZhAOitFp0MVe7wYooXI23tD2R2BRO4p02Fe5zjnY1lNwlIQKfbvx0WfiuRsB2AWagDxe93uv1dR5cW2G7hSVDlDmdTvBhPZlcwgXvaTFGJI2yHBISw/Xqh5+pI2A7AjL3V6fbvazFDU8J3r43Peqrc4WwC93gq3AsmcE+UqSljcYOAlis9bPdQBsCcrIUWM+47NKHNsyxUucNz7GwsP6iqqufYRHGPLZjAPV1+uPEE7tBinW5/u/Sw/XBv5WEL9gWAMtTVvD/odPsqepmbMMjT5raB9e/CWgfwfLoGxFna2h9oK1MogXu6/Ggj7WwsC9yhpTrdft1G5Vah56cnbAegQd8LM8xgHtrYu/1ZKewjNEGmEk92VyiBe7pUuMc5SmlnoSQhbH+v0JN+XFdRCdsBaNj1Trd/TysNZilUt6ewDtlqeD4FniZwjye7K5TAPUFhSspS6cchkhsDtJCw/Ullu6mZALRBHYQK3ZmllCrHVbnDM3Y2lu+HdxhGJ3AvlMA9TaakxBO4Q8t0uv2rwnZhOwCtUi+m+qDT7XvfYKrCc18K1e0nVLnD83l/ibO6tT+4lNIOMx0C9zQZIYvnpgAtEl7kS+4Xe0PYDkBLLYVKd6E707Sb4NFU5Q5fppgxnvtpgQTuaRK4x+ntbCw/SGmHIWfhBf5ewa2x3jzcW7nbgv0AgLMI3ZmaUCm+muARVeUOXyZwjyfDK5DAPTFb+4OLiT6sNMkNAVpC2P4kbC+5sh+AdAjdmZaUK8VVucMpOxvL8pV4AvcCCdzT44caT9sGaAFhe/VdYTsAiRG6M5FOt7+ZeMGYKnf4siPHJMpaQvvKlAjc0yNwj2cEFhrW6fYvhp7tpYbtdw73VlLsXQoAQnfGEp7/cqgQV+UOT5OxRNraH8jyCiNwT48H3Ug7G8sq3KFB4WXrXsEj+3XYrjIKgJQJ3RnHZibFFqrc4WkC93gC98II3NOzXvoBiHSQ1N5CZoTtwnYAsiF0Z2ThGXAzoyOmyh1+Q+AeT+BeGIF7QkxBGYsbATRE2P6kt2FOL5oAcBK6Xyr+SHCeXKrbT9RV7lfbsSvQrJ2N5YdVVfWchiiKZwsjcE+LwD2ewB2ac7vwsP3K4d7KwxbsCwBMUx2i3g0D6/AlYUDmVoZHRiEF/IasJdLW/sAMsYII3NPixxlP/3ZoQKfbr8P2Nwo99sJ2AHK3JmzhBXJtv7Le6fYVwcHn3APiuX4UROCeFj/OOEdhqhMwRyFsv17oMT8WtgNQiLVwz4cvhOr2nJ8D9XKHzwnc48n0CiJwT0SYepJTD7x5cAOAORO2C9sBKMr1TrcvgOS03L8Pqtzh8z7uD8L7D6Nz7SiIwD0d2snE004G5ii8cJcetrvuAFCaWxaTpPr8WfByIc+CBpngc4oc4yxt7Q8sOl4IgXs6jITFc/GHOel0+zcyXRxrFMJ2AEp3O4StlG23kE+vyh0+J3OJ59pRiJdKPwAJ8aOM0wtTnIAZC2H7ewUf501h+3wc7q1sqyqDrL0dfudT0+n2Lz5npujJc3X939f//3Vfq4kthdBda7VChQC6pN/Stnd0ELiPob5uWP+kAAL3BGztD+oXgdXSj0Mk4RfMgbC9evNwb8UDE0BLhfD32UDgSwHBqWD+Svj7Zc/f0dZChfONxPab6ShtQHw9DDAJHCnWzsby/a39gS9AHAN1hRC4p8EPMp4HH5ixUMkkbAcgeaeC+S+eITvd/qXwHF5vV0MVNy9WL6J6z/2xLAVWt59Q5Q5VdWCmWJTVuqh2Z2PZbLDM6eGeBjfxeAJ3mKHQp/Vuwcf4bWECQN4O91Ye1Nf6w72VG4d7K3UF/B9VVfVu3brQqX+h3TBYQTlKfSbSyx1kL+Nw3SiAwD0NFiCKVE9tSmqHISEhbL9XcKXfnWn3GAag/er1Og73Vup1Oy6F8P1OWDibpy0VPihflNBesOT2S54JKZ3APZ7AvQAC9zSYnhPnIKWdhZQI25+E7XrTAhQuhO8nle9vVlV1VPoxecZap9sXRJah9PO8Hp6PoUg7G8sC93gC9wII3Ftua3/ghxjPBR9mIEwPF7YDwCmh7UwduP1xqHrnc7cEkXlT3f6FzZbsBzTFoHOctZR2lvEI3NtP4B5P4A5T1un2L4bp4aWG7UdepgB4kcO9lXthYPY7gvcvWO8kU+HZcLf04xBct24BhZPBRFJcmz+Be/upComnfztMUXihulfwSHwdtl853FuxkjwA5wqLrZ4E76W3OqxbyxiwztNmwYUYz1N6ax3KJnCPJ3DPnMC9/fwI4xztbCwLxWBKhO3CdgDGE4L3K6HVTMnT7bdV/+YlPB8aSHmaKndKJnCPJ+vLnMC9xbb2B5dVDURzoYcpEbZXx1VVXRW2AzCJ0Gqmfq7/bri3lGZJ65HsqG5/PlXuFCkUPfac/SjrCe0rYxC4t5t2MvG0k4Hp2S08bK8r2x+0YF8AyMDh3kp9X60rYD8o8Hy+0en2VfNlQHX7C6lyp2SKHyOFIlsyJXBvNw+l8VzkYQo63X69yNn1Qo/lSdhuAA+AqapnTR3urVytquofF1jtbgHVPOyqbn8hVe6UShYTT+aXMYF7u/nxxentbCyrRoUJFR62V8J2AGbtcG9wvfjKAAAgAElEQVTlbpjNWtKiqqudbv9GC/aDMYXq7ZKfEUehyp1SCdzjyfwyJnBvqa39QT1Vb7X04xBJQAYTErZXbwrbAZiHU4uqvl3QAd8NLUlIk+rt0ThOFCcUP5a4TskkBO4ZE7i3lx9ePCOqMIFOt78pbF8x3R2AuTrcW9kuqMXMkv7faVLdHkWVO6WSycRZ2tofuFZkSuDeXgL3eC7uMKYwxft7BR8/YTsAjQktZurn/14BZ2FTlXuSPCfFUeVOiWQy8WR/mRK4t5fViiPtbCxrAwFjCGH7ewUfu3eF7QA0LbQ0q98BjjI/GarcE9Pp9utAaL304xBJlTslksnEE7hnSuDeXh5o4pS04BRMjbC9unO4t+KlH4BWONxbeRhevj/I/Iyock+Lau3xWCSYouxsLKtwjydwz5TAvYW29gd+cPFc2CFSqFYqPWz3IgRAq9Sh++HeytX6PpXxmVHlngjV7RMxsESJFEPGWd3aH7hOZEjg3k7aycQTuEOETrdfX2fuFnzMPhC2A9Bm4T6Vc+gucE/DbukHYAIGliiRbCaeotsMCdzbyY8tnl5hMKIQtt8LLwElOjLFF4AUZB66L4XWdrRUOD9rzs9EVLlTGoF7PBlghgTu7eTHFudoZ2P5YUo7DE0Rtj8J26+EHrkA0HohdM+1p7ve4O3m/ExOlTulUQwZT5eLDAncW2Zrf3Cp4CBsXEZQYQSdbv+SsF3YDkCSboT7WG5WQ49wWiZUt686L1Ohyp1ihGLIHO9Xs2SdjAwJ3NvHA2c8I6hwjvCQf7fgsP24qqqrwnYAUhTuX/V7Qi/DE6j6t51Ut0+PKndKoygy0tb+QBaYGYF7+/iRxXMxhxcIYfu9gntwHofK9gct2BcAGEsI3a+G+1pO3giz8GiJTre/rbp96lS5UxIZTTxZYGYE7u2jd1Oc3s7GshANziZs/zxsNxMGgOSF+1mOC42q/m2JEAo7H9Onyp2SePeKJ3DPjMC9Rbb2BxetAh/NhRxebK3w68pVYTsAOTncW6lbxL2d2ce6ofq3NTatKTYzqtwpQiiKzLEF2iwpvs2MwL1djGjFM1UJOMubh3srrhEAZOdwb6Vu+XGQ0edaCu1yaJDq9plT5U5JvIfFWdraHwjdMyJwb5HhsLo8HD75u230zUUceJ46bL/tyACQsRuZ9XPPsVVOarZVt8+cKneKUGc1cq3oTRFuRgTuLTIcDq8Mh8PKNvr2vf95WasI4FnCdgCyFxYDz6ladt3iqc0Jx/6tUj//HJnNQRGGw+F92Vb0JnDPiMC9TYbVejV88nfbaFtO02iB6bgjbAegFOGe90FGH1eVe3O2S/3gDXCsyd7un/72/WpYHcu2ojYtZTIicG+Jt/7tj66YPhO9aScDnFaH7V7UASjNZkatZdzHGxCq268X98Gbs9rp9n3XyZ62MtHb6lv/9kdmemVC4N4S+rePtWknA5wQtgNQpNBaZjeTz14HkSr85i+X709KVLmTPYH7WJu2MpkQuLfEsBpeGVb+ivxLhTtQOxC2A1Cyw72VOrzrZXII3NPnqNPt1+HOG8V84PZQ5U72htXwvpQr+i+BeyYE7m1Rj2LpVxWzHf2rP3v9YelfG6A6svAUADyRS3jnvj5fKq2b49iTtX/1Z6/fk11Fb2Z5ZULg3gJ//q8/vDQcVkumzkRt2skAddh+5XBvxeAbAMU73FupZ38eZHAcVkNPcWYsVLevO86NUeVO9obD6kB+FbWt/fm//vCiX0b6BO4tUPdoclGJ3rSTgbIJ2wHgy3KpmFXlPh8qrJvnHJA1fdzH2rSVyYDAvQ2GwyulX03G2ATuUK7jetq8sB0AnpZRlbuwYcY63f5V1e2toMqdvNXZjfwqdnMPzMBLpR+ANhjq0RTr+N90f+dBWrsMTMlxqGzXVgoAnq+umP1B4sfGIp6zt5v7B0xI/Zu9XfpBIE/aAY9FRpgBFe4N+7O9/3JxWFVr1oWI2lS3Q5mE7QBwjlyq3EN/cWZzbOuK6lXHtjVUuZOtf9P9nYfDqjqSY0VtZh9lQIV70/RmGofAHcp0VdhetvAy6oW0YId7K56bYDS3M2gXcsVz/8zoG94+qtzJ1+dr8K05w6P7s3f/y5X/463fcQ9MmMC9YdrJjEXgBuX5bqjYo2yX9JsFON/h3srtTrdftwxZSvhwGWCbgU63v6m6vZXqKve6uORu6QeC/Aw/D9zfcmqjGHROnMC9YUOLIUT7d98VukGBLjnpABDlduIBhwHWKet0+xdVt7daPRgicCc7w+FQ0WQ8WWHi9HBv2rBaL705VeSWfD9KYCxvdbp9M4IAYHTJL4rp3j91m4nPesjdurULyNG/++7Kg2pY9eRZUZv7X+IE7g3603/ZvzIcPpleYxt9U90O5Uo+OACAeTncW3lQVdVR4gdc4DAlobp9M4sPkzczEMhSneXIvaK2pT/9lwadUyZwb9Cwqi4btIveTEWCcq2HRTMBgNGkvgijsGF6VLenQZU7WaqzHHlW9OZakDCBe5Pq/u2G7WI3Fe5Qtt1QoQUAnC/1ftAC9ynodPv1Wji3kv8g5VDlTn7qLEeeFbsJ3BMmcG/QcFhpKRO3Hf37f/a7D4v9wgBVqMzSWgYARpBBWxkLp06HADctqtzJzr//Z797fzisjuVaUZtB54QJ3BvyP/3vf3ep7snkAhK1aScD1K57CQGAkSU9QzRUZzPZ8bvu+CXHIAnZ0cc9eluts0O/hDQJ3Buiun2sTTsZ4IQqdwAYTeptZYQNkxHcpkmVO9mpiyjlWtGb60CiBO5N0b99nE3gDpxY63T7m44GALzY4d5K6s/QptSPqdPtX1bdnjSDJeRFH/dxNvfARAncGzKsqstWXI7ajv/DP/+9B0V+WYCzbJtmDgAjOUj4MFksfXxmBKZNlTtZ+Q///PfuybaiN9eARAncG3Djnb+9OBxWawbqojbV7cCzLKAKAKNJ+Vla2DCGENRadDZ9qtzJynBYHci3ora1OkP0K0iPwL0JdQ8mw3Sxm8AdeJ43VP4AwLnuO0TFEdTmYT20BoI81NmOfCt2876boJdKPwBNGOrBNA4vCcBZbltQDQBeKOVnaVXakQqvbj8OsyBzUq9bdCOzz0ShhsOhbCfe5QwWQC+OCvcG1KsMmxYTt935X35fhTtwltVOt6+KCwDOcLi3Yi2kstz22bNy3bpF5KJuF1x6vjXGpsI9QQL3JgyrdVNioraUF3kC5uOWFxEAeKFkn6k73b7+tSPqdPt1JfRqEjs7fR9UVfUwtw8VKC4hC//nX/z+w2pYHcm5ojYzvRIkcJ+z//F//ZsrrhXRm+p2YBQlV3MBwHlSDiK15BxdycHsZsZtBlW5k40645FzxW11lugXkBaB+5wNh9Vl02GiNz2+gFHUi0pddaQA4Lk8U2eu8Or2d0PrpJxDaVXuZKHOeORc0ZvAPTEC93kbDq+UfpUYY1PhDoxq17RzAKA04flnt9ATf3wqjM55NoQqd/JQZzxyrtjNTK/ECNznTIV79Hb0H299O9c+fMD0rar+AYDnSrmIRch4vrqdylLbd3JGdg/3Vk7eGXM/Bp5zSd5/vPXtB8Nh1ZN3RW0q3BMjcJ+jP7n1w0vDYbXqQhG1mfoKxHqr0+2rAACAfAjcXyBUt2+2dgdnq3e4t/IkhO50+yUEUqrcycJwWN2Td0VtS39y64fecRMicJ+nekSq9JUe4jftZIBxlDqlGgAoT8nV7acrvktpK6jKnfTVxZXyrthNlXtCBO5zNKyGl4eVvyL/ErgD41gPC4cBAGSr8Or2g8O9ldun/u9Sqj9VuZO8OuuRjkX/pcI9IQL3Oap7LpkGE7Ud/6d/8QcPivmCANNmAVUA+A2tGvO0q7r9CyWFUarcSdp/+hd/cL/OfOReUZsK94QI3Ofkn/zFX18cDqs1F4ioTXU7MIklrWUA4HOnFpUkE6HK+Xqh57Oubn/2fbGkQgtV7iRPH/fobfWf/MVf+90nQuA+L8Pqsn5T0ZvAHZjU9UIW0AIAylNylfPzWgeuN7AfTdI+kbTp4z7O5t02EQL3ORkOh1eGw2Fli9pMewWmQZU7AMXTZi0vhVe33zncW3mq9Wih3+9Nv2tSNhwO78nIojd93BMhcJ8T/dvjt//rf1tV4Q5Mw1qn2y91MTEAOOElPS+3S/qwpxyfsUhsid/vpYIXzCUDdeZTeu41xqbCPREC9/kpbXrbpA7S3n2gZbb1uQQAchDa5ZX6frl7xnoEpT7nqXIndbKfOGvXbvb85hMgcJ+Dazd7qkniqW4HpskCqgBALkrt3d57wfNcqYG7KndSJ/uJp8o9AQL3+fBjiKd/OzBtb1hAFYCCpVwR92CEf6YIhVe3b59R3V4V3jJJlTspk/3EU9SbAIH7fAh44hnlBGah1H6nAJDyC7rA/TdKnbF3dLi38qLnuJIDZ1XupEz2E0/GmACB+3wYfYrTe/+d1bMqFwAmsdrp9kudhg0AJKzT7d+o+/cWeg7PC5RLXzNNlTtJCtnPkbMXpfTrXRIE7jN27Wav7iW3mvWHnD4jnMAs3bKAKgAFUgSUvlKLBg4O91bOfEcUND+hyp2UaSsT6drNnir3lhO4z54fQTyBO7TPcWbnRGsZAEqTcihZfBgTqttLLeQ6L0g2mPQ5Ve6kSgYUT9bYcgL32XPzj1f8AzW0zJ2qqq5mdlLWO91+bp8JAF4k2SnoL1gosySlVrffOdxbOe/90MzFz6lyJ1UC93iyxpYTuM+eUac4x++/sypwh/aoX3JuhGm8dzI7L7uqgAAogVZqaQvrz5RY3X484kCD7/dvqHInOe+/s1ovjN1z5qLIGltO4D5D1272Lha8qM24jGxCezwJ20/tzXZmrWVWC64WA6AsKVfCHbRgHxoTwtNSq5Z3D/dWHozwz6n0/I26yv3GqP8wtIjCyzhL1272XPtaTOA+W7788VxkoR2eDdur8MKzm9n5eavT7btWA5A797p0bYYQtTTHEc+dKrqfpq0MKVJ8Gc+9vcUE7rNlikc8F1lo3pfC9hOHeyvbGU73y20QAQCelfJ7SbEFOYVXt29G9O5Pdn2CGVkNi+xCSmRB8WSOLSZwny1f/kjvv7PqIgvNOjNsPyW3F791LyUAZC7lQLLkBVO3C61u7x3urdwe5R+0PsGZtE0kKWEtv5zal86DzLHFBO6zZaQ9TtH9GaEFRgnb6yr3uxn+Xi2gCkCWOt1+6i/kRRbkhCD5rRbsShNiijsE7s+nyp0UaTEcZ/XazZ5rYEsJ3GfE4gVjcXGF5owUtp+S2wP8ktYyAGTqauIfq9QK91IrlA9CcceovHefTZU7qdHxIJ5rYEsJ3GfH1I54Lq7QjNiw/WQB1XczO1/XM6gCBIBnJX1vO9xbKa4oJ1S3X2/BrjQhNiQ2Q/FsqtxJjUwonvfXlnqp9AMwQ7708VxcYf6iw/ZTtkOle069RXdVCbTabfcKgNGF4HYt4UN21IJ9aEKps+7q59LY+7z37hfbDs9P0Hr1mn7XbvacqDiugS0lcJ8dgU2c3vvvrJa8IBI0YZKwva44e9jp9uuH+O9ldPbWOt3+5uHeivYyLRRmVjwo/TgAREi9nUyJ1e11ePJGC3alCeO0QFHh/mJPqtxHXYQWWuDAeohR1q7d7F2Up7WPljIzEBYtWM3ug82WikWYr4nC9hMhmM6t+mw7VAQCQOpSbydR4hpPpfbdfjsMrMdKeQbHvOjlTkqs7RdPwW8LCdxnw5SOeAJ3mJ/vTiNsP2Uzs3NnAVUAkpdBO5mqtOAlVLeXWNl5PM6zlwKJkenlTkpkQ/FkkC0kcJ8No0vxjGLCfLw57XYpodfmB5mdvzcsoApA4pIfEB+jn3fqSq1E3q5bFY7xvxO4j06VO6kQuMfz3tpCAvfZ8GWPc/z+O6sCd5i9N2fYvzG3KvfKAlMAJC71itaiFkztdPtXC61u701QDKLQbXSq3ElC6EVe6oLZ49LzvoUE7lNWL1agj1w0I5gwe7MM208Ws3w7s/O4GhaFBYCkhGBtKfGzVto7Qqnt7CZ51rJgahyBO6lQkBnp2s2ewt+WEbhPn1H2eC6mMFszDdtPqV8Ue5mdy1v6gwKQoByCtWIC9zBAstqCXZm3gwmfUQVMcda1TCQRijLjySJbRuA+fW5g8VxMYXYmfZEZWei9mWNFuNYyACQjo4U3S3pHKLZ3+4T/exXu8czeJAUyoniyyJYRuE+fL3mk999ZdTGFTIRw/yCz87ke+qoCQApyCNSOxlxEMzmdbn+z0Or2D6awKK5WrvFUudN677+z+iDDmdOz5nfdMgL36bNYQZzcgjkgzwVUdzvdvioqAFoto+r2uy3Yh5kLzxalVhxP9Lyo5d9EVLmTAq2H4yxdu9nTVqZFBO5T5Ms9FhdRyMzh3kr9u76T2cda9XICQAJyuVcVEbiH0Dn1xW3H8W5YcH8SAvfxqXInBTohxJNJtojAfbrctOK5iEKe6hfI48w+2Vudbt9DDACtlFF1+3EYvM9aqG7PcVbgeY6nNDDk3XsyCkloO1lRPNfFFhG4T5cvdzwXUchQ6Lu6m+FHy/EzAZCHXBb5Vt2et90p9efX6m8yqtxptfffWb2fYQHXrPlNt4jAfbpUPsbpvf/OahGLIUGJDvdWtjNc7KZ+ObnRgv0AgC9ktvBm9oF76D9+qwW7Mm+98Hw4Dd69J6fKnbbTgjjO6rWbPe22WkLgPiXhS13i6vKTUN0O+csxnLaAKgCtkdnCm3U7mRIq3EsNOqf5uYVKk1PlTtvJjOIZjGwJgfv0+FLHc/GEzB3urdS/84PMPuWS1jIAtMjtjFqTlFLdfr0FuzJvR4d7K9Nse6TYbTpUudNmMqN4BtFaQuA+Pb7U8UwPgjLkWOV+XUUQAE3rdPtXq6p6I6MTkUsf+hcpNeCc2gKxFrGfKlXutNb776wK3OP5PbeEwH16fKnjHIdFMIDMHe6tPKiq6u0MP6UqdwAaE1rJ5BRQ98LMuGyFoLjE6vaDKZ9brf2my/pEtNmRsxNl7drNnmtkCwjcp2ctlw8yJ0YqoSy7Ga4yvxYWqQOAJtzNqJVMVUh1e6mD9dMOdBW7Tdf10OoI2kh2FM8soBYQuE/BtZs9N/x4qtuhIId7Kw+nOZW4Rba9oAAwb51uv25Lsp7Zgc86cA9tO3I7Z6O4E2Y7TpPqzenTy522ErjHk1G2gMB9OnyZ47loQmHCQlm5TQm0gCoAcxWC21uZHfUPZhDKtk2JgebxjAouVG9Onyp32kp2FE9G2QIC9+nwZY5k8QsoVo5V7m9YbAqAeQiB2N0MD3bWg9cFV7fvhlmO0yYYng1V7rTO+++s1teQnjMTpcT7TesI3KfDCHucg5R2FpiesGDWnQwPaQl9ZwFoUFgkNbe+7VUJi6UW+pzQm+FAyuqM/r2lU+VOWynYjHTtZk9O2TCB+4TClzi3h95Z078dyrad4QKqq6GfLgDMSh22r2V4dLO+f3a6/RuFBsTbs6hu73T7QqTZ8jxLGwnc45mB3TCB++R8ieO5WELBQo/WHKeO31IVBMAsdLr925lOET8Oa7zkrMQAszfD82rB1NlS5U4byZDiySobJnCfnBH2eC6WwG6mvfi0lgFgqkLYfj3To5p77/ZSq9tvzPDfLUSaPVXutMr776w+yHCG9Ky5VjZM4D45X+I4vbDoBVCwMMU4xwVU1zvd/tUW7AcAGcg8bK9yDtxDz/2sBxTOcDDjnvwq3GdPlTttpHAzztK1mz2/4wYJ3CcQvrwWbInjIgk8cbi3cjfTRZR3w0s2AIytgLD9zix6fLfIZqFrfc26oMIM8/lQ5U7byJLiKRBukMB9Mm728SyYCpyWY5X7qpcUACZRQNhe5XyvDAPvOT7jnKceRJn1+5538PlQ5U7bCNzjCdwbJHCfjC9vPBdJ4AvhpezdDI/IW51u3wshAFHqoLaQsP1OWEQ9VyVWtx/PaRClxFkDTSlx0IiWev+dVcWb8WSWDRK4T8aXN86xiyTwHNuZLoJTYt9WAMYUqqLvFRC2V6rbs7Q760GUTrfv/Xu+bmiTSMvk2I50llav3ez5DTdE4D6ZtZR3vgHCduBLQv/WHF+86wVUb7RgPwBouTAr6n4h7xe5V7fvFlrdPo9CA8HRfC2pcqdldEyIZ6CyIQL3MV272fOljefiCDzX4d5K/ZLWy/DoWEAVgBcKg7P3whogJci5uv1SITMUnrU5pwVwteubv03PsrSITCme7LIhAvfx+dLGc3EEXiTHavAlrWUAeJ5T/drfK6gi+u3Mq9tLXDS9d7i3cntOf5ZFPOdPlTut8f47qzKleLLLhgjcx+dLG8nFEXiRw72V+hrxQYYH6bqeowCcdqqFTEnV0PNqO9KIkqvb5/hnCdybocqdNjlyNqJohd0Qgfv4TGeL46IIjCLXChpV7gA80en26yrovyyohcyJ7Tm1HWnKvKq82+TgcG/l7hz3xzt4M1S50yYKOSNpid0MgfsYrt3sXS5wIZxJuSgC5wrTzN/O8Eitdbp9LyoABatnO3W6/fo+d6vAo3AU1mvJUpjJtp7r53uBebfQ8Q7eHFXutIVsKZ7AvQEvFfeJp2NuX9bPhgvVp48Xqs+G1cefPF74Uf3f/fLRYn3ePqv/86PhwjcfD6tvnffvWaiqj19aHP7o5P/+6uLwpcWF4WcXFqpvfmVx+K0LC8PqlcXhLD+KiyIwqt3Qzz23yr/tTrd/N/PetQA8I7Qa2S603ciJ3AedS+zdfie0A5wL7fkad1LlXuJ3nXZpVbb0eFhVv368WD2uqupXjxZ61ZO/Ly4+rp78V098+nhhpPfaCwvDDxcXql9Vn1dHL371wuMn/46vXhiu1tXSX1l8XC0ujLWbrp8NELiPZ+pT2epg/dePF578QOsf52fD6pVHw4XXT/0jr04SPg2r6tXTP/I6xH+exYXqowsLw19+7cLjz15ZHP72VxaHr04piL8/jX8JkL96unmYbv9eZh/2ZAHVqy3YFwBmLFSDboat5Mrcd+cZzM6b6va5UV3dvLrKfTfz1lC03PvvrD68drPXm3dx1kmw/uvHCx/96tHCzz8dLjx+TpA+0T7VGeCjU/Hbrx9fePL340+f/udeXhz2Xl4YLr68OHzlaxeGr48QxJd4j2qcwH08E48Offxosfrlo4UPf/Vo8RefPF5YGX4eqFdNV3TW1fKPhwvfOg4/7BP1D7quiv/aS49/79X4UbXe+++squgERna4t3K70+3fyPDh4I36xTzn4AGgdIL2pxwXUBFb4jotbzcwY0//9uapcqct7s161lhdFPvxo4WPf/HZ4o9/9XjxG6c6S3wrbI2pg/5P6z4Wj34TxtfFs19dfPzzr730+GtfXRz+1rOFs3Vr7PffWVUIO0cC90jXbvYujROKf/J4oW4F89HPPlv85aePF34v/Nevn/M/a40nP+jHC9XPPvu87X891eVrF4YXvvHS49devfD4vN0ULAHjqB/mf5DhkasXVbvUgv0AYIoE7c91I+dq2FAcsNaCXZmn44YGGTw7tYMqd9pg6oF7XcH+i0eLzwbsdWHst1M44/X+/vLRYr09+b/rttKvXnj846+/9Pi1r194/OriwpPCYYH7HAnc4408sl5Xsf/8s8Uf/+LR4oXwY218JGxa6qkuP/vs8wD+OT/kZ/lRA9HqKvBOt38nw563q3XLnMO9FdVBABk41aP9qqD9KR8c7q3cbdH+zEKJ9/KmwlaBezsshbWWSpzZQXtMpaizrmL/+WeLH/3008VHnw0XXkspYD9P3UXjl48Wv10H8IPPK+D/vNPt1/8ra4rNicA93gvbydSV7MefXqhD9oXHw+q3qqp6raWfY2qe/SF/7cLjH/6Dlx9/++u/qXxX4Q6MazPTAONWp9u/7WEHIE2hmv1qCJ70Rv2y43BsshWq23Nb4P08vQYLBrSUaY9NgTtNqlsWX7vZOx7nHfE5IXsWRbHneTys/lFVVd+rt063fxRmXQvfZ2gx2082O18K3OupJw8/vfDRg1++cvw3H79cV32/FsL2ItXh+4e/eqn6q1+88vHg1y/97f/3i1dKPRTAhEIFVa4P9LdbsA8AROh0+1frAdOqqh6Exb2F7c93tYCWEyVWtzfymcMAl9kj7bEaBpygSVGFnb94tFj97ccv//Cvf/ly9fefXPhWCNtLtRbC97/qdPt3/Z5nQ4V7vC969NUtY44/XfxhHTCXMioWo658/9lni3W/+r/sdPsHdbhUL4SYzicA2qCupMq0imy9Dm4KmG4PkKzQLuZKqGa/IvQbybu5Lw5et4YrsLr9oMF3OdXt7bOteISG1feZN160C3U1+08/XTz+6WcXPgtFsVm0i5my+hi+Ua/NEArdzMKeEoF7hGs3e0+q23/22eLHH31y4RdhRMwPdjTrIVw6uTFbaAWIUU9d/X6GR+x2Hea4HgK0Q6fbvxLCvcshYC8tVJ3U0eHeymbaH+HFTi2OW5omK/r1b2+fJ1XuCupo0JlrBdatnj/65MKHv3i0+LqB8pHVx+lWaH16JwTv2kNPQOAeYfDrl/6HXzxaPH48fPJFfDWZHW+X1fAj3gzTcXeNngHnqavAw0yZ3KbuL4UX2BJf3AEa0en26zD9YgjxLoVw/dLpmayM5fi89a4ysVlggPNBw8GLwL2dVLnTmPffWb137WbvqT++7kLxk08ufPjJ44U6aH/d2Rnb9XoL79/bgvfxLAyHwxT3e65CK4MSpw3OSz16tqnCkzbrdPupXizr6b9ZvPyGaf1/1YJdmYU/OtxbObNKg8+F+7Eeg8xa0i3wQoX2D1qwK+Pohd7o03bJc/xc/HEBrWQuhu9oaYH7d5oskqp7DJ/XOoLGvKnKnaZcu9mr7znrzwTtTJ/gfQwq3F9A0D439ejZ1ZOeUYJ34HnqF71Ot/9uVVVvZXiAdgupCpzUJQsUMgdeJkIZ5OUAACAASURBVJqz6rk7Wd8t5EV8u8Cw/d0WzEi+2PCfz9lUudOYXzxa/H8++uTCH6pon7n6/esHKt7jLKa0s/NSVwZ1uv260vA9D/1zc9Ivqg7UtFYAzrIdpqznZt21D4BE3TncW9nN/eSFmXY5Dvq/yHHDvdtPGGxvr9VQqAhzU1+P6xbFH/7qpX+qqn2uToL32+GeyAsI3E8JP9q7YRquHo7NqIP373W6/QdhSjTAF8IMmFyD6e0wVR0AUlEvklpK2NaG4HneGp997NkoCSX+NmhIp9vfDgumXncOGlMf+/vhXHAGgXtw6kerN1w7rIaRs7sesoDTQp/IowwPylJoLQMAKTgqpR1aqOQrLdzpteS55HIL9oEXU+XOzIVOFA9CZ4TSWnu10ZMuFYplz1Z84N7p9i+H9jF+tO30hjYzwHPkek247oEFgATUrUauFrT2UokD4tstOb/aFqRBpSszURdghvX+fqDlcysplj1D0YF7qGr/S+1jWu+kzcw9faKA6vMq93qhlg8yPRiq3AFoszpsv9KChTTnIgyElzYL+ijMKGwD739pUOXO1IXr7/0C189I0Umx7NXSD8SJIgP3Z6raScd66BPlBwxUoco9xwVU1/TDA6ClTsL2+wWdoBLvyW2aSailTDoE7kyFqvZk1cWy3w+LqhZf7V5c4B5ak6hqT5cfMPBEqKzLtRp804weAFqmuLA9VFeut2BX5ukgzCRsC+986VjXGpFJ1QWyVVXdU9WetJNFVYseMC0mcA8jZHfr1iQt2B0m5wcMVCFw72V4JCygCkCblFjZXhVa3d62KuXSBjxSZ5YmY1Mgm5V6ZsJflrweYxGBewhl7xfYey939Q/4nl5xUK6wmFeuN/E3VAkB0AJFhu2hjWVpYe+dNvXmN6M5SarciRYKZG8rkM3S90pdUDX7wD2Esff0fcpWXQX6Xrg4AwU63FupZy8dZPrJtc8CoEmlVrZXBc40O25hEYPZzGlS5c7IQhvNe6GLAXl6IxTLFnVNzzpwD4vOvRdCWfJ2vV4IVzAFxcq1yn01488GQLsVG7aHoq3SCrZ2w8zBNrGeTZpUuTOSU90otJDJ31oI3Yu5NrzUgn2YuhC67hohK87JD/hGoVU4UKz6N9/p9u9ket2/Vc/iadMUbwCyV3Jle1Vghe5xiyv6U5nFeMms+qfUvyGhO2cKA5vvOUJFqYuhf9Dp9t883FvJvktFdoF7CNvvGSEr1hejZkJ3KE5dCX4101lNt720ADAnR/XCmaU+S4cF3koLTjdbWN1ehUAmiVCm0+0rjHjaengnv9emnaIdwnVWv/Zy1W2hLx/urWQ9kzurljLCdoKlELpfdUCgHOFFMdeKtHXXNADm4KjkyvbwPlladXuvhErDWSq0BdEo9HLnSyyOSvBW7msxZhO46/3EM+rQ/fvh4QcoxOHeSj0dupfpp7WAKgCz9EEI21tX6TxHmwWu/+V9aQKn2tnyZXq585QQsGr9zInrOYfuWQTuIWy/Z1SZ53hP6A7FyfU3v6RSCIAZuXO4t3K15LA9BKelLVR+oOXHxEocpInh2ZUnhO2c4UnonmNhWfKB+6mw3U2OswjdoSDhxTGVBbZivRXuewAwLfXiZZ6VywxOSxtgmKpCB2liqXJH2M55roe20FmF7kkH7sJ2IgjdoSw5/95NWwZgGo6rqvpj/bufvFdeKjA4vVNqr/4p2pVFjMR7eMGE7YxoLbf33GQD91MLpLrBMSqhOxTicG/lQVVVb2f6adfDyv4AMK56cdTL2ol8Ybuw98pjrT4mEwZphIijuR6OF4URthMpq57uSQbuwnYm8J4pbVCM3fBCmaNtC6gCMKa6svlyGJwuXqHB6a7zP7HiZ4ZEMsBTGGE7Y8omdE8ucD8Vtq+1YHdI0109kCF/YeG3XCvBl7SWASDSsX7tz1VaEHjsGWIyoYBrPeXP0ABV7gUJs3GF7Yyrvl4kf59KscL9trCdCS2FBRnc8CFzoS9trguoXjdjB4ARnbSQUZV7SijCKS0U2g5FCYzPgMV4VLkXILTx/V7px4GJvZV6S+ikAvcwreCNFuwK6VsKle5aMkD+cn6498IHwHne1kLmTKXdR3uHeyueHSYQAiAFgONR5Z65MIj5XunHgalJuiV0MoF7uLGZksI0rem9B/kLC8LdyfSDrnW6fdVCADxPXdX+R4d7K+4Tz1FoWxCLrk8gFGv5PU3G8ctUGEyxEDfTlmxL6CQCd6NkzNAbwioownbGC6huqhYC4BknVe33HZgzlfYOcHC4t3K3BfuRsnrAYrX0gzAhVe4ZCoNRd0MnAZim+jt1O8XuFK0P3E8tkgqzcqvT7V91dCFfYRp9rlOoLaAKwIkDVe3nK7S63XdiAiGXMENgOnwX87Or1RIzlGR3ihQq3I2SMQ+3jbRD3kL40Mv0Q75hAVWAotWzuN483Fu5oqp9JKW1lbwTWuwxvm25xNSocs+I9s/MSf2+m9SgZ6sD99Dqo7TKA5qxFAZ3gLzlXJmU5FQ7ACb2blVVlw73VqxNNIIQDpXWFkRF8QRCOPxWsh+gnXwnMxDaP5tpy7x8L6V+7q0N3EOl3q0W7ArlqBcfdLOAjIXepQeZfsJVU50BilIvCP6dw72VzcO9lYdO/chKC/reDq31GJ93xOlT5Z64UOhz28wP5uxuKkVmrQzcT/1wYd7e0pYBsncj4w94y8sLQPbqgeM/PtxbuSFIjVNgdfuxsHgy4d3wjZQ/Q4spFEnbtr7tNGA1lftaWyvcd63+TYO0ZYCMhXDi3Yw/ogFrgDydBO1X9OOOF57vS6tu3zX7YWJan8zODe/daQoDUdos0ZR6hszVth/91gXu4aBZcIEmrXqwguxth6qvHK2n8AACwMg+ELRPxWZhRV29sGA8YwozIqwpNztLqtzToyMFLdH6QtlWBe7hYJnyRhtoLQMZC9VeOb+EmqkDkLbjUz3arwraJxPuiaUFe8L2yTmGs7fpmTU52zpS0AJLbR/4aVuFux8ubSKwgowd7q3UA7xHmX7CJS+JAEnqVVX13aqqLunRPlWbhS3sd3C4t6ICdQKdbl82MR+q3BOilQwt80abC2VbE7h3uv3Lfri0zKqbP2Qv59/4W+HeCkD73QltY+qgXd/tKVLdTqxCvzNNUuWeDh0paJvWDi63qcLdD5c2utXp9i85M5CnMEX/g4xPr3srQHudVLN/J1SzaxszG7uFVbd/4Ls0sdJmRDRNlXsCOt1+fY7WSj8OtM5qmJHUOq0I3C1GQsuZjgl5y/kBfz08HAPQDie92f/oVDW7tjEzEgpnrmf54c7mvj+B8J25lewHSJcq9xYL58bMGdpqs42Fso0H7hZKJQHrFlCFfIWg4+2MP+K2FxiARp2E7P/4cG/lYqhmv++UzEVpAdEdAzgTEyo2Q5V7u5U2U4i0tHL9sjZUuJuuRQpUuUPedsPU/hwtGdgGmLt6Ue53QyX7Sch+12mYnwKr248FlpMJRValzYhoE1XuLVToTCHSc71thbKNBu4WIyEhq6H1EZChsDhdzhVNrXsAAchML1Sxvxl6sv//7N1PcxVXmi/qJSGwcd0qaLerfXT79Enu9E6gQx8A+QOcQBU3cizxBWQxzJFhtIeW+QIW4xxYRNy5YX4Jw52cKdn/1O6iXVbXtTG2kG4se1FFuTAgtPdembmeJ6Ki+vhElHeutbV35m+/630v3bu5vKWSPavSCmYM2z051e15qXLvJ4U7DEWvPsNzV7g7lsKQuAGDEbt3czk+mN8d8SW6WQaYnrupgv13KWC/kKrYd7T0yC/9yFzSjLDO9/zJrGzurZkr1wuq3HskfZZeKX0dGIxetYNeyvUvdiyFAfqxyj2FcsA4xaqaL0Z6bRfjBPd7N5f9eAjw+mKwHquG7z/7j0B9EEr7rruuuv3E/GDRD7Egc8N+9IbnBoYmvmd7EbpnC9z94TJQ1/VzL9ZQK58dZT+GePR/ZXPvRl++pGfg0uiuCPi5r6f4nRWrDC+OdIVjRfCz4Pzr574v7z/7fwswh6nA6vYHCoJOZmVzLxZcVEO+hpHZErjnV+BnKePwY5X7vZvLd3JfzcLR0dHc/6XpiNBD7WQYqKtuagEAoN9WNvd2C2iH8EEfgoWhkk30Svwh9JIfO/uhkM9PxunuvZvL2QvocvVw3/KFxoA5nQEAAD2WenKPPSy6K2w/MdlEf1SetfshtYAWtjNUvejlPveWMukXZJOnGbLYy33t3s3lXbsIAAC9FKuWPxj51mgdeHLxmc6PFvCX/PDB0G3k/myfe0uZOHQyhPDpXP+lMH29OKICAAAAMA2pSPYPFpMR+D9yDrrP0VLGL2WMweV0zAoAAABgDHSkYCw2cl7HXAP31EPH9G/Gwo9HAAAAwFhkDSlhirL+eDTvCnd/uIzJmt0EAAAAhi4Nm1Yky1icS23Ns5hb4J76QK172zIiWf94AQAAAKZEUSFjk+09Pc8Kd3+4jJH3NQAAADBYimQZqSu55i/OM3A3eIExyvbHCwAAADAFigkZqyzv7bkE7imQvDiPfxdk4IsJAAAAGCrtchmrLO/teVW4CyQZM19MAAAAwOCkItnLdo6RupijM8W8AneBJGOW5Y8XAAAA4IRWLSAjN/dC8JkH7mnwgnYyjJ1THAAAAMDQyDMYu7kXgs+jwt0fLiXwizAAAAAwGKlI9oodY+Qupvf63AjcYTp8QQEAAABDoniQUsw1n55H4O6PlyKsbO75cQkAAAAYCpkdpZjre32mgfvK5t6lEMK5Wf47oEd8UQEAAABDoXCQUowncBdAUhjvdwAAAKD3Vjb3LoQQKjtFIapUGD4XAneYnrkPYQAAAAB4AzI7SiNwh4Ga2x8vAAAAwBuSX1CaueXUMwvc9W+nUH5kAgAAAPpOfkFphh+4+6WMQnnfAwAAAH130Q5RmGperaAF7jBd3vcAAABAb61s7qlup1Rzye0E7jBdc/u1DAAAAOANXLBoFErgDgPlvQ8AAAD0ldyCUg03cE8VvgamUipfXAAAAEBfyS0o1VxOd8yqwt0fLiVzNAsAAADoK7kFpbo8j+ueVeDuD5eS+cEJAAAA6KvKzlCqecxeFLjD9BmaCgAAAPTOyuaeIkFKN/O/AYE7TN9FawoAAAD0kCJBmDGBOwAAAACUQYU7pVud9fXPKnD3axlFW9ncm/kfLwAAAMAxyexgxmYVuGupAQAAAABAn8y8M8usAnconV+MAQAAgL5xIp/SCdxhoPREAwAAAIDCTD1w17saAAAAAIASqXAHAAAAAKAEM+9KIXAHAAAAgDLMvH819Ny5Wb88gTsAAAAAlKGyzzBbAneYjfPWFQAAAADKInCH2Zh5PygAAAAAoF8E7gAAAAAAMAUCd5iN+9YVAAAAAMoicIfZ+Nq6AgAAAEBZBO4AAAAAUIbOPsNsCdwBAAAAoAwP7TOF25/15c8icNdKAwAAAACAvpn53MWpB+73bi4bFgkAAAAAQHG0lIHZ8MMTAAAAABRG4A6zobUSAAAA0Dd37AiFm/kcg1kF7g9m9L8LAAAAAABvYrCBu+peinbv5rJfjAEAAIC+mXnYCKWbVeDujxcAAAAA+kVmR+lmXiQrcIfp01IJAAAA6CNdKWDGBO4wfb68AAAAgN65d3P5vl2hZPNoAy1wh+nTvx0AAADoq87OUKj9eVz2rAJ3v5ZRMhXuAAAAQF8plKVUc8msZxK437u5/PW8fjGAHvKDEwAAANBXTuZTquEG7onQkVJ57wMAAAB9pcKdUs3lvT/LwN2vZZSoSyc8AAAAAPpIoSClUuEOA+R9DwAAAPTWvZvLsguKdO/m8lwKxAXuMF3e9wAAAEDf3bVDFObBvC53ZoH7vZvLDw1OpUBaKQEAAAB9p2CQ0sztPT/LCvcgfKQ08zqaAgAAAHAC8gtKM7f3vMAdpsdxLAAAAGAIZHaURuAOA+T9DgAAAPTevZvLX8+zpzVk1qX253Mx08A9TT3Wx51SCNwBAACAoZBjUIq5vtdnXeEe7c7h3wG57evfDgAAAAyIHINSjC5w98dLCbzPAQAAgMG4d3NZkSylmOt7XYU7TIf3OQAAADA0t+0YI3c3zSyYm5kH7umC/PEydgJ3AAAAYGjkGYzd3N/j86hwD9ptMHK35/1LGQAAAMAUCNwZu9EG7v54GTPvbwAAAGBwdKZg5B7cu7n8cN6XOJfAPV2YP17GSuAOAAAADJVcg7HayXFd86pwD/54GSntZAAAAIAhi5ndvh1khIoI3P3xMjZZ/nABAAAApiEVEiqUZWyyFcnOLXD3x8sI7d+7uew9DQAAAAydgkLGJtt7ep4V7tH2nP99MEu+jAAAAIDBu3dz+U4IobOTjESXs0h2roH7vZvL9+N02Hn+O2GG/IAEAAAAjIWcg7HIWiQ77wr34I+XkYh9oB7aTAAAAGAkdsxfZCSy5s9zD9zv3Vz2x8sY+OEIAAAAGA3zFxmJW7mGpT6To8I9CCsZuAeptxkAAADAmFy3mwxc9vdwzsBdlTtD5QcjAAAAYHRS+9xbdpaButuHFtBZAvdU1i+0ZIi61BYJAAAAYIxUuTNUvXjv5qpwD6rcGShfOgAAAMBoqXJnoO72pQV0tsBdlTsDpLodAAAAKIGCQ4amN+/ZnBXuQZU7A7NlwwAAAICxU+XOwPSmuj3kDtxVuTMg8Q9314YBAAAAhVDlzlBs9Ol15q5wj6F7/OPtcr8OeAVfMgAAAEAxUpX7DTtOz91K79XeyB64J1p10Ge3+nQsBQAAAGBOtIOmz/b7mCv3InBPrTru9uClwM/tq24HAAAASpTaQSuUpa+up/dor/Slwj3446Wntvt2LAUAAABgXu7dXN5RKEsPPbh3c7mXs0F7E7jfu7l8X18oeuZBmjEAAAAAUDKFsvRNb9+TfapwD6kvlAGq9EWvJhwDAAAA5KBQlp75pM/zFnsVuKeeO0JO+uCT9GUCAAAAgEJZ+qHr+7zFvlW4h/TrxCc9eCmU64FBqQAAAAB/Fgtll98++H8tCZlt9HFQ6vN6F7gn11PoCTn0/g8XAAAAYJ7qpts4e+rwf54//XTfwpNJr1vJPNPLwF1rGTK6oZUMAAAAwJ/VTbcaQvg0/oN3zzw9t7Rw9JXlYc4G05Fi4ejoqAcv48VWNvfitNmP+/jaGKW7924ur9paAAAAgJ/UTXchhBCLE889+2cHRwvhn789/fgohLOWiTmIpypWh1Ik29eWMj+6d3M5DmO43YOXwvjFP9w1+wwAAADwk7rpzocQdp8P26OlhaPwd28d9LeKl7HZGlJHil4H7smGCcjMwZq+7QAAAAB/YSeEcPFFS/KrpcN3fr10+MhyMWO37t1c3hnSIvc+cE8h6FqqQIZZuDaEgQsAAAAA81I3XeyXfeVl/7rfvnXwnn7uzFDs2741tAXudQ/3561s7m08G84AUxR/JTOgFwAAACCpm+61c7jDoxD+6fGZ/cOjv2w7AycUi68v3bu5/HBoCzmYwD38FLrHX9Y+6sFLYQQWQvhf/8/N5f/TXgIAAAD8pG66SyGEOz/v2/4y3x8uhH99bIgqUzOoIak/N4Qe7n9y7+ZyDNxv9eTlMGBLC0ePqne+//s0/AMAAACgeL80JPVVziwaospUDWpI6s8NKnAPP4Xu8UjL3R68FAZqIYTH/+3tg/cWF8Jv4i+2QncAAACAH8WwvXqTpYhDVH/71sFjy8gJXR3akNSfG1zgnqylpvlwLDFs//uzP5yNv7wmcdL2tlUEAAAASlY3XQw5L59kCX69dHj2/Omn+95IvKFbQw/bw1AD93s3l7+OfXyE7hzXz8L2Z9brphvcxGMAAACAaUhDUten8b/17pmn5361dPiVjeGYbqXOJoM3qKGpP7eyuXc+DXG42K9XRh/FY03xl9aXvLTftZNq1+YBAAAApUhDUr+Y9uV++WTpq28OFt/1RuI1jCZsD0MP3IPQndf0GmF7eDYBuZ1Ugx3KAAAAAPC66qa7EEK4f9whqa9L6M5rGFXYHgbcw/1PtJfhVV4zbA/py2XHEFUAAABg7FL+sTursD16/62Dd7WX4SVGF7aHMQTuQejOL4gDUpffPgivGbY/czF92QAAAACM2fY8OkYI3fkFowzbw1gC9yB052di2B4HpJ49dfgmS3O5brptawoAAACMUd1016c1JPV1xND9b888/c6biWS0YXsYQw/3n0s93XdCCFf69cqYl8WFsP+/v/3DuTOLJ35vX20n1Y6NAwAAAMaibrq1EMJnOS7njweLj3//ZOk4nQgYn6v3bi6POm8bXeD+zMrm3s48f6mjH5YWjr7672d/eHdxYSovxxBVAAAAYDTqprsUQrgzy77tr/LNweK3//FkaeEoBMF7WWLOtjX2sD2MOXAPP4Xu8WjCpz14KczBr04dfvnbtw7en1LY/kz8MLjQTqqv7SEAAAAwVGlIaiwqrHJfwveHC+Hfvju9f3iUL/hnrn4sar13c7mIotbR9HB/kfSLyQdpUxmx86ef7r//9tTD9pB+8b3jvQMAAAAM3G4fwvYotgH+H2e/j+2AH/Xg5TBbcd7mhVLC9jD2CvdnVjb3LqQPlZlPXma+4nDUv3vr4OhXS4fvzPhffKudVKMd5gAAAACMV910vW29/PsnS4/+eLD4Xg9eCtM36uGov2TUFe7P3Lu5/DAeW4ib3I9XxDTEfu3/8M4PZ+cQtkfrddNt2TgAAABgSOqm2+jznMPfvnXw3vtvHXwbiyp78HKYjv00HLXI4tUiKtyft7K5Fycx7+QcDsHJ/Xrp8FH8QM6wlB+0k0qLGQAAAKD30pDUL4bwWg+OFsK/PV766uBo4d0evBzeXGwhs1FSC5mfKy5wD39uMRND98s9eDkcw0II3/23tw/ePnvqMNey/TjkoZ1UxX5oAAAAAP2XhqQ+HFrR6Vffn9r/+odTCmWH6ZN7N5eL7xBRZOD+zMrmXnwDXFftPgxnTx0+ev+tg/dmMBj1uB6k0P3r0S0yAAAAMHgpbL8z1HmG3x8uhH//bunRwdGC3u7D0KWq9uK7QoRSerj/kns3l7dDCPFozd1+vkKixYWwH3t5Lb/di7A9pC+rnR68DgAAAIAX2R5q2B6dWTwK/+OdH947f/rpfg9eDi/3ScxXhe1/VnSF+/NWNvc20oeRavceib3a//ZMb4L2n/uknVTFH5MBAAAA+qNuuphVfDyWLYnV7v/xZOnL7w8X3u/By+HPiu/V/ksE7s9Z2dw7n0L33k5uLsWZxaMv/+6tg/fjL5o9d7WdVKrdAQAAgOzqplsLIXw2xp3448Hi40dPlhaOQni7By+nZPHUwfXUOYQXELi/wMrm3qUUvBuqOmexfczfnjk48+ulw7MDecmGqAIAAADZ1U13KfVtH233hsOjEL7+4dT+/g+nTh+F8E4PXlJpPklhu7mGLyFwf4mVzb3V1Ku76u2LHImFEB6fO/30+3fPPB3il0IM3S8YogoAAADkMPQhqcd1cLQQ/vPJqS+/ebqozcx83EpB+8MSLvaklob98mcrNfu/kPq7Xxe8T9+zoP386afnFhfCUKraf+5c+lK71K+XBQAAABRit5SwPYqNZd5/++B9wfvM3U1Bu4Gox6DC/RgE79Pzs6B9LG61k2pjNFcDAAAA9F7ddLEt8ocl75TgfepiRfu2gahvRuD+BlKrmet6vB/fsx7tvzp1eHZEQfvzrrWTytAIAAAAYObqpouFf59a6Z/E4P2/fliMPd7PHIXBdlLIZT+dlNA65oQE7iewsrl3IQXva2MeSDENby0e/fP5M0//4VenDod/Ma/2QTupHLUBAAAAZiYNSf3CCv+1OFz1m6eLj//w/alvDo4W3uvb6+uZLlazxzmWhqFOh8B9ClY2986n0H1D1fufLS6EP/xm6enib04fnou9tQoSfxG81E4qvwYCAAAAU5eGpD5UAPpq3x8uhD98f+rLb58u/kbV+1+4lUJ2RaNTJnCfslT1HsP3rRJ7vcfe7GdPHT46d/rwH86WUc3+Sx6EEFbbSeWXQQAAAGBqUth+p6QhqdPyx4PFx//1w6lHTw4X/mEcV3Rst1PbmF3V7LMjcJ+hlc29eLRnNVW+j/ZDMFay/+rU4bfvLB3+fSEtY17X7XZSrQ3jpQIAAABDUDfdTghh3Wa9uWctZ745WHz0+OnieyOvfBeyz5nAfU5S5ftq+s/ge76fXjz6118vHb7zzqnDvzmz6D30EjfaSXW9t68OAAAAGIy66WJHhY/t2HQ9froY/r+DxUffPl14+vRo4f2BX86DdALizr2by7s9eD3FEbhnkqrfn1XAX+pzBXxsE3Nm8ejR26cOz7xz6uj9wlvFvImr7aTaGd7LBgAAAPqibrqYIX1uQ2YrVr8/OVwM3z5diH3fDw4OF97teQX83RDC/edCdlXsmQnce2Rlc+9Z+H4h/feleVfCn1486hZDWHwWrp9ePAqFDTydhf3Uz/3++C4NAAAAmLW66S6lQNWQ1AwOjhbCNweL//d/fn/q3nPZ3byLZ7s0KPdO+u/7924uy5p6SOA+ACmID+kP+nz6v1d/9sov/MKQ1hj23l8I4e2lxaP/Fv/B24tHS4sLRwfx/4yhevxnby0exl7szE78ULxkiCoAAABwHIak9sIL5/SlFtIXUl53Kf3jZ//seZd/4SLu/uz//XWqVg8pVP/xP/duLj8czUoWYKn0BRiCezeX76SXeeckL7duujsv+QNntqq0f5esMwAAAHAMO8L2rGJP9I0XvYAUhD8Lw/VL50eLlqEoa+lDgjwupkniAAAAAK9UN912COGKlcomdo7Y0LGA4xC4FyR9OGykDwvyWK+b7oW/igIAAAA8k/KDDy1IVhtm8nFcergXqG66WOn+WenrkNkH7aQ6UYsgAAAAYJwMSe2Fa+2k2i59ETg+gXuh6qbbCiF8XPo6ZLSfhqgaegEAq2HwDAAAIABJREFUAAD8SRqS+lDYntWtdlLpUMAb0VKmUOkXululr0NG8UtzN32JAgAAADyjsj2vOP9wq+QF4GQE7mXbMkQ1q4tp0jgAAABArG7fSXkBecSOBKuGpHISAveCpQ+PVUNUs7pSN931gq8fAAAA+HP733VrkZWwnRPTw51ngzi+sBJZ/a6dVLsFXz8AAAAUq266WBD5uXdAVlfbSaUTASemwp1Y6X4/fqhYiax20g8fAAAAQEFSHqAIL69PhO1Miwp3/qRuujhI9UMrkk0XQrjk6BIAAACUoW6682lIqr7t+dxtJ9VqqRfP9Klw50/aSRV7hd21ItlUftEGAACAohiSmteDEMJayQvA9Anc+bm1VGlNHpfTRHIAAABgxFKngSv2OJv9EMKGTgNMm8Cdv5A+ZNbShw55rNdNt2HtAQAAYJzSc7+2vnltpLmGMFV6uPNCddPF0P0zq5PVP/rgBwAAgHFJQ1Jj3/Zztjaba+2k2i702pkxFe68UDupYi/xG1Ynqzt1010o+PoBAABgVNKQ1F1he1a3hO3MksCdX9ROquvxQ8gKZRO/fHfTlzEAAAAwfLGyvbKP2cQhqVuFXjtzInDnVbbShxF5xEnlfnUFAACAgaubbic955NHnFe4ZkgqsyZw56UMUe2FOET1eumLAAAAAEOVhqSu28CsVttJ9bDg62dODE3ltaSBHl9Yrax+l3rrAwAAAANRN91qCOFz+5XV1XZS7RR8/cyRCndeSzup7scPJ6uV1U764QMAAAAYgLrpLqQhqeRzS9jOPKlw51hSvzFHoPLpQgiX9BsDAACAfqub7nwakqpvez5320m1WurFk4cKd46lnVSx59hdq5ZN5ZdxAAAAGARDUvPq0lxCmCuBO29iLX1okcfluum2rT0AAAD0U91010MIV2xPNvsxv9IhgBy0lOGNpF7i8VjUOSuYjYEfAAAA0DN108XuAJ/al6x+104qHQLIQoU7byQNUd2yell9aogqAAAA9Ed6TncqPa8bwnZyUuHOiaQjUh9ZxWziEakLjkgBAABAXmlI6v00f408bqX5g5CNCndOpJ1UMXC/bRWziS197qQvdQAAACCfO8L2rB7oxkAfCNyZho30oUYeFx1XAwAAgHzqpttJz+fkYUgqvSFw58TSh9la+nAjj/W66fyKCwAAAHOWhqSuW/esVttJ9bDg66dH9HBnauqmWw0hfG5FszKFGwAAAOYkDUn9wnpndbWdVDsFXz89o8KdqWknVexVdtWKZrWTvuwBAACAGaqb7kLq204+t4Tt9I0Kd6Yu9S1zlCqfB+kolb5lAAAAMAN1051PYbu+7fk8aCeVokN6R4U7U9dOKkNU84pf9trKAAAAwOxsC9uz6mKxYcHXT48J3JmV1fThRx6X66bbtvYAAAAwXXXTXXeyP6v9EMKak/30lZYyzEzqJR6PV52zytkYHAIAAABTUjfdWgjhM+uZlayDXlPhzsy0k+p+CGHLCmf1qSGqAAAAcHLp+VrQm9cNYTt9p8KdmUtHrT6y0tnEo1YXHLUCAACAN5OGpMbCwsoSZnO7nVRrhV47A6LCnZlrJ1UM3G9b6WzOpdY+AAAAwJvZFbZn9SCEsFHw9TMgAnfmZSN9OJLHxbrpHLkCAACAY0rP05etWzaGpDIoAnfmIn0obqQPSfJYr5tOT30AAAB4TXXTxSxj3XplFcP2hwVfPwOjhztzVTfdagjhc6ue1QftpNJiBgAAAF4iDUn9whplddWQVIZGhTtzlYLea1Y9q9100wAAAAC8QN10F8xDy+6WsJ0hUuFOFqn/mSNZ+cR++qv6nwEAAMBfqpvufArbL1qabB60k0qxIIOkwp0s2klliGpe8abBr8QAAADw17aF7Vl1sUiw4Otn4ATu5LRqiGpWV+qm2y74+gEAAOAv1E235UR+VvtpSKoT+QyWwJ1s0oen0D2vD9PEdQAAACha3XRrIYSPS1+HzLbaSXW/6BVg8ATuZJU+RLfsQlbbhqgCAABQsvRcrPVqXp8YksoYGJpKL6TWJh/ajWziKYMLjmwBAABQGkNSe+F2O6nWSl8ExkGFO73QTqpY5X7bbmRzLt1cAAAAQGl2he1ZPQghaHfLaAjc6ZON9CFLHhfrpnN0CwAAgGKkE/eX7Xg28cT9hhP3jInAnd5IH64bhqhmtZ4msgMAAMCo1U23ob1tdmuGpDI2erjTO2kq+Gd2JqsP2kmlxQwAAACjlIakfmF3s7rWTqrtgq+fkRK400upyvpju5NNPGVwqZ1UDwu9fgAAAEYqDUl9mOaZkcetdlLp284oCdzprdRPfN0OZRP76a/qowYAAMBYpLD9jiGpWT1oJ9Wlgq+fkdPDnT7bMkQ1q3jzYYgqAAAAY7ItbM8qnqhfLfj6KYDAnd5KldWrhqhmdaVuuusFXz8AAAAjkdrXOkmfz76T9JRASxl6zyCTXrjaTirV7gAAAAxS3XRrIYTP7F5WsgWKoMKd3msn1f34oWynstpOP3wAAADAoKTnWUFvXp8I2ymFCncGo2662GftQzuWTRdCuOToFwAAAENhSGov3G4n1Vrpi0A5VLgzGO2kir3W7tqxbKp0kwIAAABDsSNsz+pBCGGj4OunQAJ3hmYtfViTx8W66RwBAwAAoPfSSfkrdiqbOCR1w0l5SiNwZ1DSh/RG+tAmj/W66fw6DQAAQG+l51ZtafPaSHP5oCh6uDNIpov3wgftpNJiBgAAgF5JQ1Lj8+o5O5PNtXZSbRd67RRO4M5g1U13PYTwkR3MZj8NUX1Y6PUDAADQM2lI6kNhe1a32knlZDzF0lKGwWonVQzcb9nBbOLNy266mQEAAIA+UNmeV5y7t1XyAoDAnaHbMkQ1q4tp4jsAAABkVTfdTnpOJY94En7VkFRKJ3Bn0NKH+JohqlldSe19AAAAIIu66WJB3rrVz0rYTvGCHu6MRRqI8oUNzep37aTaLfj6AQAAyKBuutUQwufWPqur7aRyAp7iBRXujEU7qe7HD3cbmtVO+uEDAAAA5iI9hyr+yusTYTv8mQp3RiX1a3OELJ8uhHDJETIAAABmrW6682lIqr7t+dxtJ9VqqRcPL6LCnVFpJ9VG/LC3q9lUKgsAAACYE0NS83qQ5uoBzxG4M0ZrqdKaPC6nkwYAAAAwE3XTbYcQrljdbPZDCBtOuMNfE7gzOunDfi19+JPHet10G9YeAACAaUvPmx9a2Kw20jw94Gf0cGe06qaLoftndjirf/QFDAAAwLSkIamxb/s5i5rNtXZSbRd67fBKKtwZrXZSxV7iN+xwVnfqprtQ8PUDAAAwJWlI6q6wPatbwnZ4OYE7o9ZOqushhNt2OZt4E7SbbooAAADgJGJle2UFs4lDUrcKvXZ4bQJ3SrCRvhTII06M9+s3AAAAb6xuup30fEkecU7emiGp8GoCd0bPENVeiENUr5e+CAAAABxfGpK6bumyWm0n1cOCrx9em6GpFKNuutUQwud2PKvfpd76AAAA8Eqe5XvhajupdkpfBHhdKtwpRjupYq+3q3Y8q500UR4AAABeqm66C2lIKvncErbD8ahwpzip75ujaPl0IYRL+r4BAADwS+qmO5+GpOrbns/ddlKtlnrx8KZUuFOcdlIZoppXpUIBAACAVzAkNa8uzcMDjkngTqlW05cHeVyum27b2gMAAPBzddNdDyFcsTDZ7Mew3cl0eDNaylCs1Es8Hk87512QjcErAAAA/EnddPFU+qdWJKvftZPKyXR4QyrcKVY7qe6HELa8A7L61BBVAAAAwp8L45yGzuuGsB1ORoU7xUtH1T4qfR0yikfVLjiqBgAAUK40JPV+mvtFHrfS3DvgBFS4U7x2UsXA/Xbp65BRbOlzJ91cAQAAUKY7wvasHugCANMhcIefbKQvF/K46NggAABAmeqm20nPheRhSCpMkcAdfqpy/zqF7vvWI5v1uun8mg4AAFCQNCR13Z5ntdpOqocFXz9MlR7u8Jy66VZDCJ9bk6xMQwcAAChAGpL6hb3O6mo7qXYKvn6YOhXu8Jx2UsWecdesSVY76aYLAACAkaqb7kLq204+t4TtMH0q3OEFUv84R9ryeZCOtOkfBwAAMDJ1051PYbu+7fk8aCeVYjeYARXu8ALtpDJENa9406WtDAAAwDhtC9uz6mKRW8HXDzMlcIdftmqIalaX66bbLvj6AQAARqduuutOlGcVc441J8phdgTu8AvSl4/QPa8P08R6AAAABq5uurUQwkf2MautdlLdL/j6YeYE7vAS6Utoyxpl9akhqgAAAMOWnusM6MzrhiGpMHuGpsJrSK1NPrRW2cRTBhcceQMAABieNCQ1FrRVti+b2+2kWiv02mGuVLjDa2gnVaxyv22tsjmXJtgDAAAwPLvC9qwehBC0a4U5EbjD69tIX1LkcbFuOkffAAAABiQ9x122Z9kYkgpzJnCH15S+nDYMUc1qvW46PfUBAAAGoG66+Ay9bq+yimH7w4KvH+ZOD3c4pjRV/TPrltUH7aTSYgYAAKCn0pDUL+xPVlcNSYX5U+EOx9ROqth77pp1y2o33bwBAADQM3XTXTCHK7tbwnbIQ4U7vKHUh87RuHxiP/1VfegAAAD6o2668ylsv2hbsnnQTipFapCJCnd4c1uGqGYVb978Wg8AANAv28L2rLpYnFbw9UN2And4Q6myetUQ1ayu1E23XfD1AwAA9EbddFtOgme1n4akOgkOGQnc4QSeC93J58M0+R4AAIBM6qZbCyF8bP2z2mon1f2Crx96QeAOJ5S+zK5ax6y2DVEFAADIIz2PafmZ1w1DUqEfDE2FKUmtTT60ntnEo3MXHJ0DAACYH0NSe+F2O6nWSl8E6AsV7jAl7aSKveruWs9szqWbPAAAAOZnV9ie1YMQgjar0CMCd5iutfRlRx4X66ZzhA4AAGAO0knvy9Y6m3jSe8NJb+gXgTtMUfqS20hfeuSxnibjAwAAMCN1021oq5rdmiGp0D96uMMMpOnsn1nbrD5oJ5UWMwAAAFOWhqR+YV2zutZOqu2Crx96S4U7zEA7qWIPuxvWNqvduukuFHz9AAAAU/fckFTyuSVsh/5S4Q4zlPqJr1vjbGI//VX97AAAAE7uubDdkNR8HrST6lKpFw9DoMIdZmvLENWs4k2gIaoAAADTsS1szyrOi1st+PphEATuMEOpsnrNENWsrtRNd73g6wcAADixuum2nODOat8JbhgGLWVgDgyU6YWr7aRS7Q4AAHBMddPFQrLPrFtWnmlhIFS4wxy0k+p+/HK01lltpx8+AAAAeE3pOUrQm9cnwnYYDhXuMEeGqGbXhRAuOYIHAADwaoak9sLtdlKtlb4IMCQq3GGO2km1EUK4a82zqdLNIgAAAK+2I2zP6kEIYaPg64dBErjD/K2lSmvyuJhOGgAAAPAL6qbbDiFcsT7ZxCGpG05ow/AI3GHO0pflWvryJI/1uulUCQAAALxAel760NpktZbmwQEDI3CHDNKXpsA3r0/rplsteQEAAAB+Lg1J3bYwWV1rJ5V2qDBQhqZCRnXTXQ8hfGQPstlPQ1QfFnr9AAAAf5KGpMbno3NWJZtbaf4bMFAq3CGjdlLFwP22Pcgm3kTupptKAACA0t0RtmcVh6RuFXz9MAoCd8hvI32pksfFNHkfAACgWHXT7aTnI/KIJ7BXDUmF4RO4Q2aGqPbCldTeBwAAoDh108Wq6nU7n5WwHUZCD3foiTTA83P7kdXVdlKpdgcAAIrhWbQXPIvCiKhwh55IE8iv2o+sttNEfgAAgNFLzz+7djqrT4TtMC4q3KFnUt88R/ny6UIIlxzlAwAAxqxuuvNpSKq+7fncbSfVaqkXD2Olwh16pp1UhqjmVanwAAAACmBIal4P0jw3YGQE7tBPq6nSmjwup5MGAAAAo1M33XYI4YqdzWY/hLDhZDWMk8Adeih96a6lL2HyWK+bbsPaAwAAY5Kecz60qVnFsP1+wdcPo6aHO/RYuhH61B5l9Y9uhAAAgDFIQ1Jj3/ZzNjSba+2k2i702qEIKtyhx9Kk8hv2KKs7ddNdKPj6AQCAEUhDUneF7VndErbD+AncoefaSXU9hHDbPmUTb0Z3080pAADAUMXK9sruZROHpG4Veu1QFIE7DMNG+nImjzi5XxUCAAAwSHXT7aTnGvKI89lWDUmFMgjcYQDSl/KGIapZxSGq1wu+fgAAYIDSbLB1e5eVsB0KYmgqDEjddKshhM/tWVa/ayfVbsHXDwAADIRnyF64muazAYVQ4Q4D0k6q2HPvmj3LaidN9gcAAOituukupCGp5HNL2A7lUeEOA5T67zkSmE8XQrjkSCAAANBHddOdT0NS9W3P5247qVZLvXgomQp3GKB2UhmimlelUgQAAOgxQ1LzikVaayUvAJRM4A7DtWqIalaX00kDAACA3qib7noI4YodySY+p685EQ3lErjDQKUvb6F7Xutp4j8AAEB26fnkIzuR1UY7qe4XfP1QPIE7DFj6Et+yh1l9aogqAACQW3ou2bYRWd1oJ5X2o1A4Q1NhBOqmizdVH9rLbOIpgwuODAIAADmkIan307wp8riV5q0BhVPhDiPQTqpY5X7bXmZzLoRwJ93kAgAAzNsdYXtWD5w+B54RuMN4bKQvefK46PgmAAAwb3XT7aTnEfIwJBX4CwJ3GIn05b5hiGpWcYiqqgYAAGAu0pDUdaud1Wo7qR4WfP3AzwjcYUTSEFU94/L6uG66tZIXAAAAmL266VZDCJ9a6qyupudwgD8RuMPIpIno1+xrVjt1010q+PoBAIAZqpvuQghh1xpnFYek7hR8/cAvWDg6OrI2MEKpj5+jhfk8SEcL9fEDAACmpm6682lIqr7t+dxtJ9VqqRcPvJwKdxivLUNUs7qo4gQAAJiBbWF7Vl0cklrw9QOvIHCHkUqV1auGqGZ1uW667YKvHwAAmKK66a47yZxVfL5ec5IZeBktZWDkUi/xL+xzVlf19gMAAE6ibrpYVf2ZRczKsx3wSircYeTSxPSr9jmrTw1RBQAA3lR6nhD05nVD2A68DhXuUIjU2uRD+51NPHp4wdFDAADgONKQ1FhIVVm4bG63k0rfduC1qHCHQrSTKg5RvWu/szkXQriTbpYBAABe166wPasHIYSNgq8fOCaBO5RlLd0skMfFEIIhqgAAwGupmy62MLlstbIxJBU4NoE7FCTdJGykmwbyWK+bbsvaAwAAL1M3XXx2W7dIWcWw/WHB1w+8AT3coUCm2/fCB+2kulP6IgAAAH8tDUn9wtJkddWQVOBNqHCHArWTKvYAvGHvs9pNN9EAAAB/UjfdhTj/yYpkdUvYDrwpFe5QsNQP0BHFfGI//VX9AAEAgPDTM9r5FLZftCDZPGgnleIo4I2pcIeybRmimlW8iVY1AQAAPLMtbM+qi0VRBV8/MAUCdyhYqqxeM0Q1qyt1020XfP0AAMBP1e3XnUDOaj8NSXUCGTgRLWUAA3n6wUAeAAAoVN10sRDqM/uflWcyYCpUuAOx0v1+vLmwElltG6IKAADlSc8Bgt68bgjbgWlR4Q78iSGq2cUjjBccYQQAgDIYktoLt9tJtVb6IgDTo8Id+JN2Um2EEO5akWzOpZttAACgDLvC9qwehBA2Cr5+YAYE7sDPraXJ7ORxMZ00AAAARqxuuu0QwmV7nE08YbzhhDEwbQJ34C+km421dPNBHut1021ZewAAGKe66WJV9Ye2N6u1NM8MYKr0cAdeyJT8XvignVRazAAAwIikIalf2NOsrrWTarvg6wdmSIU78ELtpIq9BG9Ynax20804AAAwAs8NSSWfW8J2YJZUuAMvVTddDN6vWKVs4hCfVX0FAQBg2J4L2w1JzedBO6kUNQEzpcIdeJWNFPqSR7wZN0QVAACGb1vYnlWcU7Za8PUDcyJwB17KENVeuFI33fXSFwEAAIaqbrqtEMK6Dcxm38lhYF60lAFeS910sRLgc6uV1dV2Uql2BwCAAambLhYwfWbPsvIsBcyNCnfgtbSTKvYavGq1sto2RBUAAIYj3b8LevP6RNgOzJMKd+BY6qbbcRQyqy6EcMlRSAAA6DdDUnvhdjup1kpfBGC+VLgDx9JOKkNU86rSTTsAANBvu8L2rOJz60bB1w9kInAH3sRqqrQmj4vppAEAANBDddNthxAu25ts4pDUDSeDgRwE7sCxpZuWtXQTQx7rddOp1gAAgJ5J9+kf2pes1tpJdb/g6wcyErgDbyTdvGxZvaw+rZtuteDrBwCAXklDUrftSlbX2kmlDSeQjaGpwInUTXc9hPCRVcxmPw1RfVjo9QMAQC+kIanxvvycHcnmVpo7BpCNCnfgRNpJFQP321Yxm3gzv5tu7gEAgHzuCNuzeuAUNtAHAndgGjbSzQ15XAwhGKIKAACZ1E23k+7LySOe/F01JBXoA4E7cGLppmbDENWsrqT2PgAAwBzVTRerqteteVbCdqA39HAHpiYN8PzcimZ1tZ1Uqt0BAGAOPAP1gmcgoFdUuANTkybBX7OiWW3XTXep4OsHAIC5SPfdu1Y7q0+E7UDfqHAHpi71L3SkMp8uhHDJkUoAAJiNuunOpyGp+rbnc7edVKulXjzQXyrcgalrJ5UhqnlVKm0AAGCmDEnNKz5vrpW8AEB/CdyBWVk1RDWry+mkAQAAMEV1022HEK5Y02zic+aGE71AXwncgZlINz9C97zW66bbKHkBAABgmtL99YcWNasYtt8v+PqBntPDHZipdEP6qVXO6h/dkAIAwMmkIamxb/s5S5nNtXZSbRd67cBACNyBmUtHLlWB5LOfhqg+LHUBAADgJNKQ1IfC9qxupXlhAL2mpQwwc+2k2goh3LbS2cSHgt30kAAAAByfyva84pDUrZIXABgOgTswLxvpJok8LoYQHL0EAIBjqptuJ91Pk0c8sbtqSCowFAJ3YC7SzdGGIapZxSGq1wu+fgAAOJY0k2rdqmUlbAcGRQ93YK7qplsLIXxm1bP6XTupdgu+fgAAeKW66VZDCJ9bqayutpNqp+DrBwZIhTswVynovWbVs9qpm+5SwdcPAAAvVTfdhTgHySpldUvYDgyRCncgi9QH0dHMfLoQwiVHMwEA4C/VTXc+DUnVtz2fu+2kWi314oFhU+EO5LJliGpWlYodAAB4IUNS84rFQWslLwAwbAJ3IItUWb1qiGpWl9NJAwAA4Kfq9ushhCvWIpv4fLjmJC4wZAJ3IJvnQnfyWa+bbsP6AwBQunRf/FHp65DZRjup7he9AsDgCdyBrNLN1FW7kNWnhqgCAFCydD+87U2Q1Y12Uml7CQyeoalAL9RNF29uP7Qb2cSjmxcc3QQAoDRpSOr9NOeIPG61k8rJW2AUVLgDvdBOqjhE9a7dyOZcCOFOetgAAICS3BG2Z/UghLBV8PUDIyNwB/pkLd1skcdFx2gBAChJ3XQ76T6YPAxJBUZH4A70RrrJ2kg3XeQRh6iqLgEAYPTSkNR1O53VajupHhZ8/cAICdyBXklDVPXuy+vjuunWSl4AAADGrW661RDCp7Y5q6vp+Q9gVATuQO+kyfQ37ExWO3XTXSr4+gEAGKm66S6EEHbtb1ZxSOpOwdcPjNjC0dGR/QV6KfVTdMQznwfpiKd+igAAjELddOfTkFR92/O5206q1VIvHhg/Fe5An20ZoprVRZU/AACMzLawPasuDkkt+PqBAgjcgd5KldVrhqhmdbluuu2Crx8AgJGom+66E7RZxee6NSdogbHTUgbovdRL/As7ldVVPRYBABiquuliIc9nNjArzxRAEVS4A72XJtdftVNZfWqIKgAAQ5TuYwW9ed0QtgOlUOEODIYhqtnFI6AXHAEFAGAo0pDUWMBT2bRsbreTSt92oBgq3IHBaCfVRpxob8eyORdCuJMeWgAAYAh2he1ZPQghbBR8/UCBBO7A0KylyfbkcTGEYIgqAAC9l07IXrZT2RiSChRJ4A4MSrpZW0s3b+SxXjfdlrUHAKCv6qbb0I4yuxi2Pyx8DYAC6eEODFLddDF0/8zuZfVBO6nuFHz9AAD0UBqS+oW9yeqqIalAqVS4A4PUTqrYi/GG3ctqNz3MAABAL9RNdyHOHbIbWd0StgMlU+EODFrddDF4v2IXs4lDkFb1ZQQAILc03P9OmjtEHg/aSaUoByiaCndg6DZS6Ese8WFG9QoAAH2wLWzPqovFOAVfP8CPVLgDg5eOjd4PIZyzm9l80k6qQQ5SXdnci5VQL6rCefbPv07vr79y7+ay48oAAC+wsrkX79EvvOD/ayb3WHXTXQ8hfGQvstlPJ19fuKcAJRG4A6NQN12spPjcbmbVy8FIK5t7l9LD3rP/vpAe9KZd/XQ3/fed5/774b2byw+n/O8BAMhuZXNv9bl7q1ndY+0/F8rfeS6k/4t7rLrp1kIIn3lXZGVIKkAicAdGo2662F7mUzuaTfaqlvTgt/pcuN6XI8UxjH+YHhDv3Lu5rPIHABiE504DPrvHiv+pevLa7y4uhP/17pmD+u3Fo789syjfyORGO6muF3nlAC8gcAdGpW66WFWxbleziaH7hXkMUU0Pf6vP/Wdo/TrvpkqtO1rTAAB9kVrBPF/EMJh7rIUQHp9ZPHr0q6XD/+2dU4d/I4Cfi9vtpFor4DoBXpvAHRiduunuG5aU1YN2Ur2oJ/qJpfYwa+k/Y9rj/RS+76YAXhsaAGBu0j3WRhhmEcMvigH82VOHMYB/71enDs8uLvT0hQ7Xg3TCdebFNgBDInAHRqduuvOpdUdfjrqW6FY7qTamcd3PPQCuFbSn8eElntbYFb4DALOwsrm39lwhw7kSFvn04tG//nrp8J3fLD39G+H7iRmSCvALBO7AKNVNdylVDBfx8NBT19pJtf0mLy0dZd4qLGT/JTF8307hu+ohAOCNPVfIsFH6ffJbi0f//JvTT1W+v7kP2kmlLSLACwgTrf6pAAAc1ElEQVTcgdEyRLUXjnUjvrK59+wB8PK4l+WN3YqV73q+AwCvK829eXaPpe3iz8S2M++cOvyvvznz9H0931/bGxfWAJRA4A6MWt10cVr+R3Y5m1ceNU3V7Bupot2JhNfThRCuq3oHAH5Juse6XlLLmJM6s3j05bnTT3/z66XDs8O+kpmaWutIgLESuAOjVzddHER5xU5n88JhSs89BK6XtRxTtZ/azWwL3gGA8NM91mq6x3Ji8A0tLoT986efHur1/lcetJPqUs9eE0DvLNkSoAAbqZ+7I7R5XEwDQGN1lYfA6TqXTnBsrWzuCd4BoGDusabn8Cic++r7U+EP3596fO700+/Pn356TvD+08nVHrwOgN5T4Q4UwRDV/L47XPjk3x6fvuQhcKZUvANAYQTtsxf7vBcevL+yTSQAfyZwB4pRN118GPncjs/XwdFC+M8np7785uni+yVdd2aCdwAYuZXNvUvp+17QPicLIXz33lsHRwX2eL/aTqqdHrwOgEEQuANFqZsuDub82K7P3uFRCF//cGr/6x9OOVWQz4/DVe/dXPaABAAjsbK5dz4F7ebgZBJ7vL//1sG5s6cOS7jcT9pJtdWD1wEwGAJ3oDh10+14QJmtbw4Wv/3990s/xP6XY77OAbkb+7zfu7nsGDAADNjK5t5Wah/jHqsHzp46fPTbt56+t7Qw2lzldjup1nrwOgAGReAOFKluuvuGqE5fbB/z798tPfr+cOG9sV3bSNzQZgYAhie1j9lx/9o/CyF8++6Zp4vnTj99e2SX9iD1bXffCHBMixYMKNRq6nPNlOz/cOq7f/729LfC9l77KIRwPw1XAwAGYGVzL1a0fyFs76ejEN75z+9Pvf1P356ORSdjuaz4nLQhbAd4MyrcgWLVTRcrhe44knsyqtoH65PU392DFAD0kKr2YTp/+un+u2eeDv354oN2Ut3pwesAGCQV7kCx2kkV28oYAHQCfzxYfKyqfbA+jD84pYd5AKBHVLUP19c/nDr3L49PP4pFKQN1TdgOcDIq3IHi1U23ncJHXtPhUQhfPll69PjpoqB9HK7du7m8XfoiAEBuK5t750MIuyGEyzZj2BZCePx3bx0c/Wrp8J0BXcitdlJt9OB1AAyawB3gp9A9PthcsRavFntTxhYyB0eq2kfmduzVqcUMAOSRZqzsanc4Lr9eOnz027cOhnDfbEgqwJRoKQPwk410k8lLxBYy//r49LfC9lG6osUMAOSxsrkX2xx+Lmwfnz8eLL73T9+e/uqw37WO+8J2gOlR4Q6QGKL6cr9/svQoPjD0+TUyFfup0n3XcgLAbKUWMrGt27qlHreFEL77+7M/vH1msZcZzD+m+VYATIEKd4Ak3WTqWfgzsRpn7zthe0HiD06fpUo7AGBGUth+R9hehqMQ3v6Xx6d/PDHaswu+KmwHmC6BO8Bz2kkVq3qvWZOfxLD9Xx6f/spw1CJ9vLK5t1P6IgDALKQWbg9DCBctcFl+/2Tp7Fffn9rvyUV/0k4q93sAU6alDMAL1E23U3q1URyO+q+PT38Xq3F68HLIxzBVAJiiFLZrY1i4Xy0dfvX+WwfvZlyFu+2kWi19HwBmQYU7wIttlTxENYXtj4XtPDdM9bzFAICTWdnci+0LvxC2883B4rtfPln6KtNCxOecteI3AWBGVLgD/IK66c6no75FPRA9F7af7cHLoT/ig9mqSncAeDMpbP/U8vG8pYWjr/772R/eXVyY27LEdjar+rYDzI4Kd4Bf0E6qGCwWdcxS2M5LXFTpDgBvRtjOLzk4Wng3zkw6nF8t5IawHWC2BO4AL5FuRq+WsEbCdl6D0B0AjknYzqvMMXS/1k6qXRsCMFsCd4BXSJP7PxnzOgnbOQahOwC8JmE7r2sOofutdlJt2xCA2RO4A7yGdlLFIap3x7hWwnbegNAdAF5B2M5xxdD999/PZJBqnMWzZUMA5kPgDvD61tLN6mgI2zmBH0N3CwgAf21lc+9SCEE1Mcf2zcHiu18+mWro/mxIqsH3AHMicAd4TekmdSPdtA5ePK76b9+d3he2cwIXVzb3diwgAPxZCtvjj9LnLAtvIobuv3+y9GhKiydsB5gzgTvAMaQhqhtDX7MYtqcekR4EOan1lc09FXwA8FPYHtut7QrbOak/Hiy+98eDxccn/J+5mp5fAJgjgTvAMaXJ/jeGvG6xN2TsEdmDl8I4fJj61AJAsVLYHivbK+8CpuH3T5bOPn76xrHNJ+2kchIRIAOBO8AbaCfV9Tjpf4hr99X3p/bjMdUevBTG5dN0hB4ASrWdZpzA1Pz7d0uPD44Wjvs/d7edVIakAmQicAd4c1tDG6L6zcHit1//cMoRZ2blTqruA4CirGzuxfvCdbvOtMV5S//2eCm2gnxdXQhhzUYA5CNwB3hDafjQ2lCGqMbKmP94snTs8hg4hnOpby0AFCOd8PrYjjMrsRVkbAn5Gv/z8blkzZBUgLwE7gAn0E6qh3Hy/xDWMFbGxAqZHrwUxu2yIaoAlOK5vu0wU7El5GsMUd0wJBUgP4E7wAmlm9qrfV7H3z9ZemRIKnMUh6gO4ocoADihnXTCC2bu0ZOlo+8Pf/HA6o12UjlpCNADAneAKWgn1U5fh6jGvu1/PFh8rwcvhbLs6ucOwJilvu1XbDLzchTCO//+3dKjF/zrbrWT6rqNAOgHgTvAlLSTaiOEcLdP6xmHK/3HkyWf9eRwLlX9AcDopL7tAk7m7uBo4b14evW5f++DEMKWnQDoDyEMwHTFIapdX9b0yydLj45CeLsHL4UyXVnZ3Fuz9wCMkFYyZBNPrz5++mOcY0gqQA8J3AGmKN3srqWb36xiK5nHT7WSIbsdrWUAGJOVzb1Y2X7RppLTl0+W/vD46eL/bCfVQxsB0C8Cd4ApS0NUN3Kuq1Yy9IjWMgCMxsrm3oUQwkd2lNwOj8Lf7H239H/ZCID+EcYAzEA7qXZDCDdyre3vnyx9qZUMPaK1DABj4Udk+uTDNE8AgB4RuAPMSDup4nHj2/Ne39jP8Zuni+/bV3pmW2sZAIZsZXMvnmC8bBPpmW0bAtAvAneA2YoPZg/muca/f3LqkT2lh6oQwpaNAWCI0o/Ggk366HL6MQiAnhC4A8zQvIeo/vFg8fHB0YJBqfTVR6n3LQAMzVaaSwJ95CQhQI8I3AFmrJ1UD1PoPlNxUOqjJ0sL9pOeu26DABgSg1IZgHNOEgL0h8AdYA7aSXUnhHB1lv+mr384tW9QKgOwvrK5t2qjABgQPxYzBFtOEgL0g8AdYE7aSbUTQrg1i39brG7f/+HUGXvJQAguABiElc29S/HHYrvFAJxzjwXQDwJ3gDlqJ9VMhqj+5/dLj45COGsvGYjLqtwBGAiDUhmSdVXuAPkJ3AHmLwaN3bT+rQdHC3FYqkGpDI0KLAB6Lf04fNkuMTDusQAyE7gDzFk7qb5OQ1T3///27mY3riM9A3D1D0nRsk3ZluN0AoO6AwloIFsxVyDNImvLuYAeeZnVyCstQ/cNRFprI11BqAtoRLwDCsGg4YkxFj2xNZbI7uBoShOPIVt/dc6pc+p5AEHwxqbra4BVb3/1VYr/8ndPh0n+PdAwXe4A5M4jlHSRLneAlgncAVpw5+bugxSHOLPb6TgdWABkKQaWV1SHjrLHAmiRwB2gJfER1S/f5r/+6Ono2Ox2OuxyfIwOAHIjsKTLqi73cyoI0A6BO0CL7tzcrQ5z9970J9DdTg+4rg9AVmJQ+Zmq0HH2WAAtEbgDtO9aCOHwdX+KP50MH+tupwd0YAGQG0ElfeBzDNASgTtAy+Ijqtde9xHVb5+Mvlc7esKBEICcXFMNemBnOlv6LAO0QOAOkIH4iOrVV/1JnqwG4WQ9OK929ITDIABZiAHlrmrQE/ZYAC0QuANk4s7N3YMQwhev8tN8+2T0tbrRI7vT2fKVv3ACgBr5fUSfVA/UX1BRgGYJ3AEycufm7n4I4fbLfqIfTofvqxs9I+AAoFUxmLyiCvSM0X0ADRO4A2Tmzs3dX31E1WOp9JTHUwFomy9/6SOfa4CGCdwB8rT3S4+ofvd09I2a0VMOhAC0ybxr+sjoPoCGCdwBMnTn5u6jF4Xuq3UIP64Gn6oZPeUwCEArprPlpRDCRatPT9ljATRI4A6QqTs3dx/8fObi96fDx+pFj10xVgaAlggk6TOfb4AGCdwBMnbn5u6tEMJXz39C42QogAMhAG3w+4c+2zFWBqA5AneAzN25uVt1ud+rfkrjZCiAwyAAjZrOlheMk6EAe4oM0AyBO0A3XPvfk+GRWlEAh0EAmubLXkrgcw7QEIE7QAdUj6j+4cfxPbWiANWVZ6E7AE3ye4cS7MbbHADUTOAO0B26UiiFzzoATbpitSmEPRZAAwTuAB0Qu1F21YpC6DQEoBFuVVEYn3eABgjcAbrB5piSXJzOludUHIAG2GNREp93gAYI3AG64ZI6URifeQCaIICkJNVbOfZYADUTuAN0g8MgpfGZB6AJwkdK4zMPUDOBO0A3XFQnCiNwB6BWsdN3xypTGHssgJoJ3AEy5zEvCqX7CoC6+V1DiXzuAWomcAfIn00xJapmjF5QeQBqZI9FidycBaiZwB0gfw6DlErgDkCd7LEokhu0APUSuAPkT+hIqRwGAaiTwJ1SOV8A1GhscQGyd1mJKNE7o9W//su/Pfyd4gOQ2mpd/Qs3rSulErgD1EiHO0DGzLCmZE/Xg5UPAAB1+HHlKEzR3CIEqJFdBkDeBO4U6+lqsKv6ANThZB0eW1gAoA4Cd4C8CdwBABJ7shr8wZpSMCMrAWokcAfIm8Cdoj0+tVUBIL2nq4FfMABALWwyAPJ2Tn0AANLyTgilm86W5rgD1ETgDpC3S+pDyczYBQAAoEsE7gBAtszYBaAOHuYGN2kB6iJwB8ibGe4AAEBqbtIC1ETgDpA33VcUbbUejEtfAwAAALpD4A4AZOvPq8GJ6gCQ0mptOQGA+gjcAQAAKMaPK8dgAKA+dhoAAAAAZdlTb4B6CNwBAAAAACABgTsAAAAAACQgcAcAAAAAgAQE7gAAAAAAkIDAHQAAAAAAEhC4AwAAAABAAgJ3AAAAgLIcqDdAPQTuAAAAFGNjuFZsAKA2AncAIFsbg7W9CgBJjQcCdwCgPg6xAHk7Vh9KtjFcr3wAAAAA6AqBO0DeHqgPAACQ2JEFBaiHwB0AyNZoEN5XHQBSGw3WX1tUCidwB6iJwB0gbzbCFG1ruP6g9DUAIL3hIPzZsgIAdRC4A+RN4A4AkNjQWRiMrgSoiU0GQN4eqQ8l2xp6MxWA9M6MVn7BULTFfOKcAVATgTtA3nSeULThoPQVAKAO3gihcIelLwBAnQTuAHnTeUKxPGgHQF28EULhnDEAaiRwB8jYYj7R4U6xxoPwRPUBqMPGcG1dKdmB6gPUR+AOkD9XPimS+boA1GU8ELhTNB3uADUSuAPk70iNKNGZ0XpX4QGoy8Zw/dDiUii3aAFqJHAHyJ8NMUXa0H0IQI02BmvnYYq0mE+MlAGokQ0GQP5siCnSpvm6ANTozGj9rvWlQG52ANRM4A6QPx3uFMc1fwDqtjVcf2CRKZCzBUDNBO4AmVvMJ490olCaM8P1WNEBqNP2yNvcFMntWYCaCdwBukEnCkV5Z7z6RxUHoG5uVFEg5wqAmgncAbpBJwpF2TK/HYAGuFFFaTyYClA/gTtAN9gYU4zhIHw7HgjcAaifG1UU5r6CA9RP4A7QAYv5pLr6eaxWlODsaPWDQgPQhO2hOe4URRMPQAME7gDdcVetKIFuQwCaMhw8m+P+ewtOIZwnABogcAfoDh0pFEG3IQBNem+8eseCU4DjeGsWgJoJ3AG6Q0cKvVd1GVbdhgDQlHdGqw8sNgVwlgBoiMAdoCMW88mjEMKhetFnugwBaNrmcP3swW4LT88J3AEaInAH6JZb6kWfvTvWZQhA886OVqeWnZ4znhKgIQJ3gG7RmUJvjQfrb8aDtQID0LidjdPzVp0euxdvywLQAIE7QIcs5pMjY2Xoq/c3ViPFBaANxsrQc5p2ABokcAfoHmNl6CXjZABok7Ey9NTxYj5xfgBokMAdoHtsmOmdreH6v42TAaBNH2waK0Mv6W4HaJjAHaBj4vzFe+pGn7xvdi4ALau++K3eE1EHekazDkDDBO4A3WTjTG8MQnj83ni1raIAtO2DzdOzikCPPFzMJwcKCtAsgTtABy3mk+pq6EO1ow/eHa++V0gAcnB2tNquvghWDHpiXyEBmidwB+guXe70gpm5AORiOAjhndHqOwWhB46dFwDaIXAH6K79uJGGzvJYKgC5+Wjr9BNFoQfuxrefAGiYwB2go+IG+q760WUfbp5+qoAA5KT6Irj6QlhR6LgbCgjQDoE7QLfZSNNZm8P119ujlQICkB1fCNNx9xbzyZEiArRD4A7QYXEjfVsN6aKdjdP3FQ6AHFVfCFdfDCsOHeWxVIAWCdwBuk+XO50zHITj98arbZUDIFcfbZrlTifdX8wnB0oH0B6BO0DH6XKniz7aPNlUOABypsudjtKMA9AygTtAP9hY0xnjwfob3e0AdIEudzpGdztABgTuAD2gy50u+Xjr9LyCAdAFutzpGE04ABkQuAP0hw022atCiyq8AICu+LutE13udMFt3e0AeRC4A/RE7HL/Uj3JmdACgK7ZHK7D2dFKlzs5O9Z8A5APgTtAv+zHDTdkpworqtACALrm462TTwYhPFY4MrUfm28AyIDAHaBHFvPJoxDCdTUlN1VI8bHudgA6ajgIYWfj9In6kaGHsekGgEwI3AF6ZjGf3Aoh3FdXcvLh5umgCisAoKs+3DzdGQ/W3yggmbkem24AyITAHaCfrqkrudgcrr/Z2Tg9oyAAdN3HW6fnFZGM3FvMJ3cVBCAvAneAHvKAKjn5+zMnwgkAemF7tArvjVe63MnBsSYbgDwJ3AF6ajGf3AghHKovbTq3cXo8HngoFYD++Gjz5Pxw4JF6WnfDKBmAPAncAfpN1wutGQ/Wf6zm3aoAAH1SvUnyydaJ32+0qRol46FUgEwJ3AF6bDGfPAghfKHGNG0Qwg//sH3yoYUHoI+q0TLVLS7FpQVGyQBkTuAO0HOx++W+OtOk81snA6NkAOiz6hZXdZtLkWnYNaNkAPImcAcow9XYDQO1Ozte/fG98WrbSgPQd9VtrkEIjxWahny1mE/uWmyAvA3Wa91nACWYzpZ7IYT/VGzqNByEo0+3n/x+NAgnFhqAEvzpZLj9Pz+O/0mxqdnhYj65ZJEB8idwByjIdLa8HkL4dzWnJtUtir34dgAAFGM6W1Yj/H6r4tSk2mNdMEoGoBsE7gCFmc6Wt0IIn6k7NfiNa84AlGo6Wx6EEC77AFCDf17MJwcWFqAbzHAHKE/V5X6o7iT2pbAdgMJdtceiBp8L2wG6RYc7QIGms+W5EMJRCGFH/Ung9mI+uWYhASjddLasZmwf2GORiD0WQAcJ3AEK5UBIIh7wAoCfiHus/7ImvCVhO0BHGSkDUKj4sOVV9ectVNfm9ywgAPy/uMf63JLwFg7jGEgAOkjgDlCwOA/SgZA38bAK2xfzySOrBwB/azGf3LLH4g0d2mMBdJvAHaBwDoS8gePqdoSDIAD8srjH+sIS8RqE7QA9YIY7AM9MZ8tqRuR/WA1e4jgeBB9YKAB4uelsWQXvn1kqXqK6PXhJ2A7QfTrcAXhGpzuvQNgOAK8pPnx527rxKw7dHgToD4E7AH8ldOdXCNsB4A3F0P1L68cLHNpjAfSLwB2AvyF05wUcBAHgLS3mkxv2WPyMme0APWSGOwAvFGe674cQdqxQ0RwEASAh7+YQ2WMB9JQOdwBeKHa678VRIpTpvoMgAKQV91i/sccq2m17LID+0uEOwK+azpaXQgjVwfCilSrK7ThvFgCoQdxjHbhNWJyvFvPJ9dIXAaDPBO4AvNR0tjwXQrgbQrhstYrwxWI+2S99EQCgbnGPdaCxoRifxxsOAPSYwB2AVzadLasQ9rdWrLeqq+1XF/PJQekLAQBNms6WVQj7mUXvrWMP0AOUwwx3AF5ZvP5q5mg/VQ93XRK2A0Dz4hi3zy19L1Vv4lwQtgOUQ4c7AK/NXPfeMUsUADIQ91jVGL9d9eiFLxfzyY3SFwGgNAJ3AN6YETOdV91UuLaYT+6WvhAAkIs4133fiJlOM6YPoGACdwDeynS23Ivd7jqxuuV+PAg+Kn0hACBH09nyatxj7ShQp9yLDQ32WACFErgD8NZ0YnVK1XF1YzGf7Je+EACQu7jHqkL3K4qVPTcHAXhG4A5AMrrds1d1XF1fzCdHpS8EAHSJbvfs3Y57LF3tAAjcAUgrdmJVD3D+ztJm42E8BOq4AoCOinusG97PycrD2NVuVjsAfyVwB6AW09nyQuzEumyFW3McR/3s67gCgH6YzpaX4u93e6z2HMf91Y1SFwCAXyZwB6BWccxMdSi8aKUbdTvOajc+BgB6KI6Z2TfKr3HGxwDwqwTuADRiOltei9egHQrrdT8eAh/0+X8SAPgLe6zGaGYA4JUI3AFolENhbe7HQ6AZogBQIHus2gjaAXgtAncAWuFQmMztOENURzsAYI+VjqAdgDcicAegVXHG+/UQwhWVeGXH8UHafYdAAOBF4oz36x5XfS3PH5y/ZY8FwJsSuAOQhelseSEeCquurB1VeaHDeAi866EuAOBVxD1W1fF+1R7rF92PIfutTH8+ADpE4A5AdmJH1jVd788872a/ZWwMAPCmprPluRi6X7XHeuZh1cTgxiAAqQncAchWwQfD43gArDrZ72bw8wAAPRK73p83OFwsqLbP91i3PDQPQF0E7gB0ws/C970eXol+3mV1IGQHAJoSw/e9Hjc4VCP5DtwWBKApAncAOik+tvr8TxcfAzuOh7/nIburzABA63qwx3oY91gH9lgAtEHgDkAvxMPhpZ/8ye16dPUY14P4x+EPAOiEn+yxnv+9m9HPffzT/VX1tz0WAG0TuAPQW/GAeCH+qQ6I5+LfdY2jqTqqjuKh71E8+B05+AEAfdLCHusw7q3ssQDInsAdgCLFmfCXfvL/vvca6/D8wPeMR7cAAP4izoS/EP/x5/utlzmKf56xxwKgiwTuAAAAAACQwNAiAgAAAADA2xO4AwAAAABAAgJ3AAAAAABIQOAOAAAAAAAJCNwBAAAAACABgTsAAAAAACQgcAcAAAAAgAQE7gAAAAAAkIDAHQAAAAAAEhC4AwAAAABAAgJ3AAAAAABIQOAOAAAAAAAJCNwBAAAAACABgTsAAAAAACQgcAcAAAAAgAQE7gAAAAAAkIDAHQAAAAAAEhC4AwAAAABAAgJ3AAAAAABIQOAOAAAAAAAJCNwBAAAAACABgTsAAAAAACQgcAcAAAAAgAQE7gAAAAAAkIDAHQAAAAAAEhC4AwAAAABAAgJ3AAAAAABIQOAOAAAAAAAJCNwBAAAAACABgTsAAAAAACQgcAcAAAAAgAQE7gAAAAAAkIDAHQAAAAAAEhC4AwAAAABAAgJ3AAAAAABIQOAOAAAAAAAJCNwBAAAAACABgTsAAAAAACQgcAcAAAAAgAQE7gAAAAAAkIDAHQAAAAAAEhC4AwAAAABAAgJ3AAAAAABIQOAOAAAAAAAJCNwBAAAAACABgTsAAAAAACQgcAcAAAAAgAQE7gAAAAAAkIDAHQAAAAAAEhC4AwAAAABAAgJ3AAAAAABIQOAOAAAAAAAJCNwBAAAAACABgTsAAAAAACQgcAcAAAAAgAQE7gAAAAAAkIDAHQAAAAAAEhC4AwAAAABAAgJ3AAAAAABIQOAOAAAAAAAJCNwBAAAAACABgTsAAAAAALytEML/AeU7kdBx3zyvAAAAAElFTkSuQmCC;fontColor=#1F1F1F;" parent="1" vertex="1">
                    <mxGeometry x="802.51" y="382" width="44.5" height="44.53" as="geometry"/>
                </mxCell>
                <mxCell id="718" value="" style="group;fontColor=#1F1F1F;" vertex="1" connectable="0" parent="1">
                    <mxGeometry x="557" y="197.01" width="138.01" height="158" as="geometry"/>
                </mxCell>
                <mxCell id="719" value="" style="rounded=1;absoluteArcSize=1;arcSize=2;html=1;strokeColor=#23445d;shadow=0;dashed=0;strokeColor=none;fontSize=13;align=center;verticalAlign=top;spacing=10;spacingTop=-4;fillColor=#FFFFFF;fontStyle=1;fontColor=#1F1F1F;" vertex="1" parent="718">
                    <mxGeometry width="126" height="144" as="geometry"/>
                </mxCell>
                <mxCell id="720" value="Batch Receiver" style="rounded=1;absoluteArcSize=1;arcSize=2;html=1;strokeColor=#82b366;shadow=0;dashed=0;strokeColor=none;fontSize=13;align=center;verticalAlign=top;spacing=10;spacingTop=-4;fillColor=#d5e8d4;fontStyle=1;fontColor=#1F1F1F;" vertex="1" parent="718">
                    <mxGeometry x="7.5" y="12" width="111" height="43" as="geometry"/>
                </mxCell>
                <mxCell id="721" value="" style="rounded=1;absoluteArcSize=1;arcSize=2;html=1;strokeColor=#23445d;shadow=0;dashed=0;strokeColor=none;fontSize=13;align=left;verticalAlign=top;spacing=10;spacingTop=-4;fillColor=#E1F5FE;fontStyle=1;fontColor=#1F1F1F;" vertex="1" parent="718">
                    <mxGeometry x="7.509999999999991" y="76" width="111" height="56" as="geometry"/>
                </mxCell>
                <mxCell id="722" value="" style="shape=image;verticalLabelPosition=bottom;verticalAlign=top;imageAspect=0;aspect=fixed;image=data:image/svg+xml,PHN2ZyB4bWxucz0iaHR0cDovL3d3dy53My5vcmcvMjAwMC9zdmciIHhtbG5zOnhsaW5rPSJodHRwOi8vd3d3LnczLm9yZy8xOTk5L3hsaW5rIiB3aWR0aD0iMzY3cHgiIGhlaWdodD0iMjcwcHgiIHZpZXdCb3g9IjAgMCAzNjcgMjcwIiB2ZXJzaW9uPSIxLjEiPiYjeGE7ICAgIDwhLS0gR2VuZXJhdG9yOiBTa2V0Y2ggNTEuMyAoNTc1NDQpIC0gaHR0cDovL3d3dy5ib2hlbWlhbmNvZGluZy5jb20vc2tldGNoIC0tPiYjeGE7ICAgIDx0aXRsZT5BcnRib2FyZDwvdGl0bGU+JiN4YTsgICAgPGRlc2M+Q3JlYXRlZCB3aXRoIFNrZXRjaC48L2Rlc2M+JiN4YTsgICAgPGRlZnMvPiYjeGE7ICAgIDxnIGlkPSJBcnRib2FyZCIgc3Ryb2tlPSJub25lIiBzdHJva2Utd2lkdGg9IjEiIGZpbGw9Im5vbmUiIGZpbGwtcnVsZT0iZXZlbm9kZCI+JiN4YTsgICAgICAgIDxwYXRoIGQ9Ik04OS43OTE3MTE5LDE5My41MDg3NjEgTDYyLjkwMDAzOTIsMTkzLjUwODc2MSBMNjIuOTAwMDM5MiwxODUuMDY0MTIgQzYwLjMzMTEwNjQsMTg4LjI4ODk1IDU3LjczNDg4MzUsMTkwLjYzOTIxNSA1NS4xMTEyOTI2LDE5Mi4xMTQ5ODUgQzUwLjUyMDAwODQsMTk0LjY4MzkxOCA0NS4zMDAyMzM5LDE5NS45NjgzNjUgMzkuNDUxODEyNCwxOTUuOTY4MzY1IEMyOS45OTU5NTM0LDE5NS45NjgzNjUgMjEuNTc4NzI1NCwxOTIuNzE2MjU0IDE0LjE5OTg3NTksMTg2LjIxMTkzNSBDNS4zOTk5MTQ2NCwxNzguNDUwNDc4IDEsMTY4LjE3NDkwMSAxLDE1NS4zODQ4OTUgQzEsMTQyLjM3NjI1NyA1LjUwOTIyOTI5LDEzMS45OTEzNjUgMTQuNTI3ODIzMSwxMjQuMjI5OTA5IEMyMS42ODgwNDAxLDExOC4wNTM1MzggMjkuOTEzOTY3NCwxMTQuOTY1NCAzOS4yMDU4NTIsMTE0Ljk2NTQgQzQ0LjYxNzAwODMsMTE0Ljk2NTQgNDkuNzAwMTM5NSwxMTYuMTEzMjAzIDU0LjQ1NTM5ODEsMTE4LjQwODg0NSBDNTcuMTg4MzA1MywxMTkuNzIwNjQxIDYwLjAwMzE1NzYsMTIxLjg3OTYwNSA2Mi45MDAwMzkyLDEyNC44ODU4MDMgTDYyLjkwMDAzOTIsNzAuMzY0NTc2NiBMODkuNzkxNzExOSw3MC4zNjQ1NzY2IEw4OS43OTE3MTE5LDE5My41MDg3NjEgWiBNNjMuNzE5OTA3MywxNTUuNDY2ODgyIEM2My43MTk5MDczLDE1MC42NTY5NjUgNjIuMDI1NTMwMiwxNDYuNTcxMzMgNTguNjM2NzI1MywxNDMuMjA5ODU1IEM1NS4yNDc5MjAzLDEzOS44NDgzNzkgNTEuMTQ4NjIxLDEzOC4xNjc2NjYgNDYuMzM4NzA0MiwxMzguMTY3NjY2IEM0MC45ODIyMDYxLDEzOC4xNjc2NjYgMzYuNTgyMjkxNCwxNDAuMTg5OTg3IDMzLjEzODgyODMsMTQ0LjIzNDY5IEMzMC4zNTEyNjI5LDE0Ny41MTQxNzggMjguOTU3NTAxMiwxNTEuMjU4MjA1IDI4Ljk1NzUwMTIsMTU1LjQ2Njg4MiBDMjguOTU3NTAxMiwxNTkuNjc1NTU5IDMwLjM1MTI2MjksMTYzLjQxOTU4NiAzMy4xMzg4MjgzLDE2Ni42OTkwNzUgQzM2LjUyNzYzMzMsMTcwLjc0Mzc3NyA0MC45Mjc1NDc5LDE3Mi43NjYwOTggNDYuMzM4NzA0MiwxNzIuNzY2MDk4IEM1MS4yMDMyNzkxLDE3Mi43NjYwOTggNTUuMzE2MjQyOCwxNzEuMDk5MDUgNTguNjc3NzE4NywxNjcuNzY0OTAzIEM2Mi4wMzkxOTQ2LDE2NC40MzA3NTYgNjMuNzE5OTA3MywxNjAuMzMxNDU3IDYzLjcxOTkwNzMsMTU1LjQ2Njg4MiBaIE0xOTAuNjUwMDYsMTkzLjUwODc2MSBMMTYzLjc1ODM4NywxOTMuNTA4NzYxIEwxNjMuNzU4Mzg3LDE4NS4wNjQxMiBDMTYxLjE4OTQ1NCwxODguMjg4OTUgMTU4LjU5MzIzMSwxOTAuNjM5MjE1IDE1NS45Njk2NDEsMTkyLjExNDk4NSBDMTUxLjM3ODM1NiwxOTQuNjgzOTE4IDE0Ni4xNTg1ODIsMTk1Ljk2ODM2NSAxNDAuMzEwMTYsMTk1Ljk2ODM2NSBDMTMwLjg1NDMwMSwxOTUuOTY4MzY1IDEyMi40MzcwNzMsMTkyLjcxNjI1NCAxMTUuMDU4MjI0LDE4Ni4yMTE5MzUgQzEwNi4yNTgyNjMsMTc4LjQ1MDQ3OCAxMDEuODU4MzQ4LDE2OC4xNzQ5MDEgMTAxLjg1ODM0OCwxNTUuMzg0ODk1IEMxMDEuODU4MzQ4LDE0Mi4zNzYyNTcgMTA2LjM2NzU3NywxMzEuOTkxMzY1IDExNS4zODYxNzEsMTI0LjIyOTkwOSBDMTIyLjU0NjM4OCwxMTguMDUzNTM4IDEzMC43NzIzMTUsMTE0Ljk2NTQgMTQwLjA2NDIsMTE0Ljk2NTQgQzE0NS40NzUzNTYsMTE0Ljk2NTQgMTUwLjU1ODQ4NywxMTYuMTEzMjAzIDE1NS4zMTM3NDYsMTE4LjQwODg0NSBDMTU4LjA0NjY1MywxMTkuNzIwNjQxIDE2MC44NjE1MDYsMTIxLjg3OTYwNSAxNjMuNzU4Mzg3LDEyNC44ODU4MDMgTDE2My43NTgzODcsMTE3LjQyNTAwNCBMMTkwLjY1MDA2LDExNy40MjUwMDQgTDE5MC42NTAwNiwxOTMuNTA4NzYxIFogTTE2NC41NzgyNTUsMTU1LjQ2Njg4MiBDMTY0LjU3ODI1NSwxNTAuNjU2OTY1IDE2Mi44ODM4NzgsMTQ2LjU3MTMzIDE1OS40OTUwNzMsMTQzLjIwOTg1NSBDMTU2LjEwNjI2OCwxMzkuODQ4Mzc5IDE1Mi4wMDY5NjksMTM4LjE2NzY2NiAxNDcuMTk3MDUyLDEzOC4xNjc2NjYgQzE0MS44NDA1NTQsMTM4LjE2NzY2NiAxMzcuNDQwNjM5LDE0MC4xODk5ODcgMTMzLjk5NzE3NiwxNDQuMjM0NjkgQzEzMS4yMDk2MTEsMTQ3LjUxNDE3OCAxMjkuODE1ODQ5LDE1MS4yNTgyMDUgMTI5LjgxNTg0OSwxNTUuNDY2ODgyIEMxMjkuODE1ODQ5LDE1OS42NzU1NTkgMTMxLjIwOTYxMSwxNjMuNDE5NTg2IDEzMy45OTcxNzYsMTY2LjY5OTA3NSBDMTM3LjM4NTk4MSwxNzAuNzQzNzc3IDE0MS43ODU4OTYsMTcyLjc2NjA5OCAxNDcuMTk3MDUyLDE3Mi43NjYwOTggQzE1Mi4wNjE2MjcsMTcyLjc2NjA5OCAxNTYuMTc0NTkxLDE3MS4wOTkwNSAxNTkuNTM2MDY3LDE2Ny43NjQ5MDMgQzE2Mi44OTc1NDMsMTY0LjQzMDc1NiAxNjQuNTc4MjU1LDE2MC4zMzE0NTcgMTY0LjU3ODI1NSwxNTUuNDY2ODgyIFogTTI5NC41NDE5MiwxNTUuNTQ4ODY5IEMyOTQuNTQxOTIsMTY4LjU1NzUwNyAyOTAuMDMyNjksMTc4Ljk0MjM5OSAyODEuMDE0MDk3LDE4Ni43MDM4NTYgQzI3My44NTM4OCwxOTIuODgwMjI2IDI2NS42Mjc5NTIsMTk1Ljk2ODM2NSAyNTYuMzM2MDY4LDE5NS45NjgzNjUgQzI1MC45MjQ5MTEsMTk1Ljk2ODM2NSAyNDUuODQxNzgsMTk0LjgyMDU2MSAyNDEuMDg2NTIyLDE5Mi41MjQ5MTkgQzIzOC4zNTM2MTQsMTkxLjIxMzEyMyAyMzUuNTM4NzYyLDE4OS4wNTQxNTkgMjMyLjY0MTg4LDE4Ni4wNDc5NjEgTDIzMi42NDE4OCwyMzEuNTUwNjM5IEwyMDUuNzUwMjA4LDIzMS41NTA2MzkgTDIwNS43NTAyMDgsMTE3LjQyNTAwNCBMMjMyLjY0MTg4LDExNy40MjUwMDQgTDIzMi42NDE4OCwxMjUuODY5NjQ1IEMyMzUuMDQ2ODM5LDEyMi42OTk0NzMgMjM3LjY0MzA2MiwxMjAuMzQ5MjA4IDI0MC40MzA2MjcsMTE4LjgxODc4IEMyNDUuMDIxOTExLDExNi4yNDk4NDcgMjUwLjI0MTY4NiwxMTQuOTY1NCAyNTYuMDkwMTA3LDExNC45NjU0IEMyNjUuNTQ1OTY2LDExNC45NjU0IDI3My45NjMxOTQsMTE4LjIxNzUxIDI4MS4zNDIwNDQsMTI0LjcyMTgzIEMyOTAuMTQyMDA1LDEzMi40ODMyODYgMjk0LjU0MTkyLDE0Mi43NTg4NjMgMjk0LjU0MTkyLDE1NS41NDg4NjkgWiBNMjY2LjU4NDQxOCwxNTUuNDY2ODgyIEMyNjYuNTg0NDE4LDE1MS4xNDg4ODkgMjY1LjIxNzk4NSwxNDcuNDA0ODYyIDI2Mi40ODUwNzgsMTQ0LjIzNDY5IEMyNTkuMDQxNjE1LDE0MC4xODk5ODcgMjU0LjYxNDM3MiwxMzguMTY3NjY2IDI0OS4yMDMyMTUsMTM4LjE2NzY2NiBDMjQ0LjMzODY0MSwxMzguMTY3NjY2IDI0MC4yMjU2NzcsMTM5LjgzNDcxNCAyMzYuODY0MjAxLDE0My4xNjg4NjEgQzIzMy41MDI3MjUsMTQ2LjUwMzAwOCAyMzEuODIyMDEyLDE1MC42MDIzMDcgMjMxLjgyMjAxMiwxNTUuNDY2ODgyIEMyMzEuODIyMDEyLDE2MC4yNzY3OTkgMjMzLjUxNjM4OSwxNjQuMzYyNDM0IDIzNi45MDUxOTQsMTY3LjcyMzkxIEMyNDAuMjkzOTk5LDE3MS4wODUzODYgMjQ0LjM5MzI5OSwxNzIuNzY2MDk4IDI0OS4yMDMyMTUsMTcyLjc2NjA5OCBDMjU0LjYxNDM3MiwxNzIuNzY2MDk4IDI1OS4wMTQyODYsMTcwLjc0Mzc3NyAyNjIuNDAzMDkxLDE2Ni42OTkwNzUgQzI2NS4xOTA2NTcsMTYzLjQxOTU4NiAyNjYuNTg0NDE4LDE1OS42NzU1NTkgMjY2LjU4NDQxOCwxNTUuNDY2ODgyIFogTTM2My42NzEzNzMsMTQyLjI2NzAwNiBDMzU5Ljg5OTk2MSwxNDAuNDYzMjg4IDM1Ni4wNzM5NDksMTM5LjU2MTQ0MiAzNTIuMTkzMjIsMTM5LjU2MTQ0MiBDMzQzLjMzODYwMSwxMzkuNTYxNDQyIDMzNy41OTk1ODIsMTQzLjE2ODgyNSAzMzQuOTc1OTkxLDE1MC4zODM3IEMzMzMuOTkyMTQ0LDE1My4wMDcyOTEgMzMzLjUwMDIyOCwxNTYuNTMyNjg5IDMzMy41MDAyMjgsMTYwLjk1OTk5OCBMMzMzLjUwMDIyOCwxOTMuNTA4NzYxIEwzMDYuNjA4NTU2LDE5My41MDg3NjEgTDMwNi42MDg1NTYsMTE3LjQyNTAwNCBMMzMzLjUwMDIyOCwxMTcuNDI1MDA0IEwzMzMuNTAwMjI4LDEyOS44ODY5OTggQzMzNi4zNDI0NTIsMTI1LjQ1OTY4OSAzMzkuNDAzMjYyLDEyMi4yNjIyMzUgMzQyLjY4Mjc1MSwxMjAuMjk0NTQyIEMzNDcuMTEwMDYsMTE3LjY3MDk1MSAzNTIuMzU3MTY0LDExNi4zNTkxNzUgMzU4LjQyNDIxOCwxMTYuMzU5MTc1IEMzNTkuODQ1MzI5LDExNi4zNTkxNzUgMzYxLjU5NDM2NCwxMTYuNDQxMTYxIDM2My42NzEzNzMsMTE2LjYwNTEzNiBMMzYzLjY3MTM3MywxNDIuMjY3MDA2IFoiIGlkPSJkYXByIiBmaWxsPSIjMEQyMTkyIi8+JiN4YTsgICAgICAgIDxwb2x5Z29uIGlkPSJ0aWUiIGZpbGw9IiMwRDIxOTIiIGZpbGwtcnVsZT0ibm9uemVybyIgcG9pbnRzPSIyMDUuNTM4NDA5IDE5NC4wNjIxNzIgMjMyLjYxNDU1MSAxOTQuMDYyMTcyIDIzNC45NDY2MjEgMjU3LjYzMzgzMSAyMTkuMDc2NDggMjY4Ljc1NDQzIDIwMy4yMDYzMzkgMjU3LjYzMzgzMSIvPiYjeGE7ICAgICAgICA8cmVjdCBpZD0iUmVjdGFuZ2xlLTQiIGZpbGw9IiMwRDIxOTIiIGZpbGwtcnVsZT0ibm9uemVybyIgeD0iMTQ0LjgyOTQ5NyIgeT0iMi4yNzkwODgyOSIgd2lkdGg9IjEwMi43MjI2NDMiIGhlaWdodD0iNzIuMjk0MTQ0NCIgcng9IjIiLz4mI3hhOyAgICAgICAgPHJlY3QgaWQ9IlJlY3RhbmdsZS00IiBmaWxsPSIjRkZGRkZGIiBmaWxsLXJ1bGU9Im5vbnplcm8iIG9wYWNpdHk9IjAuMDc5OTk5OTk4MiIgeD0iMTQ0LjgyOTQ5NyIgeT0iMi4yNzkwODgyOSIgd2lkdGg9IjM3Ljk5NzYzNjkiIGhlaWdodD0iNzIuMjk0MTQ0NCIvPiYjeGE7ICAgICAgICA8cmVjdCBpZD0iUmVjdGFuZ2xlLTMiIGZpbGw9IiMwRDIxOTIiIGZpbGwtcnVsZT0ibm9uemVybyIgeD0iMTEyLjM5MDc2OCIgeT0iNjkuOTA5MDk0NCIgd2lkdGg9IjE2Ni4yNDg0ODgiIGhlaWdodD0iMTcuMzUxMzQxMiIgcng9IjMuNzIwMTYiLz4mI3hhOyAgICAgICAgPHJlY3QgaWQ9IlJlY3RhbmdsZS00IiBmaWxsPSIjRkZGRkZGIiBmaWxsLXJ1bGU9Im5vbnplcm8iIG9wYWNpdHk9IjAuMDc5OTk5OTk4MiIgeD0iMTEyLjM5MDc2OCIgeT0iNjkuOTA5MDk0NCIgd2lkdGg9IjUxLjQzNzU0NzgiIGhlaWdodD0iMjEuMzU1NDk2OSIvPiYjeGE7ICAgIDwvZz4mI3hhOzwvc3ZnPg==;fontColor=#1F1F1F;" vertex="1" parent="718">
                    <mxGeometry x="32.42999999999995" y="84" width="61.17" height="45" as="geometry"/>
                </mxCell>
                <mxCell id="723" value="" style="endArrow=classic;startArrow=classic;html=1;fontSize=13;fontColor=#1F1F1F;entryX=0.5;entryY=1;entryDx=0;entryDy=0;exitX=0.484;exitY=-0.144;exitDx=0;exitDy=0;exitPerimeter=0;" edge="1" parent="718" source="722" target="720">
                    <mxGeometry width="50" height="50" relative="1" as="geometry">
                        <mxPoint x="-58.99000000000001" y="191" as="sourcePoint"/>
                        <mxPoint x="-8.990000000000009" y="141" as="targetPoint"/>
                    </mxGeometry>
                </mxCell>
                <mxCell id="724" value="" style="group;fontColor=#1F1F1F;" vertex="1" connectable="0" parent="718">
                    <mxGeometry x="12.009999999999991" y="14" width="126" height="144" as="geometry"/>
                </mxCell>
                <mxCell id="725" value="" style="rounded=1;absoluteArcSize=1;arcSize=2;html=1;strokeColor=#23445d;shadow=0;dashed=0;strokeColor=none;fontSize=13;align=center;verticalAlign=top;spacing=10;spacingTop=-4;fillColor=#FFFFFF;fontStyle=1;fontColor=#1F1F1F;" vertex="1" parent="724">
                    <mxGeometry width="126" height="144" as="geometry"/>
                </mxCell>
                <mxCell id="726" value="Batch Generator" style="rounded=1;absoluteArcSize=1;arcSize=2;html=1;strokeColor=#82b366;shadow=0;dashed=0;strokeColor=none;fontSize=13;align=center;verticalAlign=top;spacing=10;spacingTop=-4;fillColor=#d5e8d4;fontStyle=1;fontColor=#1F1F1F;" vertex="1" parent="724">
                    <mxGeometry x="7.5" y="10" width="111" height="41" as="geometry"/>
                </mxCell>
                <mxCell id="727" value="" style="rounded=1;absoluteArcSize=1;arcSize=2;html=1;strokeColor=#23445d;shadow=0;dashed=0;strokeColor=none;fontSize=13;align=left;verticalAlign=top;spacing=10;spacingTop=-4;fillColor=#E1F5FE;fontStyle=1;fontColor=#1F1F1F;" vertex="1" parent="724">
                    <mxGeometry x="7.509999999999991" y="76" width="111" height="56" as="geometry"/>
                </mxCell>
                <mxCell id="728" value="" style="shape=image;verticalLabelPosition=bottom;verticalAlign=top;imageAspect=0;aspect=fixed;image=data:image/svg+xml,PHN2ZyB4bWxucz0iaHR0cDovL3d3dy53My5vcmcvMjAwMC9zdmciIHhtbG5zOnhsaW5rPSJodHRwOi8vd3d3LnczLm9yZy8xOTk5L3hsaW5rIiB3aWR0aD0iMzY3cHgiIGhlaWdodD0iMjcwcHgiIHZpZXdCb3g9IjAgMCAzNjcgMjcwIiB2ZXJzaW9uPSIxLjEiPiYjeGE7ICAgIDwhLS0gR2VuZXJhdG9yOiBTa2V0Y2ggNTEuMyAoNTc1NDQpIC0gaHR0cDovL3d3dy5ib2hlbWlhbmNvZGluZy5jb20vc2tldGNoIC0tPiYjeGE7ICAgIDx0aXRsZT5BcnRib2FyZDwvdGl0bGU+JiN4YTsgICAgPGRlc2M+Q3JlYXRlZCB3aXRoIFNrZXRjaC48L2Rlc2M+JiN4YTsgICAgPGRlZnMvPiYjeGE7ICAgIDxnIGlkPSJBcnRib2FyZCIgc3Ryb2tlPSJub25lIiBzdHJva2Utd2lkdGg9IjEiIGZpbGw9Im5vbmUiIGZpbGwtcnVsZT0iZXZlbm9kZCI+JiN4YTsgICAgICAgIDxwYXRoIGQ9Ik04OS43OTE3MTE5LDE5My41MDg3NjEgTDYyLjkwMDAzOTIsMTkzLjUwODc2MSBMNjIuOTAwMDM5MiwxODUuMDY0MTIgQzYwLjMzMTEwNjQsMTg4LjI4ODk1IDU3LjczNDg4MzUsMTkwLjYzOTIxNSA1NS4xMTEyOTI2LDE5Mi4xMTQ5ODUgQzUwLjUyMDAwODQsMTk0LjY4MzkxOCA0NS4zMDAyMzM5LDE5NS45NjgzNjUgMzkuNDUxODEyNCwxOTUuOTY4MzY1IEMyOS45OTU5NTM0LDE5NS45NjgzNjUgMjEuNTc4NzI1NCwxOTIuNzE2MjU0IDE0LjE5OTg3NTksMTg2LjIxMTkzNSBDNS4zOTk5MTQ2NCwxNzguNDUwNDc4IDEsMTY4LjE3NDkwMSAxLDE1NS4zODQ4OTUgQzEsMTQyLjM3NjI1NyA1LjUwOTIyOTI5LDEzMS45OTEzNjUgMTQuNTI3ODIzMSwxMjQuMjI5OTA5IEMyMS42ODgwNDAxLDExOC4wNTM1MzggMjkuOTEzOTY3NCwxMTQuOTY1NCAzOS4yMDU4NTIsMTE0Ljk2NTQgQzQ0LjYxNzAwODMsMTE0Ljk2NTQgNDkuNzAwMTM5NSwxMTYuMTEzMjAzIDU0LjQ1NTM5ODEsMTE4LjQwODg0NSBDNTcuMTg4MzA1MywxMTkuNzIwNjQxIDYwLjAwMzE1NzYsMTIxLjg3OTYwNSA2Mi45MDAwMzkyLDEyNC44ODU4MDMgTDYyLjkwMDAzOTIsNzAuMzY0NTc2NiBMODkuNzkxNzExOSw3MC4zNjQ1NzY2IEw4OS43OTE3MTE5LDE5My41MDg3NjEgWiBNNjMuNzE5OTA3MywxNTUuNDY2ODgyIEM2My43MTk5MDczLDE1MC42NTY5NjUgNjIuMDI1NTMwMiwxNDYuNTcxMzMgNTguNjM2NzI1MywxNDMuMjA5ODU1IEM1NS4yNDc5MjAzLDEzOS44NDgzNzkgNTEuMTQ4NjIxLDEzOC4xNjc2NjYgNDYuMzM4NzA0MiwxMzguMTY3NjY2IEM0MC45ODIyMDYxLDEzOC4xNjc2NjYgMzYuNTgyMjkxNCwxNDAuMTg5OTg3IDMzLjEzODgyODMsMTQ0LjIzNDY5IEMzMC4zNTEyNjI5LDE0Ny41MTQxNzggMjguOTU3NTAxMiwxNTEuMjU4MjA1IDI4Ljk1NzUwMTIsMTU1LjQ2Njg4MiBDMjguOTU3NTAxMiwxNTkuNjc1NTU5IDMwLjM1MTI2MjksMTYzLjQxOTU4NiAzMy4xMzg4MjgzLDE2Ni42OTkwNzUgQzM2LjUyNzYzMzMsMTcwLjc0Mzc3NyA0MC45Mjc1NDc5LDE3Mi43NjYwOTggNDYuMzM4NzA0MiwxNzIuNzY2MDk4IEM1MS4yMDMyNzkxLDE3Mi43NjYwOTggNTUuMzE2MjQyOCwxNzEuMDk5MDUgNTguNjc3NzE4NywxNjcuNzY0OTAzIEM2Mi4wMzkxOTQ2LDE2NC40MzA3NTYgNjMuNzE5OTA3MywxNjAuMzMxNDU3IDYzLjcxOTkwNzMsMTU1LjQ2Njg4MiBaIE0xOTAuNjUwMDYsMTkzLjUwODc2MSBMMTYzLjc1ODM4NywxOTMuNTA4NzYxIEwxNjMuNzU4Mzg3LDE4NS4wNjQxMiBDMTYxLjE4OTQ1NCwxODguMjg4OTUgMTU4LjU5MzIzMSwxOTAuNjM5MjE1IDE1NS45Njk2NDEsMTkyLjExNDk4NSBDMTUxLjM3ODM1NiwxOTQuNjgzOTE4IDE0Ni4xNTg1ODIsMTk1Ljk2ODM2NSAxNDAuMzEwMTYsMTk1Ljk2ODM2NSBDMTMwLjg1NDMwMSwxOTUuOTY4MzY1IDEyMi40MzcwNzMsMTkyLjcxNjI1NCAxMTUuMDU4MjI0LDE4Ni4yMTE5MzUgQzEwNi4yNTgyNjMsMTc4LjQ1MDQ3OCAxMDEuODU4MzQ4LDE2OC4xNzQ5MDEgMTAxLjg1ODM0OCwxNTUuMzg0ODk1IEMxMDEuODU4MzQ4LDE0Mi4zNzYyNTcgMTA2LjM2NzU3NywxMzEuOTkxMzY1IDExNS4zODYxNzEsMTI0LjIyOTkwOSBDMTIyLjU0NjM4OCwxMTguMDUzNTM4IDEzMC43NzIzMTUsMTE0Ljk2NTQgMTQwLjA2NDIsMTE0Ljk2NTQgQzE0NS40NzUzNTYsMTE0Ljk2NTQgMTUwLjU1ODQ4NywxMTYuMTEzMjAzIDE1NS4zMTM3NDYsMTE4LjQwODg0NSBDMTU4LjA0NjY1MywxMTkuNzIwNjQxIDE2MC44NjE1MDYsMTIxLjg3OTYwNSAxNjMuNzU4Mzg3LDEyNC44ODU4MDMgTDE2My43NTgzODcsMTE3LjQyNTAwNCBMMTkwLjY1MDA2LDExNy40MjUwMDQgTDE5MC42NTAwNiwxOTMuNTA4NzYxIFogTTE2NC41NzgyNTUsMTU1LjQ2Njg4MiBDMTY0LjU3ODI1NSwxNTAuNjU2OTY1IDE2Mi44ODM4NzgsMTQ2LjU3MTMzIDE1OS40OTUwNzMsMTQzLjIwOTg1NSBDMTU2LjEwNjI2OCwxMzkuODQ4Mzc5IDE1Mi4wMDY5NjksMTM4LjE2NzY2NiAxNDcuMTk3MDUyLDEzOC4xNjc2NjYgQzE0MS44NDA1NTQsMTM4LjE2NzY2NiAxMzcuNDQwNjM5LDE0MC4xODk5ODcgMTMzLjk5NzE3NiwxNDQuMjM0NjkgQzEzMS4yMDk2MTEsMTQ3LjUxNDE3OCAxMjkuODE1ODQ5LDE1MS4yNTgyMDUgMTI5LjgxNTg0OSwxNTUuNDY2ODgyIEMxMjkuODE1ODQ5LDE1OS42NzU1NTkgMTMxLjIwOTYxMSwxNjMuNDE5NTg2IDEzMy45OTcxNzYsMTY2LjY5OTA3NSBDMTM3LjM4NTk4MSwxNzAuNzQzNzc3IDE0MS43ODU4OTYsMTcyLjc2NjA5OCAxNDcuMTk3MDUyLDE3Mi43NjYwOTggQzE1Mi4wNjE2MjcsMTcyLjc2NjA5OCAxNTYuMTc0NTkxLDE3MS4wOTkwNSAxNTkuNTM2MDY3LDE2Ny43NjQ5MDMgQzE2Mi44OTc1NDMsMTY0LjQzMDc1NiAxNjQuNTc4MjU1LDE2MC4zMzE0NTcgMTY0LjU3ODI1NSwxNTUuNDY2ODgyIFogTTI5NC41NDE5MiwxNTUuNTQ4ODY5IEMyOTQuNTQxOTIsMTY4LjU1NzUwNyAyOTAuMDMyNjksMTc4Ljk0MjM5OSAyODEuMDE0MDk3LDE4Ni43MDM4NTYgQzI3My44NTM4OCwxOTIuODgwMjI2IDI2NS42Mjc5NTIsMTk1Ljk2ODM2NSAyNTYuMzM2MDY4LDE5NS45NjgzNjUgQzI1MC45MjQ5MTEsMTk1Ljk2ODM2NSAyNDUuODQxNzgsMTk0LjgyMDU2MSAyNDEuMDg2NTIyLDE5Mi41MjQ5MTkgQzIzOC4zNTM2MTQsMTkxLjIxMzEyMyAyMzUuNTM4NzYyLDE4OS4wNTQxNTkgMjMyLjY0MTg4LDE4Ni4wNDc5NjEgTDIzMi42NDE4OCwyMzEuNTUwNjM5IEwyMDUuNzUwMjA4LDIzMS41NTA2MzkgTDIwNS43NTAyMDgsMTE3LjQyNTAwNCBMMjMyLjY0MTg4LDExNy40MjUwMDQgTDIzMi42NDE4OCwxMjUuODY5NjQ1IEMyMzUuMDQ2ODM5LDEyMi42OTk0NzMgMjM3LjY0MzA2MiwxMjAuMzQ5MjA4IDI0MC40MzA2MjcsMTE4LjgxODc4IEMyNDUuMDIxOTExLDExNi4yNDk4NDcgMjUwLjI0MTY4NiwxMTQuOTY1NCAyNTYuMDkwMTA3LDExNC45NjU0IEMyNjUuNTQ1OTY2LDExNC45NjU0IDI3My45NjMxOTQsMTE4LjIxNzUxIDI4MS4zNDIwNDQsMTI0LjcyMTgzIEMyOTAuMTQyMDA1LDEzMi40ODMyODYgMjk0LjU0MTkyLDE0Mi43NTg4NjMgMjk0LjU0MTkyLDE1NS41NDg4NjkgWiBNMjY2LjU4NDQxOCwxNTUuNDY2ODgyIEMyNjYuNTg0NDE4LDE1MS4xNDg4ODkgMjY1LjIxNzk4NSwxNDcuNDA0ODYyIDI2Mi40ODUwNzgsMTQ0LjIzNDY5IEMyNTkuMDQxNjE1LDE0MC4xODk5ODcgMjU0LjYxNDM3MiwxMzguMTY3NjY2IDI0OS4yMDMyMTUsMTM4LjE2NzY2NiBDMjQ0LjMzODY0MSwxMzguMTY3NjY2IDI0MC4yMjU2NzcsMTM5LjgzNDcxNCAyMzYuODY0MjAxLDE0My4xNjg4NjEgQzIzMy41MDI3MjUsMTQ2LjUwMzAwOCAyMzEuODIyMDEyLDE1MC42MDIzMDcgMjMxLjgyMjAxMiwxNTUuNDY2ODgyIEMyMzEuODIyMDEyLDE2MC4yNzY3OTkgMjMzLjUxNjM4OSwxNjQuMzYyNDM0IDIzNi45MDUxOTQsMTY3LjcyMzkxIEMyNDAuMjkzOTk5LDE3MS4wODUzODYgMjQ0LjM5MzI5OSwxNzIuNzY2MDk4IDI0OS4yMDMyMTUsMTcyLjc2NjA5OCBDMjU0LjYxNDM3MiwxNzIuNzY2MDk4IDI1OS4wMTQyODYsMTcwLjc0Mzc3NyAyNjIuNDAzMDkxLDE2Ni42OTkwNzUgQzI2NS4xOTA2NTcsMTYzLjQxOTU4NiAyNjYuNTg0NDE4LDE1OS42NzU1NTkgMjY2LjU4NDQxOCwxNTUuNDY2ODgyIFogTTM2My42NzEzNzMsMTQyLjI2NzAwNiBDMzU5Ljg5OTk2MSwxNDAuNDYzMjg4IDM1Ni4wNzM5NDksMTM5LjU2MTQ0MiAzNTIuMTkzMjIsMTM5LjU2MTQ0MiBDMzQzLjMzODYwMSwxMzkuNTYxNDQyIDMzNy41OTk1ODIsMTQzLjE2ODgyNSAzMzQuOTc1OTkxLDE1MC4zODM3IEMzMzMuOTkyMTQ0LDE1My4wMDcyOTEgMzMzLjUwMDIyOCwxNTYuNTMyNjg5IDMzMy41MDAyMjgsMTYwLjk1OTk5OCBMMzMzLjUwMDIyOCwxOTMuNTA4NzYxIEwzMDYuNjA4NTU2LDE5My41MDg3NjEgTDMwNi42MDg1NTYsMTE3LjQyNTAwNCBMMzMzLjUwMDIyOCwxMTcuNDI1MDA0IEwzMzMuNTAwMjI4LDEyOS44ODY5OTggQzMzNi4zNDI0NTIsMTI1LjQ1OTY4OSAzMzkuNDAzMjYyLDEyMi4yNjIyMzUgMzQyLjY4Mjc1MSwxMjAuMjk0NTQyIEMzNDcuMTEwMDYsMTE3LjY3MDk1MSAzNTIuMzU3MTY0LDExNi4zNTkxNzUgMzU4LjQyNDIxOCwxMTYuMzU5MTc1IEMzNTkuODQ1MzI5LDExNi4zNTkxNzUgMzYxLjU5NDM2NCwxMTYuNDQxMTYxIDM2My42NzEzNzMsMTE2LjYwNTEzNiBMMzYzLjY3MTM3MywxNDIuMjY3MDA2IFoiIGlkPSJkYXByIiBmaWxsPSIjMEQyMTkyIi8+JiN4YTsgICAgICAgIDxwb2x5Z29uIGlkPSJ0aWUiIGZpbGw9IiMwRDIxOTIiIGZpbGwtcnVsZT0ibm9uemVybyIgcG9pbnRzPSIyMDUuNTM4NDA5IDE5NC4wNjIxNzIgMjMyLjYxNDU1MSAxOTQuMDYyMTcyIDIzNC45NDY2MjEgMjU3LjYzMzgzMSAyMTkuMDc2NDggMjY4Ljc1NDQzIDIwMy4yMDYzMzkgMjU3LjYzMzgzMSIvPiYjeGE7ICAgICAgICA8cmVjdCBpZD0iUmVjdGFuZ2xlLTQiIGZpbGw9IiMwRDIxOTIiIGZpbGwtcnVsZT0ibm9uemVybyIgeD0iMTQ0LjgyOTQ5NyIgeT0iMi4yNzkwODgyOSIgd2lkdGg9IjEwMi43MjI2NDMiIGhlaWdodD0iNzIuMjk0MTQ0NCIgcng9IjIiLz4mI3hhOyAgICAgICAgPHJlY3QgaWQ9IlJlY3RhbmdsZS00IiBmaWxsPSIjRkZGRkZGIiBmaWxsLXJ1bGU9Im5vbnplcm8iIG9wYWNpdHk9IjAuMDc5OTk5OTk4MiIgeD0iMTQ0LjgyOTQ5NyIgeT0iMi4yNzkwODgyOSIgd2lkdGg9IjM3Ljk5NzYzNjkiIGhlaWdodD0iNzIuMjk0MTQ0NCIvPiYjeGE7ICAgICAgICA8cmVjdCBpZD0iUmVjdGFuZ2xlLTMiIGZpbGw9IiMwRDIxOTIiIGZpbGwtcnVsZT0ibm9uemVybyIgeD0iMTEyLjM5MDc2OCIgeT0iNjkuOTA5MDk0NCIgd2lkdGg9IjE2Ni4yNDg0ODgiIGhlaWdodD0iMTcuMzUxMzQxMiIgcng9IjMuNzIwMTYiLz4mI3hhOyAgICAgICAgPHJlY3QgaWQ9IlJlY3RhbmdsZS00IiBmaWxsPSIjRkZGRkZGIiBmaWxsLXJ1bGU9Im5vbnplcm8iIG9wYWNpdHk9IjAuMDc5OTk5OTk4MiIgeD0iMTEyLjM5MDc2OCIgeT0iNjkuOTA5MDk0NCIgd2lkdGg9IjUxLjQzNzU0NzgiIGhlaWdodD0iMjEuMzU1NDk2OSIvPiYjeGE7ICAgIDwvZz4mI3hhOzwvc3ZnPg==;fontColor=#1F1F1F;" vertex="1" parent="724">
                    <mxGeometry x="32.42999999999995" y="84" width="61.17" height="45" as="geometry"/>
                </mxCell>
                <mxCell id="729" value="" style="endArrow=classic;startArrow=classic;html=1;fontSize=13;fontColor=#1F1F1F;entryX=0.5;entryY=1;entryDx=0;entryDy=0;strokeColor=#1F1F1F;" edge="1" parent="724" target="726">
                    <mxGeometry width="50" height="50" relative="1" as="geometry">
                        <mxPoint x="63" y="78" as="sourcePoint"/>
                        <mxPoint x="-8.990000000000009" y="141" as="targetPoint"/>
                    </mxGeometry>
                </mxCell>
                <mxCell id="741" value="" style="group" vertex="1" connectable="0" parent="1">
                    <mxGeometry x="737" y="487" width="100" height="100" as="geometry"/>
                </mxCell>
                <mxCell id="g8jBpLHVoKCk_19KpYFQ-780" value="Service Bus" style="rounded=1;absoluteArcSize=1;arcSize=2;html=1;strokeColor=#23445d;shadow=0;dashed=0;strokeColor=none;fontSize=13;align=center;verticalAlign=top;spacing=10;spacingTop=-4;fillColor=#E1F5FE;fontStyle=1;fontColor=#1F1F1F;" parent="741" vertex="1">
                    <mxGeometry width="99.99999999999999" height="100" as="geometry"/>
                </mxCell>
                <mxCell id="g8jBpLHVoKCk_19KpYFQ-749" value="" style="shape=image;verticalLabelPosition=bottom;labelBackgroundColor=#ffffff;verticalAlign=top;aspect=fixed;imageAspect=0;image=data:image/svg+xml,PHN2ZyB4bWxucz0iaHR0cDovL3d3dy53My5vcmcvMjAwMC9zdmciIHdpZHRoPSIxOCIgaGVpZ2h0PSIxOCIgdmlld0JveD0iMCAwIDE4IDE4Ij4mI3hhOyAgPGRlZnM+JiN4YTsgICAgPGxpbmVhckdyYWRpZW50IGlkPSJiMDBkOTU2Ny0zN2VmLTQwOTItODI0Ny1iMGRhNTE4MjVjNzUiIHgxPSI5IiB5MT0iMTAuMyIgeDI9IjkiIHkyPSIxMy4yIiBncmFkaWVudFVuaXRzPSJ1c2VyU3BhY2VPblVzZSI+JiN4YTsgICAgICA8c3RvcCBvZmZzZXQ9IjAiIHN0b3AtY29sb3I9IiMwMDViYTEiLz4mI3hhOyAgICAgIDxzdG9wIG9mZnNldD0iMC4yNiIgc3RvcC1jb2xvcj0iIzAwNTg5ZCIvPiYjeGE7ICAgICAgPHN0b3Agb2Zmc2V0PSIwLjUzIiBzdG9wLWNvbG9yPSIjMDA0ZjkwIi8+JiN4YTsgICAgICA8c3RvcCBvZmZzZXQ9IjAuOCIgc3RvcC1jb2xvcj0iIzAwM2Y3YyIvPiYjeGE7ICAgICAgPHN0b3Agb2Zmc2V0PSIxIiBzdG9wLWNvbG9yPSIjMDAzMDY3Ii8+JiN4YTsgICAgPC9saW5lYXJHcmFkaWVudD4mI3hhOyAgPC9kZWZzPiYjeGE7ICA8dGl0bGU+SWNvbi1pbnRlZ3JhdGlvbi0yMTQ8L3RpdGxlPiYjeGE7ICA8Zz4mI3hhOyAgICA8ZyBpZD0iYmQ1OGEwZWUtODYzNi00MjVmLWJhZDMtNjZiOTBlYzkyYmU4Ij4mI3hhOyAgICAgIDxwb2x5Z29uIHBvaW50cz0iMTMuMzkgNy40IDEzLjM4IDcuNCAxMy4zOCA3LjM4IDEzLjM2IDcuMzggOSA0LjQxIDQuNjMgNy4zOCA0LjYxIDcuMzggNC42MSA3LjQgNC42MSA3LjQgNC42MSA3LjQgNC42MSAxMy4yIDEzLjM4IDEzLjIgMTMuMzggNy40IDEzLjM5IDcuNCIgZmlsbD0iIzUwZTZmZiIvPiYjeGE7ICAgICAgPHBhdGggZD0iTTQuNjEsNy40djUuOEw5LDEwLjNaIiBmaWxsPSIjMzJiZWRkIi8+JiN4YTsgICAgICA8cGF0aCBkPSJNMTMuMzgsNy40LDksMTAuM2w0LjM4LDIuOVoiIGZpbGw9IiMxOThhYjMiLz4mI3hhOyAgICAgIDxwb2x5Z29uIHBvaW50cz0iOC45OSAxMC4zIDQuNjEgMTMuMTkgNC42MSAxMy4yIDEzLjM4IDEzLjIgMTMuMzggMTMuMTkgOC45OSAxMC4zIiBmaWxsPSJ1cmwoI2IwMGQ5NTY3LTM3ZWYtNDA5Mi04MjQ3LWIwZGE1MTgyNWM3NSkiLz4mI3hhOyAgICAgIDxnPiYjeGE7ICAgICAgICA8cGF0aCBkPSJNMS4wNywxLjQzSDIuMzZhMCwwLDAsMCwxLDAsMFY1YS4yOS4yOSwwLDAsMS0uMjkuMjlILjc5QS4yOS4yOSwwLDAsMSwuNSw1VjJBLjU3LjU3LDAsMCwxLDEuMDcsMS40M1oiIGZpbGw9IiM5OTkiLz4mI3hhOyAgICAgICAgPHBhdGggZD0iTTEuMDcsMS40M0gyLjM2YTAsMCwwLDAsMSwwLDBWNWEuMjkuMjksMCwwLDEtLjI5LjI5SC43OUEuMjkuMjksMCwwLDEsLjUsNVYyQS41Ny41NywwLDAsMSwxLjA3LDEuNDNaIiBmaWxsPSIjOTk5IiBvcGFjaXR5PSIwLjUiLz4mI3hhOyAgICAgIDwvZz4mI3hhOyAgICAgIDxnPiYjeGE7ICAgICAgICA8cGF0aCBkPSJNMTUuNjQsMS40M2gxLjI5QS41Ny41NywwLDAsMSwxNy41LDJWNWEuMjkuMjksMCwwLDEtLjI5LjI5SDE1LjkyQS4yOS4yOSwwLDAsMSwxNS42NCw1VjEuNDNBMCwwLDAsMCwxLDE1LjY0LDEuNDNaIiBmaWxsPSIjOTk5Ii8+JiN4YTsgICAgICAgIDxwYXRoIGQ9Ik0xNS42NCwxLjQzaDEuMjlBLjU3LjU3LDAsMCwxLDE3LjUsMlY1YS4yOS4yOSwwLDAsMS0uMjkuMjlIMTUuOTJBLjI5LjI5LDAsMCwxLDE1LjY0LDVWMS40M0EwLDAsMCwwLDEsMTUuNjQsMS40M1oiIGZpbGw9IiM5OTkiIG9wYWNpdHk9IjAuNSIvPiYjeGE7ICAgICAgPC9nPiYjeGE7ICAgICAgPHBhdGggZD0iTTguNjYtNi4xNkg5LjkxYTAsMCwwLDAsMSwwLDB2MTdhMCwwLDAsMCwxLDAsMEg4LjY2YS41Ny41NywwLDAsMS0uNTctLjU3Vi01LjZBLjU3LjU3LDAsMCwxLDguNjYtNi4xNloiIHRyYW5zZm9ybT0idHJhbnNsYXRlKDExLjM0IC02LjY2KSByb3RhdGUoOTApIiBmaWxsPSIjOTQ5NDk0Ii8+JiN4YTsgICAgICA8Zz4mI3hhOyAgICAgICAgPHBhdGggZD0iTS43OSwxMi42OEgyLjA4YS4yOS4yOSwwLDAsMSwuMjkuMjl2My42YTAsMCwwLDAsMSwwLDBIMS4wN0EuNTcuNTcsMCwwLDEsLjUsMTZWMTNBLjI5LjI5LDAsMCwxLC43OSwxMi42OFoiIGZpbGw9IiM5OTkiLz4mI3hhOyAgICAgICAgPHBhdGggZD0iTS43OSwxMi42OEgyLjA4YS4yOS4yOSwwLDAsMSwuMjkuMjl2My42YTAsMCwwLDAsMSwwLDBIMS4wN0EuNTcuNTcsMCwwLDEsLjUsMTZWMTNBLjI5LjI5LDAsMCwxLC43OSwxMi42OFoiIGZpbGw9IiM5OTkiIG9wYWNpdHk9IjAuNSIvPiYjeGE7ICAgICAgPC9nPiYjeGE7ICAgICAgPGc+JiN4YTsgICAgICAgIDxwYXRoIGQ9Ik0xNS45MiwxMi42OGgxLjI5YS4yOS4yOSwwLDAsMSwuMjkuMjl2M2EuNTcuNTcsMCwwLDEtLjU3LjU3SDE1LjY0YTAsMCwwLDAsMSwwLDBWMTNBLjI5LjI5LDAsMCwxLDE1LjkyLDEyLjY4WiIgZmlsbD0iIzk5OSIvPiYjeGE7ICAgICAgICA8cGF0aCBkPSJNMTUuOTIsMTIuNjhoMS4yOWEuMjkuMjksMCwwLDEsLjI5LjI5djNhLjU3LjU3LDAsMCwxLS41Ny41N0gxNS42NGEwLDAsMCwwLDEsMCwwVjEzQS4yOS4yOSwwLDAsMSwxNS45MiwxMi42OFoiIGZpbGw9IiM5OTkiIG9wYWNpdHk9IjAuNSIvPiYjeGE7ICAgICAgPC9nPiYjeGE7ICAgICAgPHBhdGggZD0iTTguNjYsNy4xNkg5LjkxYTAsMCwwLDAsMSwwLDB2MTdhMCwwLDAsMCwxLDAsMEg4LjY2YS41Ny41NywwLDAsMS0uNTctLjU3VjcuNzNBLjU3LjU3LDAsMCwxLDguNjYsNy4xNloiIHRyYW5zZm9ybT0idHJhbnNsYXRlKC02LjY2IDI0LjY2KSByb3RhdGUoLTkwKSIgZmlsbD0iIzk0OTQ5NCIvPiYjeGE7ICAgIDwvZz4mI3hhOyAgPC9nPiYjeGE7PC9zdmc+;fontColor=#1F1F1F;" parent="741" vertex="1">
                    <mxGeometry x="23.362499999999997" y="31.999268292682935" width="53.27102803738318" height="53.27102803738318" as="geometry"/>
                </mxCell>
                <mxCell id="757" value="" style="group;fontColor=#1F1F1F;" vertex="1" connectable="0" parent="1">
                    <mxGeometry x="712" y="196" width="138.01" height="158" as="geometry"/>
                </mxCell>
                <mxCell id="758" value="" style="rounded=1;absoluteArcSize=1;arcSize=2;html=1;strokeColor=#23445d;shadow=0;dashed=0;strokeColor=none;fontSize=13;align=center;verticalAlign=top;spacing=10;spacingTop=-4;fillColor=#FFFFFF;fontStyle=1;fontColor=#1F1F1F;" vertex="1" parent="757">
                    <mxGeometry width="126" height="144" as="geometry"/>
                </mxCell>
                <mxCell id="759" value="Batch Receiver" style="rounded=1;absoluteArcSize=1;arcSize=2;html=1;strokeColor=#82b366;shadow=0;dashed=0;strokeColor=none;fontSize=13;align=center;verticalAlign=top;spacing=10;spacingTop=-4;fillColor=#d5e8d4;fontStyle=1;fontColor=#1F1F1F;" vertex="1" parent="757">
                    <mxGeometry x="7.5" y="12" width="111" height="43" as="geometry"/>
                </mxCell>
                <mxCell id="760" value="" style="rounded=1;absoluteArcSize=1;arcSize=2;html=1;strokeColor=#23445d;shadow=0;dashed=0;strokeColor=none;fontSize=13;align=left;verticalAlign=top;spacing=10;spacingTop=-4;fillColor=#E1F5FE;fontStyle=1;fontColor=#1F1F1F;" vertex="1" parent="757">
                    <mxGeometry x="7.509999999999991" y="76" width="111" height="56" as="geometry"/>
                </mxCell>
                <mxCell id="761" value="" style="shape=image;verticalLabelPosition=bottom;verticalAlign=top;imageAspect=0;aspect=fixed;image=data:image/svg+xml,PHN2ZyB4bWxucz0iaHR0cDovL3d3dy53My5vcmcvMjAwMC9zdmciIHhtbG5zOnhsaW5rPSJodHRwOi8vd3d3LnczLm9yZy8xOTk5L3hsaW5rIiB3aWR0aD0iMzY3cHgiIGhlaWdodD0iMjcwcHgiIHZpZXdCb3g9IjAgMCAzNjcgMjcwIiB2ZXJzaW9uPSIxLjEiPiYjeGE7ICAgIDwhLS0gR2VuZXJhdG9yOiBTa2V0Y2ggNTEuMyAoNTc1NDQpIC0gaHR0cDovL3d3dy5ib2hlbWlhbmNvZGluZy5jb20vc2tldGNoIC0tPiYjeGE7ICAgIDx0aXRsZT5BcnRib2FyZDwvdGl0bGU+JiN4YTsgICAgPGRlc2M+Q3JlYXRlZCB3aXRoIFNrZXRjaC48L2Rlc2M+JiN4YTsgICAgPGRlZnMvPiYjeGE7ICAgIDxnIGlkPSJBcnRib2FyZCIgc3Ryb2tlPSJub25lIiBzdHJva2Utd2lkdGg9IjEiIGZpbGw9Im5vbmUiIGZpbGwtcnVsZT0iZXZlbm9kZCI+JiN4YTsgICAgICAgIDxwYXRoIGQ9Ik04OS43OTE3MTE5LDE5My41MDg3NjEgTDYyLjkwMDAzOTIsMTkzLjUwODc2MSBMNjIuOTAwMDM5MiwxODUuMDY0MTIgQzYwLjMzMTEwNjQsMTg4LjI4ODk1IDU3LjczNDg4MzUsMTkwLjYzOTIxNSA1NS4xMTEyOTI2LDE5Mi4xMTQ5ODUgQzUwLjUyMDAwODQsMTk0LjY4MzkxOCA0NS4zMDAyMzM5LDE5NS45NjgzNjUgMzkuNDUxODEyNCwxOTUuOTY4MzY1IEMyOS45OTU5NTM0LDE5NS45NjgzNjUgMjEuNTc4NzI1NCwxOTIuNzE2MjU0IDE0LjE5OTg3NTksMTg2LjIxMTkzNSBDNS4zOTk5MTQ2NCwxNzguNDUwNDc4IDEsMTY4LjE3NDkwMSAxLDE1NS4zODQ4OTUgQzEsMTQyLjM3NjI1NyA1LjUwOTIyOTI5LDEzMS45OTEzNjUgMTQuNTI3ODIzMSwxMjQuMjI5OTA5IEMyMS42ODgwNDAxLDExOC4wNTM1MzggMjkuOTEzOTY3NCwxMTQuOTY1NCAzOS4yMDU4NTIsMTE0Ljk2NTQgQzQ0LjYxNzAwODMsMTE0Ljk2NTQgNDkuNzAwMTM5NSwxMTYuMTEzMjAzIDU0LjQ1NTM5ODEsMTE4LjQwODg0NSBDNTcuMTg4MzA1MywxMTkuNzIwNjQxIDYwLjAwMzE1NzYsMTIxLjg3OTYwNSA2Mi45MDAwMzkyLDEyNC44ODU4MDMgTDYyLjkwMDAzOTIsNzAuMzY0NTc2NiBMODkuNzkxNzExOSw3MC4zNjQ1NzY2IEw4OS43OTE3MTE5LDE5My41MDg3NjEgWiBNNjMuNzE5OTA3MywxNTUuNDY2ODgyIEM2My43MTk5MDczLDE1MC42NTY5NjUgNjIuMDI1NTMwMiwxNDYuNTcxMzMgNTguNjM2NzI1MywxNDMuMjA5ODU1IEM1NS4yNDc5MjAzLDEzOS44NDgzNzkgNTEuMTQ4NjIxLDEzOC4xNjc2NjYgNDYuMzM4NzA0MiwxMzguMTY3NjY2IEM0MC45ODIyMDYxLDEzOC4xNjc2NjYgMzYuNTgyMjkxNCwxNDAuMTg5OTg3IDMzLjEzODgyODMsMTQ0LjIzNDY5IEMzMC4zNTEyNjI5LDE0Ny41MTQxNzggMjguOTU3NTAxMiwxNTEuMjU4MjA1IDI4Ljk1NzUwMTIsMTU1LjQ2Njg4MiBDMjguOTU3NTAxMiwxNTkuNjc1NTU5IDMwLjM1MTI2MjksMTYzLjQxOTU4NiAzMy4xMzg4MjgzLDE2Ni42OTkwNzUgQzM2LjUyNzYzMzMsMTcwLjc0Mzc3NyA0MC45Mjc1NDc5LDE3Mi43NjYwOTggNDYuMzM4NzA0MiwxNzIuNzY2MDk4IEM1MS4yMDMyNzkxLDE3Mi43NjYwOTggNTUuMzE2MjQyOCwxNzEuMDk5MDUgNTguNjc3NzE4NywxNjcuNzY0OTAzIEM2Mi4wMzkxOTQ2LDE2NC40MzA3NTYgNjMuNzE5OTA3MywxNjAuMzMxNDU3IDYzLjcxOTkwNzMsMTU1LjQ2Njg4MiBaIE0xOTAuNjUwMDYsMTkzLjUwODc2MSBMMTYzLjc1ODM4NywxOTMuNTA4NzYxIEwxNjMuNzU4Mzg3LDE4NS4wNjQxMiBDMTYxLjE4OTQ1NCwxODguMjg4OTUgMTU4LjU5MzIzMSwxOTAuNjM5MjE1IDE1NS45Njk2NDEsMTkyLjExNDk4NSBDMTUxLjM3ODM1NiwxOTQuNjgzOTE4IDE0Ni4xNTg1ODIsMTk1Ljk2ODM2NSAxNDAuMzEwMTYsMTk1Ljk2ODM2NSBDMTMwLjg1NDMwMSwxOTUuOTY4MzY1IDEyMi40MzcwNzMsMTkyLjcxNjI1NCAxMTUuMDU4MjI0LDE4Ni4yMTE5MzUgQzEwNi4yNTgyNjMsMTc4LjQ1MDQ3OCAxMDEuODU4MzQ4LDE2OC4xNzQ5MDEgMTAxLjg1ODM0OCwxNTUuMzg0ODk1IEMxMDEuODU4MzQ4LDE0Mi4zNzYyNTcgMTA2LjM2NzU3NywxMzEuOTkxMzY1IDExNS4zODYxNzEsMTI0LjIyOTkwOSBDMTIyLjU0NjM4OCwxMTguMDUzNTM4IDEzMC43NzIzMTUsMTE0Ljk2NTQgMTQwLjA2NDIsMTE0Ljk2NTQgQzE0NS40NzUzNTYsMTE0Ljk2NTQgMTUwLjU1ODQ4NywxMTYuMTEzMjAzIDE1NS4zMTM3NDYsMTE4LjQwODg0NSBDMTU4LjA0NjY1MywxMTkuNzIwNjQxIDE2MC44NjE1MDYsMTIxLjg3OTYwNSAxNjMuNzU4Mzg3LDEyNC44ODU4MDMgTDE2My43NTgzODcsMTE3LjQyNTAwNCBMMTkwLjY1MDA2LDExNy40MjUwMDQgTDE5MC42NTAwNiwxOTMuNTA4NzYxIFogTTE2NC41NzgyNTUsMTU1LjQ2Njg4MiBDMTY0LjU3ODI1NSwxNTAuNjU2OTY1IDE2Mi44ODM4NzgsMTQ2LjU3MTMzIDE1OS40OTUwNzMsMTQzLjIwOTg1NSBDMTU2LjEwNjI2OCwxMzkuODQ4Mzc5IDE1Mi4wMDY5NjksMTM4LjE2NzY2NiAxNDcuMTk3MDUyLDEzOC4xNjc2NjYgQzE0MS44NDA1NTQsMTM4LjE2NzY2NiAxMzcuNDQwNjM5LDE0MC4xODk5ODcgMTMzLjk5NzE3NiwxNDQuMjM0NjkgQzEzMS4yMDk2MTEsMTQ3LjUxNDE3OCAxMjkuODE1ODQ5LDE1MS4yNTgyMDUgMTI5LjgxNTg0OSwxNTUuNDY2ODgyIEMxMjkuODE1ODQ5LDE1OS42NzU1NTkgMTMxLjIwOTYxMSwxNjMuNDE5NTg2IDEzMy45OTcxNzYsMTY2LjY5OTA3NSBDMTM3LjM4NTk4MSwxNzAuNzQzNzc3IDE0MS43ODU4OTYsMTcyLjc2NjA5OCAxNDcuMTk3MDUyLDE3Mi43NjYwOTggQzE1Mi4wNjE2MjcsMTcyLjc2NjA5OCAxNTYuMTc0NTkxLDE3MS4wOTkwNSAxNTkuNTM2MDY3LDE2Ny43NjQ5MDMgQzE2Mi44OTc1NDMsMTY0LjQzMDc1NiAxNjQuNTc4MjU1LDE2MC4zMzE0NTcgMTY0LjU3ODI1NSwxNTUuNDY2ODgyIFogTTI5NC41NDE5MiwxNTUuNTQ4ODY5IEMyOTQuNTQxOTIsMTY4LjU1NzUwNyAyOTAuMDMyNjksMTc4Ljk0MjM5OSAyODEuMDE0MDk3LDE4Ni43MDM4NTYgQzI3My44NTM4OCwxOTIuODgwMjI2IDI2NS42Mjc5NTIsMTk1Ljk2ODM2NSAyNTYuMzM2MDY4LDE5NS45NjgzNjUgQzI1MC45MjQ5MTEsMTk1Ljk2ODM2NSAyNDUuODQxNzgsMTk0LjgyMDU2MSAyNDEuMDg2NTIyLDE5Mi41MjQ5MTkgQzIzOC4zNTM2MTQsMTkxLjIxMzEyMyAyMzUuNTM4NzYyLDE4OS4wNTQxNTkgMjMyLjY0MTg4LDE4Ni4wNDc5NjEgTDIzMi42NDE4OCwyMzEuNTUwNjM5IEwyMDUuNzUwMjA4LDIzMS41NTA2MzkgTDIwNS43NTAyMDgsMTE3LjQyNTAwNCBMMjMyLjY0MTg4LDExNy40MjUwMDQgTDIzMi42NDE4OCwxMjUuODY5NjQ1IEMyMzUuMDQ2ODM5LDEyMi42OTk0NzMgMjM3LjY0MzA2MiwxMjAuMzQ5MjA4IDI0MC40MzA2MjcsMTE4LjgxODc4IEMyNDUuMDIxOTExLDExNi4yNDk4NDcgMjUwLjI0MTY4NiwxMTQuOTY1NCAyNTYuMDkwMTA3LDExNC45NjU0IEMyNjUuNTQ1OTY2LDExNC45NjU0IDI3My45NjMxOTQsMTE4LjIxNzUxIDI4MS4zNDIwNDQsMTI0LjcyMTgzIEMyOTAuMTQyMDA1LDEzMi40ODMyODYgMjk0LjU0MTkyLDE0Mi43NTg4NjMgMjk0LjU0MTkyLDE1NS41NDg4NjkgWiBNMjY2LjU4NDQxOCwxNTUuNDY2ODgyIEMyNjYuNTg0NDE4LDE1MS4xNDg4ODkgMjY1LjIxNzk4NSwxNDcuNDA0ODYyIDI2Mi40ODUwNzgsMTQ0LjIzNDY5IEMyNTkuMDQxNjE1LDE0MC4xODk5ODcgMjU0LjYxNDM3MiwxMzguMTY3NjY2IDI0OS4yMDMyMTUsMTM4LjE2NzY2NiBDMjQ0LjMzODY0MSwxMzguMTY3NjY2IDI0MC4yMjU2NzcsMTM5LjgzNDcxNCAyMzYuODY0MjAxLDE0My4xNjg4NjEgQzIzMy41MDI3MjUsMTQ2LjUwMzAwOCAyMzEuODIyMDEyLDE1MC42MDIzMDcgMjMxLjgyMjAxMiwxNTUuNDY2ODgyIEMyMzEuODIyMDEyLDE2MC4yNzY3OTkgMjMzLjUxNjM4OSwxNjQuMzYyNDM0IDIzNi45MDUxOTQsMTY3LjcyMzkxIEMyNDAuMjkzOTk5LDE3MS4wODUzODYgMjQ0LjM5MzI5OSwxNzIuNzY2MDk4IDI0OS4yMDMyMTUsMTcyLjc2NjA5OCBDMjU0LjYxNDM3MiwxNzIuNzY2MDk4IDI1OS4wMTQyODYsMTcwLjc0Mzc3NyAyNjIuNDAzMDkxLDE2Ni42OTkwNzUgQzI2NS4xOTA2NTcsMTYzLjQxOTU4NiAyNjYuNTg0NDE4LDE1OS42NzU1NTkgMjY2LjU4NDQxOCwxNTUuNDY2ODgyIFogTTM2My42NzEzNzMsMTQyLjI2NzAwNiBDMzU5Ljg5OTk2MSwxNDAuNDYzMjg4IDM1Ni4wNzM5NDksMTM5LjU2MTQ0MiAzNTIuMTkzMjIsMTM5LjU2MTQ0MiBDMzQzLjMzODYwMSwxMzkuNTYxNDQyIDMzNy41OTk1ODIsMTQzLjE2ODgyNSAzMzQuOTc1OTkxLDE1MC4zODM3IEMzMzMuOTkyMTQ0LDE1My4wMDcyOTEgMzMzLjUwMDIyOCwxNTYuNTMyNjg5IDMzMy41MDAyMjgsMTYwLjk1OTk5OCBMMzMzLjUwMDIyOCwxOTMuNTA4NzYxIEwzMDYuNjA4NTU2LDE5My41MDg3NjEgTDMwNi42MDg1NTYsMTE3LjQyNTAwNCBMMzMzLjUwMDIyOCwxMTcuNDI1MDA0IEwzMzMuNTAwMjI4LDEyOS44ODY5OTggQzMzNi4zNDI0NTIsMTI1LjQ1OTY4OSAzMzkuNDAzMjYyLDEyMi4yNjIyMzUgMzQyLjY4Mjc1MSwxMjAuMjk0NTQyIEMzNDcuMTEwMDYsMTE3LjY3MDk1MSAzNTIuMzU3MTY0LDExNi4zNTkxNzUgMzU4LjQyNDIxOCwxMTYuMzU5MTc1IEMzNTkuODQ1MzI5LDExNi4zNTkxNzUgMzYxLjU5NDM2NCwxMTYuNDQxMTYxIDM2My42NzEzNzMsMTE2LjYwNTEzNiBMMzYzLjY3MTM3MywxNDIuMjY3MDA2IFoiIGlkPSJkYXByIiBmaWxsPSIjMEQyMTkyIi8+JiN4YTsgICAgICAgIDxwb2x5Z29uIGlkPSJ0aWUiIGZpbGw9IiMwRDIxOTIiIGZpbGwtcnVsZT0ibm9uemVybyIgcG9pbnRzPSIyMDUuNTM4NDA5IDE5NC4wNjIxNzIgMjMyLjYxNDU1MSAxOTQuMDYyMTcyIDIzNC45NDY2MjEgMjU3LjYzMzgzMSAyMTkuMDc2NDggMjY4Ljc1NDQzIDIwMy4yMDYzMzkgMjU3LjYzMzgzMSIvPiYjeGE7ICAgICAgICA8cmVjdCBpZD0iUmVjdGFuZ2xlLTQiIGZpbGw9IiMwRDIxOTIiIGZpbGwtcnVsZT0ibm9uemVybyIgeD0iMTQ0LjgyOTQ5NyIgeT0iMi4yNzkwODgyOSIgd2lkdGg9IjEwMi43MjI2NDMiIGhlaWdodD0iNzIuMjk0MTQ0NCIgcng9IjIiLz4mI3hhOyAgICAgICAgPHJlY3QgaWQ9IlJlY3RhbmdsZS00IiBmaWxsPSIjRkZGRkZGIiBmaWxsLXJ1bGU9Im5vbnplcm8iIG9wYWNpdHk9IjAuMDc5OTk5OTk4MiIgeD0iMTQ0LjgyOTQ5NyIgeT0iMi4yNzkwODgyOSIgd2lkdGg9IjM3Ljk5NzYzNjkiIGhlaWdodD0iNzIuMjk0MTQ0NCIvPiYjeGE7ICAgICAgICA8cmVjdCBpZD0iUmVjdGFuZ2xlLTMiIGZpbGw9IiMwRDIxOTIiIGZpbGwtcnVsZT0ibm9uemVybyIgeD0iMTEyLjM5MDc2OCIgeT0iNjkuOTA5MDk0NCIgd2lkdGg9IjE2Ni4yNDg0ODgiIGhlaWdodD0iMTcuMzUxMzQxMiIgcng9IjMuNzIwMTYiLz4mI3hhOyAgICAgICAgPHJlY3QgaWQ9IlJlY3RhbmdsZS00IiBmaWxsPSIjRkZGRkZGIiBmaWxsLXJ1bGU9Im5vbnplcm8iIG9wYWNpdHk9IjAuMDc5OTk5OTk4MiIgeD0iMTEyLjM5MDc2OCIgeT0iNjkuOTA5MDk0NCIgd2lkdGg9IjUxLjQzNzU0NzgiIGhlaWdodD0iMjEuMzU1NDk2OSIvPiYjeGE7ICAgIDwvZz4mI3hhOzwvc3ZnPg==;fontColor=#1F1F1F;" vertex="1" parent="757">
                    <mxGeometry x="32.42999999999995" y="84" width="61.17" height="45" as="geometry"/>
                </mxCell>
                <mxCell id="762" value="" style="endArrow=classic;startArrow=classic;html=1;fontSize=13;fontColor=#1F1F1F;entryX=0.5;entryY=1;entryDx=0;entryDy=0;exitX=0.484;exitY=-0.144;exitDx=0;exitDy=0;exitPerimeter=0;" edge="1" parent="757" source="761" target="759">
                    <mxGeometry width="50" height="50" relative="1" as="geometry">
                        <mxPoint x="-58.99000000000001" y="191" as="sourcePoint"/>
                        <mxPoint x="-8.990000000000009" y="141" as="targetPoint"/>
                    </mxGeometry>
                </mxCell>
                <mxCell id="763" value="" style="group;fontColor=#1F1F1F;" vertex="1" connectable="0" parent="757">
                    <mxGeometry x="12.009999999999991" y="14" width="126" height="144" as="geometry"/>
                </mxCell>
                <mxCell id="764" value="" style="rounded=1;absoluteArcSize=1;arcSize=2;html=1;strokeColor=#23445d;shadow=0;dashed=0;strokeColor=none;fontSize=13;align=center;verticalAlign=top;spacing=10;spacingTop=-4;fillColor=#FFFFFF;fontStyle=1;fontColor=#1F1F1F;" vertex="1" parent="763">
                    <mxGeometry width="126" height="144" as="geometry"/>
                </mxCell>
                <mxCell id="765" value="Batch Processor" style="rounded=1;absoluteArcSize=1;arcSize=2;html=1;strokeColor=#82b366;shadow=0;dashed=0;strokeColor=none;fontSize=13;align=center;verticalAlign=top;spacing=10;spacingTop=-4;fillColor=#d5e8d4;fontStyle=1;fontColor=#1F1F1F;" vertex="1" parent="763">
                    <mxGeometry x="7.5" y="10" width="111" height="41" as="geometry"/>
                </mxCell>
                <mxCell id="766" value="" style="rounded=1;absoluteArcSize=1;arcSize=2;html=1;strokeColor=#23445d;shadow=0;dashed=0;strokeColor=none;fontSize=13;align=left;verticalAlign=top;spacing=10;spacingTop=-4;fillColor=#E1F5FE;fontStyle=1;fontColor=#1F1F1F;" vertex="1" parent="763">
                    <mxGeometry x="7.509999999999991" y="76" width="111" height="56" as="geometry"/>
                </mxCell>
                <mxCell id="767" value="" style="shape=image;verticalLabelPosition=bottom;verticalAlign=top;imageAspect=0;aspect=fixed;image=data:image/svg+xml,PHN2ZyB4bWxucz0iaHR0cDovL3d3dy53My5vcmcvMjAwMC9zdmciIHhtbG5zOnhsaW5rPSJodHRwOi8vd3d3LnczLm9yZy8xOTk5L3hsaW5rIiB3aWR0aD0iMzY3cHgiIGhlaWdodD0iMjcwcHgiIHZpZXdCb3g9IjAgMCAzNjcgMjcwIiB2ZXJzaW9uPSIxLjEiPiYjeGE7ICAgIDwhLS0gR2VuZXJhdG9yOiBTa2V0Y2ggNTEuMyAoNTc1NDQpIC0gaHR0cDovL3d3dy5ib2hlbWlhbmNvZGluZy5jb20vc2tldGNoIC0tPiYjeGE7ICAgIDx0aXRsZT5BcnRib2FyZDwvdGl0bGU+JiN4YTsgICAgPGRlc2M+Q3JlYXRlZCB3aXRoIFNrZXRjaC48L2Rlc2M+JiN4YTsgICAgPGRlZnMvPiYjeGE7ICAgIDxnIGlkPSJBcnRib2FyZCIgc3Ryb2tlPSJub25lIiBzdHJva2Utd2lkdGg9IjEiIGZpbGw9Im5vbmUiIGZpbGwtcnVsZT0iZXZlbm9kZCI+JiN4YTsgICAgICAgIDxwYXRoIGQ9Ik04OS43OTE3MTE5LDE5My41MDg3NjEgTDYyLjkwMDAzOTIsMTkzLjUwODc2MSBMNjIuOTAwMDM5MiwxODUuMDY0MTIgQzYwLjMzMTEwNjQsMTg4LjI4ODk1IDU3LjczNDg4MzUsMTkwLjYzOTIxNSA1NS4xMTEyOTI2LDE5Mi4xMTQ5ODUgQzUwLjUyMDAwODQsMTk0LjY4MzkxOCA0NS4zMDAyMzM5LDE5NS45NjgzNjUgMzkuNDUxODEyNCwxOTUuOTY4MzY1IEMyOS45OTU5NTM0LDE5NS45NjgzNjUgMjEuNTc4NzI1NCwxOTIuNzE2MjU0IDE0LjE5OTg3NTksMTg2LjIxMTkzNSBDNS4zOTk5MTQ2NCwxNzguNDUwNDc4IDEsMTY4LjE3NDkwMSAxLDE1NS4zODQ4OTUgQzEsMTQyLjM3NjI1NyA1LjUwOTIyOTI5LDEzMS45OTEzNjUgMTQuNTI3ODIzMSwxMjQuMjI5OTA5IEMyMS42ODgwNDAxLDExOC4wNTM1MzggMjkuOTEzOTY3NCwxMTQuOTY1NCAzOS4yMDU4NTIsMTE0Ljk2NTQgQzQ0LjYxNzAwODMsMTE0Ljk2NTQgNDkuNzAwMTM5NSwxMTYuMTEzMjAzIDU0LjQ1NTM5ODEsMTE4LjQwODg0NSBDNTcuMTg4MzA1MywxMTkuNzIwNjQxIDYwLjAwMzE1NzYsMTIxLjg3OTYwNSA2Mi45MDAwMzkyLDEyNC44ODU4MDMgTDYyLjkwMDAzOTIsNzAuMzY0NTc2NiBMODkuNzkxNzExOSw3MC4zNjQ1NzY2IEw4OS43OTE3MTE5LDE5My41MDg3NjEgWiBNNjMuNzE5OTA3MywxNTUuNDY2ODgyIEM2My43MTk5MDczLDE1MC42NTY5NjUgNjIuMDI1NTMwMiwxNDYuNTcxMzMgNTguNjM2NzI1MywxNDMuMjA5ODU1IEM1NS4yNDc5MjAzLDEzOS44NDgzNzkgNTEuMTQ4NjIxLDEzOC4xNjc2NjYgNDYuMzM4NzA0MiwxMzguMTY3NjY2IEM0MC45ODIyMDYxLDEzOC4xNjc2NjYgMzYuNTgyMjkxNCwxNDAuMTg5OTg3IDMzLjEzODgyODMsMTQ0LjIzNDY5IEMzMC4zNTEyNjI5LDE0Ny41MTQxNzggMjguOTU3NTAxMiwxNTEuMjU4MjA1IDI4Ljk1NzUwMTIsMTU1LjQ2Njg4MiBDMjguOTU3NTAxMiwxNTkuNjc1NTU5IDMwLjM1MTI2MjksMTYzLjQxOTU4NiAzMy4xMzg4MjgzLDE2Ni42OTkwNzUgQzM2LjUyNzYzMzMsMTcwLjc0Mzc3NyA0MC45Mjc1NDc5LDE3Mi43NjYwOTggNDYuMzM4NzA0MiwxNzIuNzY2MDk4IEM1MS4yMDMyNzkxLDE3Mi43NjYwOTggNTUuMzE2MjQyOCwxNzEuMDk5MDUgNTguNjc3NzE4NywxNjcuNzY0OTAzIEM2Mi4wMzkxOTQ2LDE2NC40MzA3NTYgNjMuNzE5OTA3MywxNjAuMzMxNDU3IDYzLjcxOTkwNzMsMTU1LjQ2Njg4MiBaIE0xOTAuNjUwMDYsMTkzLjUwODc2MSBMMTYzLjc1ODM4NywxOTMuNTA4NzYxIEwxNjMuNzU4Mzg3LDE4NS4wNjQxMiBDMTYxLjE4OTQ1NCwxODguMjg4OTUgMTU4LjU5MzIzMSwxOTAuNjM5MjE1IDE1NS45Njk2NDEsMTkyLjExNDk4NSBDMTUxLjM3ODM1NiwxOTQuNjgzOTE4IDE0Ni4xNTg1ODIsMTk1Ljk2ODM2NSAxNDAuMzEwMTYsMTk1Ljk2ODM2NSBDMTMwLjg1NDMwMSwxOTUuOTY4MzY1IDEyMi40MzcwNzMsMTkyLjcxNjI1NCAxMTUuMDU4MjI0LDE4Ni4yMTE5MzUgQzEwNi4yNTgyNjMsMTc4LjQ1MDQ3OCAxMDEuODU4MzQ4LDE2OC4xNzQ5MDEgMTAxLjg1ODM0OCwxNTUuMzg0ODk1IEMxMDEuODU4MzQ4LDE0Mi4zNzYyNTcgMTA2LjM2NzU3NywxMzEuOTkxMzY1IDExNS4zODYxNzEsMTI0LjIyOTkwOSBDMTIyLjU0NjM4OCwxMTguMDUzNTM4IDEzMC43NzIzMTUsMTE0Ljk2NTQgMTQwLjA2NDIsMTE0Ljk2NTQgQzE0NS40NzUzNTYsMTE0Ljk2NTQgMTUwLjU1ODQ4NywxMTYuMTEzMjAzIDE1NS4zMTM3NDYsMTE4LjQwODg0NSBDMTU4LjA0NjY1MywxMTkuNzIwNjQxIDE2MC44NjE1MDYsMTIxLjg3OTYwNSAxNjMuNzU4Mzg3LDEyNC44ODU4MDMgTDE2My43NTgzODcsMTE3LjQyNTAwNCBMMTkwLjY1MDA2LDExNy40MjUwMDQgTDE5MC42NTAwNiwxOTMuNTA4NzYxIFogTTE2NC41NzgyNTUsMTU1LjQ2Njg4MiBDMTY0LjU3ODI1NSwxNTAuNjU2OTY1IDE2Mi44ODM4NzgsMTQ2LjU3MTMzIDE1OS40OTUwNzMsMTQzLjIwOTg1NSBDMTU2LjEwNjI2OCwxMzkuODQ4Mzc5IDE1Mi4wMDY5NjksMTM4LjE2NzY2NiAxNDcuMTk3MDUyLDEzOC4xNjc2NjYgQzE0MS44NDA1NTQsMTM4LjE2NzY2NiAxMzcuNDQwNjM5LDE0MC4xODk5ODcgMTMzLjk5NzE3NiwxNDQuMjM0NjkgQzEzMS4yMDk2MTEsMTQ3LjUxNDE3OCAxMjkuODE1ODQ5LDE1MS4yNTgyMDUgMTI5LjgxNTg0OSwxNTUuNDY2ODgyIEMxMjkuODE1ODQ5LDE1OS42NzU1NTkgMTMxLjIwOTYxMSwxNjMuNDE5NTg2IDEzMy45OTcxNzYsMTY2LjY5OTA3NSBDMTM3LjM4NTk4MSwxNzAuNzQzNzc3IDE0MS43ODU4OTYsMTcyLjc2NjA5OCAxNDcuMTk3MDUyLDE3Mi43NjYwOTggQzE1Mi4wNjE2MjcsMTcyLjc2NjA5OCAxNTYuMTc0NTkxLDE3MS4wOTkwNSAxNTkuNTM2MDY3LDE2Ny43NjQ5MDMgQzE2Mi44OTc1NDMsMTY0LjQzMDc1NiAxNjQuNTc4MjU1LDE2MC4zMzE0NTcgMTY0LjU3ODI1NSwxNTUuNDY2ODgyIFogTTI5NC41NDE5MiwxNTUuNTQ4ODY5IEMyOTQuNTQxOTIsMTY4LjU1NzUwNyAyOTAuMDMyNjksMTc4Ljk0MjM5OSAyODEuMDE0MDk3LDE4Ni43MDM4NTYgQzI3My44NTM4OCwxOTIuODgwMjI2IDI2NS42Mjc5NTIsMTk1Ljk2ODM2NSAyNTYuMzM2MDY4LDE5NS45NjgzNjUgQzI1MC45MjQ5MTEsMTk1Ljk2ODM2NSAyNDUuODQxNzgsMTk0LjgyMDU2MSAyNDEuMDg2NTIyLDE5Mi41MjQ5MTkgQzIzOC4zNTM2MTQsMTkxLjIxMzEyMyAyMzUuNTM4NzYyLDE4OS4wNTQxNTkgMjMyLjY0MTg4LDE4Ni4wNDc5NjEgTDIzMi42NDE4OCwyMzEuNTUwNjM5IEwyMDUuNzUwMjA4LDIzMS41NTA2MzkgTDIwNS43NTAyMDgsMTE3LjQyNTAwNCBMMjMyLjY0MTg4LDExNy40MjUwMDQgTDIzMi42NDE4OCwxMjUuODY5NjQ1IEMyMzUuMDQ2ODM5LDEyMi42OTk0NzMgMjM3LjY0MzA2MiwxMjAuMzQ5MjA4IDI0MC40MzA2MjcsMTE4LjgxODc4IEMyNDUuMDIxOTExLDExNi4yNDk4NDcgMjUwLjI0MTY4NiwxMTQuOTY1NCAyNTYuMDkwMTA3LDExNC45NjU0IEMyNjUuNTQ1OTY2LDExNC45NjU0IDI3My45NjMxOTQsMTE4LjIxNzUxIDI4MS4zNDIwNDQsMTI0LjcyMTgzIEMyOTAuMTQyMDA1LDEzMi40ODMyODYgMjk0LjU0MTkyLDE0Mi43NTg4NjMgMjk0LjU0MTkyLDE1NS41NDg4NjkgWiBNMjY2LjU4NDQxOCwxNTUuNDY2ODgyIEMyNjYuNTg0NDE4LDE1MS4xNDg4ODkgMjY1LjIxNzk4NSwxNDcuNDA0ODYyIDI2Mi40ODUwNzgsMTQ0LjIzNDY5IEMyNTkuMDQxNjE1LDE0MC4xODk5ODcgMjU0LjYxNDM3MiwxMzguMTY3NjY2IDI0OS4yMDMyMTUsMTM4LjE2NzY2NiBDMjQ0LjMzODY0MSwxMzguMTY3NjY2IDI0MC4yMjU2NzcsMTM5LjgzNDcxNCAyMzYuODY0MjAxLDE0My4xNjg4NjEgQzIzMy41MDI3MjUsMTQ2LjUwMzAwOCAyMzEuODIyMDEyLDE1MC42MDIzMDcgMjMxLjgyMjAxMiwxNTUuNDY2ODgyIEMyMzEuODIyMDEyLDE2MC4yNzY3OTkgMjMzLjUxNjM4OSwxNjQuMzYyNDM0IDIzNi45MDUxOTQsMTY3LjcyMzkxIEMyNDAuMjkzOTk5LDE3MS4wODUzODYgMjQ0LjM5MzI5OSwxNzIuNzY2MDk4IDI0OS4yMDMyMTUsMTcyLjc2NjA5OCBDMjU0LjYxNDM3MiwxNzIuNzY2MDk4IDI1OS4wMTQyODYsMTcwLjc0Mzc3NyAyNjIuNDAzMDkxLDE2Ni42OTkwNzUgQzI2NS4xOTA2NTcsMTYzLjQxOTU4NiAyNjYuNTg0NDE4LDE1OS42NzU1NTkgMjY2LjU4NDQxOCwxNTUuNDY2ODgyIFogTTM2My42NzEzNzMsMTQyLjI2NzAwNiBDMzU5Ljg5OTk2MSwxNDAuNDYzMjg4IDM1Ni4wNzM5NDksMTM5LjU2MTQ0MiAzNTIuMTkzMjIsMTM5LjU2MTQ0MiBDMzQzLjMzODYwMSwxMzkuNTYxNDQyIDMzNy41OTk1ODIsMTQzLjE2ODgyNSAzMzQuOTc1OTkxLDE1MC4zODM3IEMzMzMuOTkyMTQ0LDE1My4wMDcyOTEgMzMzLjUwMDIyOCwxNTYuNTMyNjg5IDMzMy41MDAyMjgsMTYwLjk1OTk5OCBMMzMzLjUwMDIyOCwxOTMuNTA4NzYxIEwzMDYuNjA4NTU2LDE5My41MDg3NjEgTDMwNi42MDg1NTYsMTE3LjQyNTAwNCBMMzMzLjUwMDIyOCwxMTcuNDI1MDA0IEwzMzMuNTAwMjI4LDEyOS44ODY5OTggQzMzNi4zNDI0NTIsMTI1LjQ1OTY4OSAzMzkuNDAzMjYyLDEyMi4yNjIyMzUgMzQyLjY4Mjc1MSwxMjAuMjk0NTQyIEMzNDcuMTEwMDYsMTE3LjY3MDk1MSAzNTIuMzU3MTY0LDExNi4zNTkxNzUgMzU4LjQyNDIxOCwxMTYuMzU5MTc1IEMzNTkuODQ1MzI5LDExNi4zNTkxNzUgMzYxLjU5NDM2NCwxMTYuNDQxMTYxIDM2My42NzEzNzMsMTE2LjYwNTEzNiBMMzYzLjY3MTM3MywxNDIuMjY3MDA2IFoiIGlkPSJkYXByIiBmaWxsPSIjMEQyMTkyIi8+JiN4YTsgICAgICAgIDxwb2x5Z29uIGlkPSJ0aWUiIGZpbGw9IiMwRDIxOTIiIGZpbGwtcnVsZT0ibm9uemVybyIgcG9pbnRzPSIyMDUuNTM4NDA5IDE5NC4wNjIxNzIgMjMyLjYxNDU1MSAxOTQuMDYyMTcyIDIzNC45NDY2MjEgMjU3LjYzMzgzMSAyMTkuMDc2NDggMjY4Ljc1NDQzIDIwMy4yMDYzMzkgMjU3LjYzMzgzMSIvPiYjeGE7ICAgICAgICA8cmVjdCBpZD0iUmVjdGFuZ2xlLTQiIGZpbGw9IiMwRDIxOTIiIGZpbGwtcnVsZT0ibm9uemVybyIgeD0iMTQ0LjgyOTQ5NyIgeT0iMi4yNzkwODgyOSIgd2lkdGg9IjEwMi43MjI2NDMiIGhlaWdodD0iNzIuMjk0MTQ0NCIgcng9IjIiLz4mI3hhOyAgICAgICAgPHJlY3QgaWQ9IlJlY3RhbmdsZS00IiBmaWxsPSIjRkZGRkZGIiBmaWxsLXJ1bGU9Im5vbnplcm8iIG9wYWNpdHk9IjAuMDc5OTk5OTk4MiIgeD0iMTQ0LjgyOTQ5NyIgeT0iMi4yNzkwODgyOSIgd2lkdGg9IjM3Ljk5NzYzNjkiIGhlaWdodD0iNzIuMjk0MTQ0NCIvPiYjeGE7ICAgICAgICA8cmVjdCBpZD0iUmVjdGFuZ2xlLTMiIGZpbGw9IiMwRDIxOTIiIGZpbGwtcnVsZT0ibm9uemVybyIgeD0iMTEyLjM5MDc2OCIgeT0iNjkuOTA5MDk0NCIgd2lkdGg9IjE2Ni4yNDg0ODgiIGhlaWdodD0iMTcuMzUxMzQxMiIgcng9IjMuNzIwMTYiLz4mI3hhOyAgICAgICAgPHJlY3QgaWQ9IlJlY3RhbmdsZS00IiBmaWxsPSIjRkZGRkZGIiBmaWxsLXJ1bGU9Im5vbnplcm8iIG9wYWNpdHk9IjAuMDc5OTk5OTk4MiIgeD0iMTEyLjM5MDc2OCIgeT0iNjkuOTA5MDk0NCIgd2lkdGg9IjUxLjQzNzU0NzgiIGhlaWdodD0iMjEuMzU1NDk2OSIvPiYjeGE7ICAgIDwvZz4mI3hhOzwvc3ZnPg==;fontColor=#1F1F1F;" vertex="1" parent="763">
                    <mxGeometry x="32.42999999999995" y="84" width="61.17" height="45" as="geometry"/>
                </mxCell>
                <mxCell id="768" value="" style="endArrow=classic;startArrow=classic;html=1;fontSize=13;fontColor=#1F1F1F;entryX=0.5;entryY=1;entryDx=0;entryDy=0;strokeColor=#1F1F1F;" edge="1" parent="763" target="765">
                    <mxGeometry width="50" height="50" relative="1" as="geometry">
                        <mxPoint x="63" y="78" as="sourcePoint"/>
                        <mxPoint x="-8.990000000000009" y="141" as="targetPoint"/>
                    </mxGeometry>
                </mxCell>
                <mxCell id="769" style="edgeStyle=orthogonalEdgeStyle;rounded=0;orthogonalLoop=1;jettySize=auto;html=1;exitX=0;exitY=0.5;exitDx=0;exitDy=0;entryX=1;entryY=0.5;entryDx=0;entryDy=0;strokeColor=#1F1F1F;fontColor=#1F1F1F;" edge="1" parent="1" source="727" target="705">
                    <mxGeometry relative="1" as="geometry">
                        <Array as="points">
                            <mxPoint x="542" y="315"/>
                            <mxPoint x="542" y="179"/>
                        </Array>
                    </mxGeometry>
                </mxCell>
                <mxCell id="770" style="edgeStyle=orthogonalEdgeStyle;rounded=0;orthogonalLoop=1;jettySize=auto;html=1;exitX=0.5;exitY=0;exitDx=0;exitDy=0;entryX=1;entryY=0.25;entryDx=0;entryDy=0;strokeColor=#1F1F1F;fontColor=#1F1F1F;" edge="1" parent="1" source="758" target="705">
                    <mxGeometry relative="1" as="geometry"/>
                </mxCell>
                <mxCell id="776" style="edgeStyle=orthogonalEdgeStyle;rounded=0;orthogonalLoop=1;jettySize=auto;html=1;exitX=0.5;exitY=1;exitDx=0;exitDy=0;entryX=0.5;entryY=0;entryDx=0;entryDy=0;strokeColor=#1F1F1F;fontColor=#1F1F1F;" edge="1" parent="1" source="g8jBpLHVoKCk_19KpYFQ-825" target="g8jBpLHVoKCk_19KpYFQ-748">
                    <mxGeometry relative="1" as="geometry"/>
                </mxCell>
                <mxCell id="779" style="edgeStyle=orthogonalEdgeStyle;rounded=0;orthogonalLoop=1;jettySize=auto;html=1;exitX=0.5;exitY=0;exitDx=0;exitDy=0;entryX=0.5;entryY=1;entryDx=0;entryDy=0;strokeColor=#1F1F1F;fontColor=#1F1F1F;" edge="1" parent="1" source="g8jBpLHVoKCk_19KpYFQ-780" target="766">
                    <mxGeometry relative="1" as="geometry"/>
                </mxCell>
                <mxCell id="786" style="edgeStyle=orthogonalEdgeStyle;rounded=0;orthogonalLoop=1;jettySize=auto;html=1;exitX=0.25;exitY=1;exitDx=0;exitDy=0;entryX=1;entryY=0.5;entryDx=0;entryDy=0;strokeColor=#1F1F1F;fontColor=#1F1F1F;" edge="1" parent="1" source="766" target="g8jBpLHVoKCk_19KpYFQ-802">
                    <mxGeometry relative="1" as="geometry"/>
                </mxCell>
                <mxCell id="788" style="edgeStyle=orthogonalEdgeStyle;rounded=0;orthogonalLoop=1;jettySize=auto;html=1;exitX=1;exitY=0.5;exitDx=0;exitDy=0;entryX=0;entryY=0.5;entryDx=0;entryDy=0;strokeColor=#1F1F1F;fontColor=#1F1F1F;" edge="1" parent="1" source="766" target="g8jBpLHVoKCk_19KpYFQ-787">
                    <mxGeometry relative="1" as="geometry"/>
                </mxCell>
                <mxCell id="792" style="edgeStyle=orthogonalEdgeStyle;rounded=0;orthogonalLoop=1;jettySize=auto;html=1;strokeColor=#1F1F1F;fontColor=#1F1F1F;" edge="1" parent="1">
                    <mxGeometry relative="1" as="geometry">
                        <mxPoint x="632" y="343" as="sourcePoint"/>
                        <mxPoint x="632" y="444" as="targetPoint"/>
                    </mxGeometry>
                </mxCell>
            </root>
        </mxGraphModel>
    </diagram>
</mxfile>